<svg width="904" height="904" viewBox="0 0 904 904" fill="none" xmlns="http://www.w3.org/2000/svg">
<path d="M114.897 856.945C99.6702 856.945 95.2421 848.081 95.2421 834.797C95.2421 830.368 95.8 825.375 96.4851 820.114C99.8186 797.139 107.962 783.996 127.617 783.996C140.908 783.996 147.392 789.943 147.392 800.741V806.003H160.577C160.726 806.003 160.726 801.158 160.726 800.056C160.726 784.278 151.17 769.313 127.638 769.313C95.6587 769.313 82.5084 786.687 77.6635 820.742C76.9714 825.312 76.5547 829.577 76.5547 834.133C76.5547 854.204 84.4506 872.461 112.686 872.461C134.142 872.461 146.883 862.001 154.355 849.126L141.756 840.644C133.591 853.519 124.728 856.945 114.897 856.945ZM201.42 793.544C175.804 793.544 164.737 806.688 161.001 832.847C160.577 835.905 160.302 839.083 160.302 841.986C160.302 858.873 168.191 872.305 190.056 872.305C215.672 872.305 226.887 858.597 230.623 832.847C231.04 829.528 231.315 826.484 231.315 823.44C231.322 806.278 223.158 793.544 201.42 793.544ZM212.077 832.854C209.308 851.824 203.362 857.637 192.14 857.637C183.149 857.637 178.721 853.901 178.721 842.685C178.721 839.917 179.003 836.597 179.554 832.854C182.323 814.033 187.86 808.22 199.209 808.22C208.348 808.22 212.91 811.956 212.91 823.306C212.91 826.074 212.628 829.26 212.077 832.854ZM295.704 770.69L291.417 796.101C291.142 798.312 291.283 797.577 292.116 799.654C288.105 796.61 280.901 794.597 276.056 794.597C253.075 794.597 240.207 805 236.054 834.069C235.503 837.53 235.362 840.447 235.362 843.349C235.362 864.537 247.82 872.433 264.565 872.433C271.635 872.433 278.549 872.581 283.945 868.018L285.322 876.628H298.614L314.116 770.69H295.704ZM282.554 853.618C276.332 857.347 270.244 858.188 266.508 858.188C256.401 858.188 253.633 852.926 253.633 844.486C253.633 841.301 254.049 837.572 254.607 833.546C257.785 811.54 264.848 807.655 273.987 807.655C279.933 807.655 284.496 808.63 288.797 810.989L282.554 853.618ZM354.542 793.544C329.202 793.544 317.308 805.579 313.29 832.847C312.866 836.174 312.59 839.359 312.59 842.403C312.59 861.09 322.146 872.305 343.178 872.305C359.514 872.305 371.704 865.518 378.208 853.06L364.224 847.382C360.213 853.47 354.817 857.622 345.262 857.622C335.021 857.622 330.868 854.868 330.868 845.729C330.868 843.928 331.009 841.308 331.285 841.308H381.252C381.951 834.246 382.771 829.253 382.771 825.114C382.771 811.278 377.516 793.544 354.542 793.544ZM364.09 827.19H333.637C336.688 820.128 341.801 809.195 352.324 809.195C360.488 809.195 364.507 813.969 364.507 822.133C364.5 823.518 364.373 827.19 364.09 827.19ZM436.043 791.878L437.703 777.753H398.661L397.009 791.878H407.249L396.182 862.503H385.927L384.275 876.628H423.309L424.976 862.503H414.728L425.795 791.878H436.043ZM515.369 813.065L520.355 798.94H506.929L497.247 800.939C491.844 797.485 484.506 794.893 477.592 794.893C457.788 794.893 440.909 804.456 440.909 826.194C440.909 832.289 443.12 837.212 445.747 840.538C441.601 842.749 437.999 846.45 437.999 851.443C437.999 853.653 438.826 855.92 440.492 857.99C432.18 862.983 427.074 871.253 427.074 880.936C427.074 899.63 446.587 903.621 461.539 903.621C480.36 903.621 502.791 899.32 502.791 875.371C502.791 867.206 497.67 860.829 482.86 858.06L456.143 853.067C453.099 852.509 452.407 851.542 452.407 850.157C452.407 848.081 453.664 846.979 455.733 846.979L457.534 847.255C461.136 848.081 465.289 848.505 469.576 848.505C488.821 848.505 505.983 840.192 505.983 818.602C505.983 815.551 505.432 813.489 504.048 810.163C506.4 811.271 509.451 813.072 510.687 813.072L515.369 813.065ZM477.309 870.363C482.564 871.338 484.358 873.273 484.358 876.734C484.358 887.949 472.316 889.333 463.601 889.333C450.309 889.333 445.33 886.155 445.33 879.085C445.33 872.856 447.124 869.954 451.284 865.518L477.309 870.363ZM471.624 834.104C463.594 834.104 459.166 831.202 459.166 824.273C459.166 814.033 465.119 808.079 475.501 808.079C483.807 808.079 487.825 811.54 487.825 818.313C487.825 828.56 482.006 834.104 471.624 834.104ZM564.545 793.544C556.791 793.544 549.876 797.351 541.288 804.124L540.045 798.94H524.812L514.154 876.628H532.566L540.596 817.712C545.999 814.393 552.638 809.569 558.316 809.569C565.23 809.569 567.73 812.91 567.73 819.273C567.73 820.799 567.582 825.312 567.307 826.971L560.534 876.628H578.946L585.719 826.569C586.001 824.224 586.276 820.368 586.276 818.157C586.284 804.993 580.047 793.544 564.545 793.544ZM621.25 857.164L621.391 855.264L629.414 798.94H598.819L596.891 813.065H610.31C609.201 813.065 608.509 814.301 608.375 815.417L602.838 852.926C602.563 854.734 602.428 858.491 602.428 860.003C602.428 869.692 607.683 876.628 618.474 876.628H627.889L629.965 862.503H624.018C621.935 862.503 621.25 858.823 621.25 857.164ZM633.15 770.69H615.155C614.046 770.69 614.046 766.615 613.912 767.999L611.412 787.901C611.271 789.152 611.271 791.878 612.379 791.878H630.382C631.491 791.878 631.491 787.04 631.625 785.783L634.125 770.422C634.266 769.038 634.266 770.69 633.15 770.69ZM670.695 857.637C666.132 857.637 663.915 855.694 663.915 851.549L664.056 851.266L669.868 813.065H690.907L697.271 798.94H671.803L676.09 767.858L656.718 774.052L653.25 798.94H642.042L640.107 813.065H653.116C651.873 820.128 650.623 815.544 650.489 816.935L645.503 850.433C645.227 851.958 645.227 853.067 645.227 854.444C645.227 867.595 654.917 872.517 666.556 872.517C677.347 872.517 686.07 869.367 692.857 863.682L684.269 853.117C679.968 855.744 677.065 857.637 670.695 857.637ZM738.247 793.544C712.914 793.544 701.014 805.579 696.995 832.847C696.579 836.174 696.303 839.359 696.303 842.403C696.303 861.09 705.852 872.305 726.891 872.305C743.226 872.305 755.416 865.518 761.914 853.06L747.937 847.382C743.926 853.47 738.523 857.622 728.967 857.622C718.734 857.622 714.574 854.868 714.574 845.729C714.574 843.928 714.722 841.308 714.998 841.308H764.965C765.657 834.246 766.49 829.253 766.49 825.114C766.49 811.278 761.229 793.544 738.247 793.544ZM747.803 827.19H717.349C720.393 820.128 725.507 809.195 736.037 809.195C744.201 809.195 748.22 813.969 748.22 822.133C748.213 823.518 748.078 827.19 747.803 827.19ZM817.432 793.544C810.786 793.544 804.557 797.351 798.328 803.291L797.219 798.94H782L771.335 876.628H789.888L798.053 816.469C802.897 813.567 808.435 811.088 813.696 811.088C817.023 811.088 820.201 810.558 823.245 810.975L825.61 794.922C822.828 794.371 820.059 793.544 817.432 793.544ZM347.331 715.045C305.429 696.937 266.218 650.903 266.126 603.803C266.013 552.452 298.557 508.855 339.032 480.203C334.166 498.586 331.511 515.402 343.567 531.844C354.775 547.134 374.401 554.564 392.933 550.531C436.241 541.053 438.225 493.445 412.553 465.71C387.17 438.244 362.614 407.219 372.276 367.386C377.113 347.42 389.374 328.719 404.904 315.35C392.969 346.721 426.89 377.662 449.243 393.072C488.016 419.811 530.553 440.017 566.205 471.36C603.707 504.3 631.399 548.843 625.805 600.498C619.746 656.49 575.252 695.432 525.348 715.094C630.806 691.816 739.773 609.969 742.005 493.007C743.855 396.787 677.849 322.737 596.079 280.341L591.806 278.01C594.052 283.455 594.787 288.088 594.702 292.234C595.437 289.176 595.931 286.033 596.072 282.792C596.037 286.824 595.521 290.631 594.575 294.205L594.702 292.234C593.473 297.425 591.411 302.249 588.649 306.663L589.85 305.37C573.536 332.427 529.374 338.303 507.558 310.286C472.486 265.22 508.292 216.63 513.3 168.909C519.571 109.096 482.062 51.0356 435.556 16.2881C461.171 57.7238 427.427 112.543 400.427 143.187C374.246 172.899 342.408 197.703 313.509 224.695C282.462 253.687 252.616 284.225 227.099 318.252C176.065 386.356 144.821 472.01 167.781 556.979C190.727 641.884 264.276 695.934 347.331 715.045Z" fill="#EE4323"/>
</svg>
