<svg width="786" height="884" viewBox="0 0 786 884" fill="none" xmlns="http://www.w3.org/2000/svg">
<path d="M784.677 260.017C784.671 245.193 781.499 232.094 775.085 220.852C768.785 209.797 759.35 200.531 746.694 193.205C642.226 132.992 537.658 72.9625 433.224 12.6877C405.069 -3.56029 377.771 -2.96794 349.825 13.5133C308.244 38.0265 100.061 157.253 38.0258 193.171C12.4778 207.955 0.0460547 230.581 0.0399141 259.99C0 381.082 0.0399141 502.172 0 623.268C0.00614063 637.767 3.04268 650.611 9.17409 661.685C15.4774 673.074 25.0445 682.595 37.992 690.086C100.031 726.004 308.241 845.222 349.813 869.741C377.771 886.232 405.069 886.821 433.233 870.567C537.67 810.289 642.245 750.263 746.728 690.049C759.675 682.561 769.242 673.034 775.546 661.654C781.668 650.58 784.71 637.736 784.717 623.234C784.717 623.234 784.717 381.113 784.677 260.017Z" fill="#5C8DBC"/>
<path d="M393.559 440.449L9.17383 661.685C15.4772 673.074 25.0443 682.595 37.9918 690.087C100.031 726.005 308.241 845.222 349.813 869.742C377.771 886.232 405.069 886.822 433.233 870.567C537.67 810.29 642.245 750.263 746.727 690.05C759.675 682.561 769.242 673.035 775.545 661.654L393.559 440.449Z" fill="#1A4674"/>
<path d="M279.709 505.981C302.076 545.015 344.124 571.342 392.359 571.342C440.891 571.342 483.179 544.68 505.432 505.229L393.559 440.449L279.709 505.981Z" fill="#1A4674"/>
<path d="M784.676 260.017C784.67 245.193 781.499 232.094 775.085 220.852L393.559 440.448L775.545 661.653C781.668 650.58 784.71 637.736 784.716 623.234C784.716 623.234 784.716 381.113 784.676 260.017Z" fill="#1B598E"/>
<path d="M763.673 456.261H733.823V486.105H703.968V456.261H674.121V426.426H703.968V396.588H733.823V426.426H763.673V456.261ZM654.754 456.261H624.907V486.105H595.058V456.261H565.208V426.426H595.058V396.588H624.907V426.426H654.754V456.261Z" fill="white"/>
<path d="M505.432 505.229C483.178 544.68 440.891 571.342 392.358 571.342C344.124 571.342 302.076 545.015 279.709 505.981C268.472 486.395 262.571 464.206 262.595 441.628C262.595 369.991 320.694 311.917 392.358 311.917C440.283 311.917 482.11 337.915 504.588 376.55L618.008 311.263C572.927 233.473 488.76 181.138 392.358 181.138C248.434 181.138 131.766 297.765 131.766 441.628C131.766 488.825 144.326 533.085 166.279 571.262C211.247 649.464 295.653 702.121 392.358 702.121C489.242 702.121 573.78 649.252 618.683 570.82L505.432 505.229Z" fill="white"/>
</svg>
