<svg width="800" height="800" viewBox="0 0 800 800" fill="none" xmlns="http://www.w3.org/2000/svg">
<path d="M220.417 217.8L168.711 166.094L168.93 539.844L169.548 557.312C169.805 565.531 171.33 574.806 173.873 584.419L583.573 728.887L685.986 683.512L686.023 683.387L220.417 217.8Z" fill="#00D2B8"/>
<path d="M173.875 584.418L173.9 584.443C173.875 584.275 173.787 584.087 173.787 583.912C173.787 584.087 173.812 584.25 173.875 584.418ZM685.987 683.512L583.575 728.887L173.9 584.443C181.725 614.468 199.05 648.218 217.693 666.675L351.393 799.612L648.675 800L686.025 683.387L685.987 683.512Z" fill="#55DDCA"/>
<path d="M9.48041 406.612C-3.75709 420.744 2.81791 449.894 24.1304 471.369L116.062 564.062L173.874 584.419C171.33 574.806 169.805 565.531 169.549 557.312L168.93 539.844L168.712 166.094L9.48041 406.612Z" fill="#0081C6"/>
<path d="M586.936 170.894C577.323 168.437 568.105 166.919 559.748 166.656L541.286 166.019L168.711 166.069L686.073 683.387H686.117L731.555 580.875L586.936 170.894Z" fill="#0079B3"/>
<path d="M586.469 170.794C586.669 170.838 586.825 170.894 586.956 170.913L586.938 170.894C586.825 170.838 586.669 170.838 586.469 170.794ZM669.119 214.788C650.344 195.856 617.038 178.65 586.956 170.913L731.556 580.875L686.119 683.388H686.075L797.113 647.925L797.35 343.5L669.119 214.788Z" fill="#00A4E4"/>
<path d="M566.68 113.431L474.011 21.4438C452.58 0.212565 423.417 -6.39368 409.323 6.80631L168.711 166.069L541.286 166.019L559.748 166.656C568.105 166.919 577.323 168.438 586.936 170.894L566.68 113.431Z" fill="#00D2B8"/>
</svg>
