<svg width="800" height="800" viewBox="0 0 800 800" fill="none" xmlns="http://www.w3.org/2000/svg">
<path d="M800 48.4375H0V751.562H800V48.4375Z" fill="white"/>
<path d="M138.563 547.373C79.8021 485.108 45.4219 399.088 45.5091 296.454C45.4279 205.688 73.9467 127.67 122.974 68.3037L122.895 68.3334H19.8457V547.383H138.489L138.563 547.373Z" fill="#A90533"/>
<path d="M681.28 547.412C706.593 520.301 729.274 488.373 749.827 451.858L635.767 394.828C595.71 459.951 537.129 519.893 456.124 520.293C338.229 519.893 291.908 419.082 292.163 289.323H732.718C733.306 274.674 733.306 267.862 732.718 260.81C735.593 183.612 715.133 118.723 677.916 68.1904L677.724 68.335H776.916V547.384H681.064L681.28 547.412Z" fill="#A90533"/>
<path d="M299.293 178.115C304.17 119.367 350.489 79.8581 404.798 79.7393C459.477 79.8581 498.984 119.367 500.323 178.115H299.293Z" fill="#A90533"/>
<path d="M82.5804 628.65V608.691H21.2734V727.028H82.5804V707.066H44.0853V675.701H81.1526V655.741H44.0853V628.65H82.5804Z" fill="black"/>
<path d="M186.659 677.125C201.942 674.856 210.334 659.711 210.897 644.333C210.334 619.175 194.025 608.765 170.976 608.689H139.609V727.026H162.421V679.977L190.936 727.026H219.451L186.659 677.125ZM162.419 627.226H165.271C177.716 627.693 187.057 630.533 186.657 645.761C187.057 659.713 178.033 663.499 165.271 662.87H162.419V627.226Z" fill="black"/>
<path d="M290.738 608.691H267.928V727.028H323.53V707.066H290.738V608.691Z" fill="black"/>
<path d="M440.439 702.788L450.42 727.026H474.657L430.459 605.838H411.924L364.875 727.026H389.111L399.093 702.788H440.439ZM434.736 684.256H406.222L419.053 640.058L434.736 684.256Z" fill="black"/>
<path d="M517.432 727.028H541.667V647.186L604.402 729.877H621.509V608.691H597.273V688.533L534.539 605.838H517.432V727.028Z" fill="black"/>
<path d="M721.313 664.293V682.828H746.976C746.442 697.723 734.251 710.343 719.887 709.917C697.202 710.343 685.96 688.42 685.669 668.57C685.96 648.986 697.044 626.115 719.887 625.798C731.875 626.113 742.01 634.315 746.976 644.333L766.937 634.353C758.158 615.862 740.426 605.608 719.887 605.838C684.535 605.61 661.895 634.79 661.432 668.57C661.895 701.509 683.903 730.848 718.461 731.303C755.784 730.848 773.042 701.036 772.64 667.145V664.293H721.313Z" fill="black"/>
</svg>
