<svg width="705" height="705" viewBox="0 0 705 705" fill="none" xmlns="http://www.w3.org/2000/svg">
<path d="M601.939 0H102.72C45.9893 0 0 45.9893 0 102.72V601.939C0 658.67 45.9893 704.659 102.72 704.659H601.939C658.67 704.659 704.659 658.67 704.659 601.939V102.72C704.659 45.9893 658.67 0 601.939 0Z" fill="#525967"/>
<path d="M601.939 30.816C621.009 30.816 639.298 38.3916 652.783 51.8762C666.268 65.3608 673.843 83.6499 673.843 102.72V601.939C673.843 621.009 666.268 639.298 652.783 652.783C639.298 666.268 621.009 673.843 601.939 673.843H102.72C83.6499 673.843 65.3608 666.268 51.8762 652.783C38.3916 639.298 30.816 621.009 30.816 601.939V102.72C30.816 83.6499 38.3916 65.3608 51.8762 51.8762C65.3608 38.3916 83.6499 30.816 102.72 30.816H601.939ZM601.939 0H102.72C75.477 0 49.3497 10.8222 30.086 30.086C10.8222 49.3497 0 75.477 0 102.72V601.939C0 629.182 10.8222 655.309 30.086 674.573C49.3497 693.837 75.477 704.659 102.72 704.659H601.939C629.182 704.659 655.309 693.837 674.573 674.573C693.837 655.309 704.659 629.182 704.659 601.939V102.72C704.659 75.477 693.837 49.3497 674.573 30.086C655.309 10.8222 629.182 0 601.939 0Z" fill="#454B57"/>
<path d="M264.503 615.806C276.037 615.806 287.457 613.535 298.113 609.121C308.768 604.708 318.45 598.238 326.605 590.083C334.761 581.928 341.23 572.246 345.644 561.59C350.057 550.935 352.329 539.514 352.329 527.981V440.155H264.503C252.97 440.155 241.549 442.427 230.894 446.841C220.238 451.254 210.557 457.723 202.401 465.879C194.246 474.034 187.777 483.716 183.363 494.371C178.949 505.027 176.678 516.447 176.678 527.981C176.678 539.514 178.949 550.935 183.363 561.59C187.777 572.246 194.246 581.928 202.401 590.083C210.557 598.238 220.238 604.708 230.894 609.121C241.549 613.535 252.97 615.806 264.503 615.806Z" fill="#0ACF83"/>
<path d="M176.678 352.33C176.678 329.037 185.931 306.698 202.401 290.227C218.872 273.757 241.211 264.504 264.503 264.504H352.329V440.155H264.503C241.211 440.155 218.872 430.902 202.401 414.432C185.931 397.961 176.678 375.622 176.678 352.33Z" fill="#A259FF"/>
<path d="M176.678 176.678C176.678 153.385 185.931 131.047 202.401 114.576C218.872 98.1056 241.211 88.8525 264.503 88.8525H352.329V264.504H264.503C241.211 264.504 218.872 255.251 202.401 238.78C185.931 222.31 176.678 199.971 176.678 176.678Z" fill="#F24E1E"/>
<path d="M352.33 89.3662H440.156C463.448 89.3662 485.787 98.6192 502.258 115.09C518.728 131.56 527.981 153.899 527.981 177.192C527.981 200.485 518.728 222.823 502.258 239.294C485.787 255.764 463.448 265.017 440.156 265.017H352.33V89.3662Z" fill="#FF7262"/>
<path d="M527.98 352.33C527.98 369.7 522.829 386.68 513.179 401.123C503.529 415.566 489.812 426.822 473.764 433.47C457.716 440.117 440.057 441.856 423.021 438.468C405.984 435.079 390.335 426.714 378.053 414.432C365.77 402.149 357.405 386.5 354.017 369.463C350.628 352.427 352.367 334.768 359.014 318.72C365.662 302.672 376.919 288.956 391.361 279.305C405.804 269.655 422.784 264.504 440.155 264.504C463.448 264.504 485.786 273.757 502.257 290.227C518.727 306.698 527.98 329.037 527.98 352.33Z" fill="#1ABCFE"/>
</svg>
