<svg width="800" height="800" viewBox="0 0 800 800" fill="none" xmlns="http://www.w3.org/2000/svg">
<path fill-rule="evenodd" clip-rule="evenodd" d="M452.943 351.105C443.521 353.742 433.966 356.415 422.906 359.42C417.503 360.95 416.273 361.297 411.246 355.185C405.216 347.985 400.793 343.327 392.348 339.09C367.018 325.96 342.491 329.772 319.573 345.445C292.233 364.08 278.161 391.61 278.563 425.917C278.963 459.802 301.078 487.757 332.843 492.415C360.183 496.227 383.101 486.062 401.193 464.462C404.811 459.805 408.031 454.717 412.051 448.79H334.451C326.006 448.79 323.996 443.285 326.811 436.082C332.038 422.952 341.688 400.93 347.316 389.917C348.523 387.375 351.338 383.14 357.368 383.14H486.756C492.568 363.74 501.998 345.41 514.578 328.065C543.931 287.402 579.313 266.225 627.158 257.332C668.171 249.707 706.768 253.942 741.748 278.932C773.513 301.805 793.213 332.722 798.441 373.385C805.276 430.562 789.596 477.155 752.203 516.967C725.666 545.345 693.098 563.135 655.706 571.182C648.573 572.572 641.441 573.232 634.421 573.882C630.758 574.222 627.126 574.557 623.541 574.995C586.951 574.147 553.581 563.135 525.433 537.722C505.641 519.697 492.008 497.547 485.231 471.762C480.528 481.767 474.906 491.347 468.341 500.462C439.391 540.7 401.596 565.69 353.751 572.467C314.346 577.972 277.758 569.925 245.592 544.512C215.839 520.792 198.952 489.45 194.529 450.485C189.302 404.317 202.168 362.81 228.705 326.385C257.253 286.995 295.048 262.005 341.286 253.11C379.081 245.91 415.266 250.57 447.836 273.865C469.143 288.687 484.423 309.02 494.476 333.585C496.888 337.397 495.278 339.515 490.453 340.785C476.363 344.555 464.758 347.802 452.943 351.105ZM718.953 399.35C719.033 400.772 719.116 402.272 719.233 403.88C717.223 440.305 699.933 467.412 668.171 484.777C646.861 496.212 624.746 497.485 602.633 487.32C573.683 473.765 558.403 440.305 565.641 407.267C574.488 367.455 598.611 342.465 636.003 333.57C674.201 324.252 710.791 347.97 718.028 389.902C718.596 392.902 718.763 395.9 718.953 399.35Z" fill="#00ACD7"/>
<path d="M61.1151 346.293C60.3108 347.563 60.7128 348.41 62.3211 348.41L182.065 348.835C183.271 348.835 185.281 347.563 186.086 346.293L192.921 335.28C193.725 334.01 193.323 332.74 191.715 332.74H73.9813C72.3731 332.74 70.3626 333.588 69.5586 334.858L61.1151 346.293Z" fill="#00ACD7"/>
<path d="M0.402072 385.258C-0.402073 386.528 1.86265e-07 387.375 1.60829 387.375L165.982 386.953C167.59 386.953 169.199 386.105 169.6 384.41L172.817 374.245C173.219 372.975 172.415 371.705 170.807 371.705H13.2684C11.6601 371.705 9.64972 372.55 8.84558 373.823L0.402072 385.258Z" fill="#00ACD7"/>
<path d="M97.7029 423.803C96.8987 425.073 97.3007 426.343 98.9092 426.343L160.754 426.768C161.96 426.768 163.569 425.498 163.569 423.803L164.373 413.638C164.373 411.943 163.569 410.673 161.96 410.673H107.353C105.744 410.673 104.136 411.943 103.332 413.213L97.7029 423.803Z" fill="#00ACD7"/>
</svg>
