<svg width="817" height="817" viewBox="0 0 817 817" fill="none" xmlns="http://www.w3.org/2000/svg">
<g clip-path="url(#clip0_436_2201)">
<path opacity="0.992" fill-rule="evenodd" clip-rule="evenodd" d="M60.6367 -3.19141C290.418 -3.19141 520.199 -3.19141 749.98 -3.19141C777.637 11.7018 798.917 32.9779 813.809 60.6367C813.809 290.418 813.809 520.199 813.809 749.98C798.917 777.637 777.637 798.917 749.98 813.809C520.199 813.809 290.418 813.809 60.6367 813.809C32.9779 798.917 11.7018 777.637 -3.19141 749.98C-3.19141 520.199 -3.19141 290.418 -3.19141 60.6367C11.7018 32.9779 32.9779 11.7018 60.6367 -3.19141Z" fill="#294359"/>
<path fill-rule="evenodd" clip-rule="evenodd" d="M98.6803 50.8969C317.834 49.8332 536.977 50.897 756.11 54.0883C775.507 60.6714 791.464 72.3732 803.981 89.1938C814.532 312.05 816.657 535.448 810.364 759.389C803.783 778.786 792.077 794.744 775.258 807.26C550.117 817.773 324.591 819.898 98.6803 813.643C82.9787 804.337 69.1494 792.637 57.192 778.538C46.6817 553.396 44.5541 327.87 50.8092 101.959C63.7549 81.584 79.7119 64.5632 98.6803 50.8969Z" fill="#355570"/>
<path fill-rule="evenodd" clip-rule="evenodd" d="M335.098 105.316C345.759 106.92 355.333 111.175 363.82 118.082C391.479 177.655 419.138 177.655 446.797 118.082C454.417 112.144 462.928 107.889 472.328 105.316C495.51 110.312 517.85 117.759 539.348 127.656C551.049 130.848 558.496 138.294 561.688 149.996C559.207 170.623 560.271 190.836 564.879 210.633C576.646 218.178 588.348 225.625 599.984 232.973C619.575 216.406 641.913 211.087 667.004 217.016C682.961 237.228 698.918 257.44 714.875 277.652C719.132 290.418 719.132 303.184 714.875 315.949C706.367 328.715 697.852 341.48 689.344 354.246C688.84 435.452 684.582 516.301 676.578 596.793C656.23 627.769 629.635 652.234 596.793 670.195C497.17 705.748 395.045 714.256 290.418 695.727C222.61 685.852 170.484 652.872 134.039 596.793C125.9 516.389 121.645 435.54 121.274 354.246C112.763 341.48 104.253 328.715 95.7423 315.949C91.4869 303.184 91.4869 290.418 95.7423 277.652C111.699 257.44 127.656 237.228 143.613 217.016C171.165 214.021 196.696 218.276 220.207 229.781C228.05 220.021 237.624 212.574 248.93 207.441C252.52 192.339 251.456 177.446 245.738 162.762C247.136 153.583 250.327 145.073 255.313 137.23C280.834 122.028 307.43 111.39 335.098 105.316Z" fill="#F0F4F7"/>
<path fill-rule="evenodd" clip-rule="evenodd" d="M328.715 124.465C336.215 123.067 342.597 125.194 347.863 130.847C355.562 147.311 364.072 163.268 373.395 178.718C394.67 182.974 415.947 182.974 437.223 178.718C446.609 158.815 458.311 140.73 472.328 124.465C492.049 133.167 512.262 140.613 532.965 146.804C539.848 151.106 544.103 157.489 545.73 165.953C538.919 184.267 538.919 202.352 545.73 220.207C564.557 230.517 581.578 243.283 596.793 258.504C611.33 247.509 627.287 238.998 644.664 232.972C670.865 247.465 688.954 268.741 698.918 296.8C691.067 314.617 681.493 331.637 670.195 347.863C667.004 401.011 665.944 454.201 667.004 507.433C632.798 508.516 598.756 511.708 564.879 517.008C558.855 534.363 556.727 552.448 558.496 571.261C530.514 573.34 502.856 571.212 475.52 564.879C471.733 552.868 467.478 541.166 462.754 529.773C424.457 525.518 386.16 525.518 347.863 529.773C343.139 541.166 338.885 552.868 335.098 564.879C307.761 571.212 280.103 573.34 252.121 571.261C253.89 552.448 251.762 534.363 245.738 517.008C211.692 513.39 177.65 510.198 143.613 507.433C144.675 454.201 143.611 401.011 140.422 347.863C124.367 328.674 115.856 307.398 114.891 284.035C127.736 262.679 144.757 245.658 165.953 232.972C183.232 244.251 201.317 251.698 220.207 255.312C232.784 240.532 247.677 228.829 264.887 220.207C267.674 196.723 269.802 173.319 271.27 149.996C290.306 139.375 309.454 130.865 328.715 124.465Z" fill="#498DBF"/>
<path fill-rule="evenodd" clip-rule="evenodd" d="M245.739 354.246C303.504 353.461 327.972 381.12 319.141 437.222C302.92 466.382 278.452 475.956 245.739 465.945C216.027 447.456 206.453 420.861 217.016 386.16C227.913 376.346 237.488 365.709 245.739 354.246Z" fill="#F1F3F5"/>
<path fill-rule="evenodd" clip-rule="evenodd" d="M520.2 354.246C577.965 353.461 602.432 381.12 593.602 437.222C577.381 466.382 552.913 475.956 520.2 465.945C490.488 447.456 480.914 420.861 491.477 386.16C502.374 376.346 511.948 365.709 520.2 354.246Z" fill="#F1F3F5"/>
<path fill-rule="evenodd" clip-rule="evenodd" d="M258.504 379.777C301.029 376.568 316.986 395.717 306.375 437.222C285.1 462.754 263.823 462.754 242.547 437.222C234.757 413.082 240.076 393.933 258.504 379.777Z" fill="#474648"/>
<path fill-rule="evenodd" clip-rule="evenodd" d="M520.199 379.778C565.26 374.833 581.217 393.981 568.07 437.223C546.794 462.754 525.518 462.754 504.242 437.223C497.414 413.976 502.733 394.828 520.199 379.778Z" fill="#474648"/>
<path fill-rule="evenodd" clip-rule="evenodd" d="M392.543 392.543C403.036 391.18 412.61 393.307 421.266 398.925C425.521 422.329 425.521 445.733 421.266 469.136C410.628 477.647 399.99 477.647 389.352 469.136C384.485 443.047 385.549 417.516 392.543 392.543Z" fill="#F8FAFC"/>
<path fill-rule="evenodd" clip-rule="evenodd" d="M143.614 526.582C171.281 529.242 198.939 532.433 226.59 536.156C230.846 553.177 235.101 570.198 239.356 587.219C279.005 595.793 318.366 596.857 357.438 590.41C360.608 575.667 361.672 560.773 360.629 545.73C390.416 545.73 420.202 545.73 449.989 545.73C448.946 560.773 450.01 575.667 453.18 590.41C461.037 594.29 469.548 596.417 478.711 596.793C509.477 592.836 540.327 589.644 571.262 587.219C575.518 570.198 579.772 553.177 584.028 536.156C611.679 532.433 639.335 529.242 667.004 526.582C671.517 573.69 654.494 610.923 615.942 638.281C511.731 684.238 403.223 697.003 290.418 676.578C232.533 666.302 186.789 637.577 153.188 590.41C145.536 569.822 142.344 548.545 143.614 526.582Z" fill="#4B8EC0"/>
</g>
<defs>
<clipPath id="clip0_436_2201">
<rect width="817" height="817" fill="white"/>
</clipPath>
</defs>
</svg>
