<svg width="823" height="823" viewBox="0 0 823 823" fill="none" xmlns="http://www.w3.org/2000/svg">
<g clip-path="url(#clip0_436_1668)">
<path d="M0 0H823V823H0V0Z" fill="#F7DF1E"/>
<path d="M216.398 687.758L279.377 649.643C291.529 671.186 302.581 689.414 329.094 689.414C354.507 689.414 370.533 679.474 370.533 640.805V377.838H447.873V641.899C447.873 722.003 400.917 758.466 332.409 758.466C270.539 758.466 234.626 726.423 216.395 687.752M489.881 679.47L552.854 643.011C569.433 670.083 590.979 689.97 629.094 689.97C661.143 689.97 681.576 673.947 681.576 651.848C681.576 625.332 660.583 615.939 625.226 600.475L605.895 592.181C550.095 568.433 513.083 538.599 513.083 475.62C513.083 417.612 557.277 373.414 626.335 373.414C675.503 373.414 710.86 390.543 736.27 435.29L676.05 473.965C662.788 450.21 648.431 440.82 626.332 440.82C603.68 440.82 589.316 455.184 589.316 473.965C589.316 497.166 603.68 506.563 636.825 520.927L656.159 529.212C721.903 557.39 758.916 586.115 758.916 650.746C758.916 720.36 704.225 758.475 630.749 758.475C558.933 758.475 512.527 724.224 489.878 679.474" fill="black"/>
</g>
<defs>
<clipPath id="clip0_436_1668">
<rect width="823" height="823" fill="white"/>
</clipPath>
</defs>
</svg>
