<svg width="2051" height="502" viewBox="0 0 2051 502" fill="none" xmlns="http://www.w3.org/2000/svg">
<g clip-path="url(#clip0_436_1742)">
<path d="M877.134 180.724L877.138 180.704L864.016 227.205L877.134 180.724ZM940.908 351.118H940.924L854.283 351.431L940.908 351.118ZM948.503 345.215L963.591 287.668L948.503 345.227V345.215ZM1195.22 80.2022L1173.88 178.919L1195.22 80.1943V80.2022Z" fill="#131B28"/>
<path d="M1262.67 74.2568H1202.55C1199.22 74.2568 1195.91 76.9342 1195.19 80.1947L1173.85 178.919L1152.51 277.648C1151.8 280.905 1148.5 283.574 1145.16 283.574H1102.61C1060.51 283.574 1065.38 254.46 1074 214.578L1074.26 213.372L1075.2 208.347L1075.38 207.399L1077.3 197.164L1079.36 186.192C1079.99 182.885 1080.93 178.05 1081.56 175.013L1091.26 127.616L1100.97 80.2182C1101.64 76.9498 1099.45 74.2647 1096.12 74.2647H1034.41C1031.07 74.2647 1027.77 76.9498 1027.09 80.2104L1013.82 143.147L1000.55 206.076C1000.54 206.104 1000.54 206.143 1000.53 206.17L999.302 212.018C984.022 281.778 988.074 348.3 1071.13 350.382C1072.49 350.421 1073.54 350.433 1073.54 350.433H1203.91C1207.25 350.433 1210.55 347.756 1211.25 344.487L1239.36 212.355L1267.48 80.2104C1268.17 76.9342 1266.01 74.2608 1262.67 74.2568ZM1502.5 284.255C1505.84 284.255 1508.02 286.933 1507.35 290.201L1501.52 318.728M1495.69 347.267L1501.52 318.724L1495.68 347.278L1495.69 347.267ZM1488.37 353.271L1488.4 353.263C1470.7 353.404 1417.54 353.811 1377.58 353.811C1426.21 353.811 1488.36 353.275 1488.37 353.271ZM1341.71 247.512C1341.67 244.389 1345.22 239.007 1348.56 239.007L1341.06 238.882C1337.67 272.904 1341.71 247.512 1341.71 247.512Z" fill="#131B28"/>
<path d="M1502.5 284.256C1505.84 284.256 1508.02 286.933 1507.35 290.201L1501.51 318.728L1500.56 323.378M1411.28 353.729C1406.41 353.749 1401.56 353.769 1396.78 353.78C1401.56 353.772 1406.42 353.749 1411.28 353.729ZM1495.69 347.283L1500.58 323.382L1495.68 347.298L1495.69 347.283ZM507.019 248.229L516.36 206.84L505.68 254.151L495.435 302.343L504.416 260.097C505.105 256.829 506.283 251.486 507.019 248.229ZM618.789 73.5605H552.768C549.425 73.5605 546.097 76.2261 545.35 79.475L539.086 107.102L532.826 134.74C532.09 137.989 534.216 140.654 537.555 140.654H604.089C607.428 140.654 610.74 137.989 611.46 134.728L617.509 107.102L623.561 79.4945V79.4867C624.278 76.2301 622.132 73.5605 618.789 73.5605ZM604.421 165.463V165.455L585.058 255.02L604.421 165.463ZM412.631 462.232C412.631 462.232 445.911 462.658 467.064 462.658C450.997 462.658 424.45 462.365 412.604 462.224L412.631 462.232Z" fill="#131B28"/>
<path d="M599.646 159.529H533.104C529.769 159.529 526.433 162.194 525.697 165.455L516.349 206.844L507.008 248.233C506.272 251.49 505.097 256.832 504.404 260.101L495.424 302.347L486.451 344.593C485.567 348.536 484.499 352.435 483.248 356.277C483.248 356.277 470.818 393.259 449.921 392.84C449.028 392.821 448.167 392.813 447.309 392.789C437.182 392.598 429.227 392.457 429.227 392.457H429.211C425.879 392.406 422.532 395.005 421.753 398.246L414.851 427.25L407.957 456.239C407.186 459.48 409.276 462.157 412.596 462.212C424.447 462.353 450.989 462.651 467.06 462.651C519.261 462.651 546.779 433.732 564.42 350.52L585.063 255.02L604.426 165.451C605.13 162.198 602.977 159.529 599.646 159.529ZM1544.9 350.422C1541.56 350.422 1539.4 347.744 1540.1 344.472L1590.15 110.049" fill="#131B28"/>
<path d="M1540.82 347.451C1540.42 345.819 1540.66 341.818 1541.36 338.546L1565.12 227.272L1540.09 344.48C1539.39 347.748 1541.55 350.426 1544.89 350.426H1550.97C1547.63 350.422 1541.22 349.087 1540.82 347.451ZM1610.51 349.087C1608.69 349.823 1604.47 350.426 1601.13 350.426H1607.21C1610.55 350.426 1613.82 347.748 1614.48 344.472L1615.69 338.526C1615.02 341.791 1612.33 348.347 1610.51 349.087ZM1624.6 294.44L1633.54 250.28C1633.53 250.307 1633.53 250.347 1633.52 250.366L1624.6 294.44ZM1822.11 125.757L1824.87 137.147C1825.62 140.408 1823.52 143.054 1820.19 143.061M1633.53 250.284C1634.19 247.016 1635.29 241.72 1635.99 238.483L1645.53 193.778L1634.72 244.417L1633.53 250.284ZM1590.97 106.213C1590.31 109.368 1589.46 113.352 1588.9 115.991L1565.14 227.272L1590.17 110.057L1590.97 106.213Z" fill="#131B28"/>
<path d="M1824.85 137.146L1822.09 125.756L1819.37 114.088L1817.98 108.181C1812.58 87.189 1796.71 75.0706 1762.26 75.0706L1708.63 75.0118L1659.24 74.9531H1603.66C1600.32 74.9531 1597.02 77.6187 1596.33 80.8871H1596.33L1593.87 92.4967L1590.98 106.208L1590.16 110.048L1565.14 227.264L1541.38 338.537C1540.67 341.81 1540.44 345.81 1540.84 347.442C1541.24 349.078 1547.65 350.417 1550.99 350.417H1601.13C1604.47 350.417 1608.7 349.814 1610.51 349.078C1612.33 348.342 1615.02 341.786 1615.69 338.518L1624.6 294.436L1633.52 250.362L1633.53 250.275L1634.72 244.408L1645.54 193.77L1655.08 149.046C1655.79 145.797 1659.08 143.139 1662.41 143.131L1820.18 143.053C1823.5 143.053 1825.61 140.403 1824.85 137.146Z" fill="#131B28"/>
<path d="M2027.96 34.1517C2024.61 34.1751 2019.15 34.1947 2015.81 34.1947H1965.31C1961.97 34.1947 1957.7 36.4493 1955.81 39.2049L1844.15 202.769C1842.26 205.532 1840.12 205.121 1839.37 201.873L1831.15 165.834C1830.41 162.574 1827.07 159.92 1823.73 159.92H1751.94C1748.6 159.92 1746.62 162.538 1747.54 165.748L1779.7 278.415C1780.62 281.625 1780.69 286.901 1779.86 290.134L1765.84 344.664C1765.01 347.901 1767.06 350.551 1770.41 350.551H1841.35C1844.69 350.551 1848.1 347.901 1848.93 344.664L1862.96 290.134C1863.78 286.901 1866.11 282.067 1868.12 279.402L2049.4 38.837C2051.41 36.1714 2050.32 34.0029 2046.99 34.0264L2027.96 34.1517ZM1457.63 175.256L1457.63 175.189C1457.21 178.81 1453.87 181.468 1450.54 181.468H1359.52C1356.38 181.468 1354.77 179.327 1355.24 176.688C1355.27 176.61 1355.28 176.544 1355.32 176.477C1355.32 176.477 1355.29 176.485 1355.26 176.504C1355.28 176.399 1355.28 176.301 1355.31 176.199L1355.73 174.649C1364.42 151.543 1382.13 136.376 1415.4 136.376C1452.87 136.38 1460.18 154.683 1457.63 175.256ZM1430.93 70.2213C1314.11 70.2213 1286.43 141.12 1270.9 212.676C1255.37 285.61 1256.71 353.803 1377.59 353.803H1381.88C1382.27 353.796 1382.66 353.796 1383.04 353.796H1390.84C1391.31 353.788 1391.77 353.788 1392.25 353.788L1395.9 353.78H1396.75C1401.54 353.772 1406.39 353.749 1411.25 353.733H1411.5C1443.42 353.608 1475.44 353.365 1488.41 353.263C1491.73 353.212 1494.97 350.539 1495.66 347.302L1500.55 323.386L1501.5 318.732L1507.34 290.209C1508.01 286.937 1505.82 284.259 1502.49 284.259H1393.8C1350.58 284.259 1337.74 272.775 1342.47 239.011H1516.2L1516.19 239.03C1516.23 239.03 1516.27 239.011 1516.31 239.011C1519.07 238.96 1521.62 237.061 1522.63 234.529C1522.82 234.04 1522.99 233.535 1523.05 233.01L1523.03 233.03C1548.83 135.745 1541.43 70.2291 1430.92 70.2291L1430.93 70.2213ZM878.778 174.884L877.134 180.704L877.13 180.724L864.011 227.205L850.897 273.679C849.992 276.889 846.52 279.515 843.173 279.515H773.742C721.079 279.515 708.25 238.334 721.079 177.581C733.896 115.446 759.041 76.8207 810.879 72.9104C881.711 67.5714 895.883 117.384 878.778 174.884ZM926.395 275.941C926.395 275.941 959.132 196.471 966.57 150.565C976.705 89.1153 945.934 0 827.078 0C708.9 0 657.583 85.0836 638.001 177.577C618.423 270.739 644.077 352.445 761.582 351.776L854.283 351.431L940.923 351.118C944.263 351.087 947.673 348.441 948.522 345.219L963.61 287.661C964.452 284.431 962.412 281.774 959.077 281.754L944.611 281.672L930.154 281.586C927.311 281.566 925.687 279.73 926.031 277.292C926.095 276.827 926.215 276.371 926.387 275.934L926.395 275.941Z" fill="#131B28"/>
<path d="M1511.42 222.751C1511.42 223.808 1511 224.822 1510.26 225.569C1509.51 226.316 1508.5 226.736 1507.44 226.736C1506.38 226.736 1505.37 226.316 1504.62 225.569C1503.87 224.822 1503.45 223.808 1503.45 222.751C1503.45 221.694 1503.87 220.681 1504.62 219.934C1505.37 219.186 1506.38 218.767 1507.44 218.767C1508.5 218.767 1509.51 219.186 1510.26 219.934C1511 220.681 1511.42 221.694 1511.42 222.751Z" fill="#131B28"/>
<path d="M23.9963 119.419C-8.63434 166.312 -4.5746 227.319 20.3515 277.143C20.9427 278.341 21.569 279.511 22.1798 280.69C22.5713 281.433 22.9353 282.2 23.3464 282.932C23.5774 283.371 23.8319 283.805 24.0746 284.224C24.4974 285.015 24.9359 285.774 25.3743 286.545C26.1456 287.915 26.9403 289.27 27.7507 290.628C28.2009 291.371 28.6472 292.119 29.1091 292.863C30.0056 294.315 30.9296 295.748 31.873 297.184C32.2645 297.795 32.6443 298.405 33.0475 299C34.3473 300.938 35.6783 302.868 37.0446 304.774L37.1581 304.926C37.3774 305.232 37.6123 305.525 37.8354 305.831C39.0216 307.467 40.2431 309.079 41.4802 310.676C41.9343 311.256 42.3924 311.843 42.8543 312.422C44.3822 314.335 45.9339 316.228 47.5091 318.102C49.0723 319.948 50.6672 321.767 52.2931 323.558C52.3636 323.636 52.4184 323.68 52.4732 323.758C55.7354 327.297 59.1078 330.732 62.5854 334.06C63.11 334.557 63.6267 335.066 64.1435 335.54C65.8804 337.178 67.6477 338.785 69.4443 340.358C69.7457 340.624 70.055 340.879 70.3525 341.133C71.9067 342.483 73.4962 343.822 75.0895 345.133C75.7394 345.662 76.401 346.178 77.0548 346.699C78.3585 347.744 79.6778 348.774 81.0088 349.787L83.119 351.392C84.5871 352.469 86.063 353.533 87.5545 354.575C88.1026 354.966 88.6233 355.346 89.1714 355.717C89.3241 355.823 89.4611 355.933 89.6138 356.035C91.0271 357.009 92.4756 357.945 93.9202 358.884C94.5426 359.295 95.1573 359.726 95.7876 360.125C98.0034 361.53 100.258 362.916 102.533 364.254C103.148 364.611 103.774 364.955 104.396 365.307C106.072 366.274 107.751 367.218 109.458 368.149C110.378 368.646 111.33 369.112 112.258 369.59C113.463 370.22 114.657 370.862 115.883 371.472C116.157 371.605 116.446 371.738 116.72 371.875C117.21 372.114 117.707 372.341 118.2 372.592C120.501 373.699 122.821 374.767 125.157 375.797C127.369 376.76 129.6 377.688 131.852 378.577C132.392 378.8 132.936 379.007 133.48 379.219C135.836 380.129 138.206 381 140.59 381.833C142.919 382.647 145.268 383.399 147.636 384.139C148.2 384.303 148.768 384.483 149.339 384.648C151.747 385.376 154.131 386.241 156.609 386.699C314.422 415.472 360.262 291.88 360.262 291.88C321.763 342.029 253.425 355.252 188.676 340.53C186.225 339.974 183.845 339.211 181.449 338.503C178.51 337.63 175.59 336.693 172.692 335.692L171.736 335.348C169.681 334.62 167.636 333.862 165.602 333.074C165.03 332.843 164.455 332.627 163.883 332.397C161.659 331.519 159.451 330.601 157.259 329.645C156.813 329.453 156.378 329.249 155.936 329.062C153.52 327.969 151.119 326.844 148.733 325.688C147.28 324.979 145.847 324.228 144.41 323.488C143.451 322.983 142.477 322.505 141.525 321.977C139.782 321.039 138.055 320.071 136.346 319.072C135.77 318.748 135.179 318.434 134.6 318.098C132.328 316.756 130.078 315.378 127.851 313.964C127.24 313.573 126.637 313.158 126.03 312.751C124.414 311.713 122.814 310.649 121.23 309.561C120.702 309.209 120.197 308.825 119.68 308.477C118.153 307.4 116.646 306.304 115.143 305.197C114.462 304.692 113.792 304.179 113.131 303.674C111.139 302.142 109.164 300.588 107.207 299.012C105.488 297.604 103.789 296.171 102.11 294.714L101.546 294.245C99.7349 292.648 97.9482 291.023 96.1869 289.371C95.674 288.882 95.1768 288.408 94.6757 287.919C93.3704 286.682 92.0862 285.423 90.8235 284.142C90.3185 283.637 89.8095 283.14 89.3123 282.635C87.7072 280.991 86.1334 279.323 84.5871 277.636L84.3522 277.39C82.7193 275.601 81.1204 273.782 79.5564 271.933C79.1336 271.425 78.7186 270.939 78.2997 270.442C77.1306 269.036 75.9808 267.613 74.8507 266.176C74.4242 265.655 74.0027 265.131 73.5862 264.602C72.2277 262.841 70.9006 261.083 69.6009 259.298C33.6504 210.276 20.7391 142.654 49.4666 87.123" fill="#0868AC"/>
<path d="M125.286 79.9129C101.691 113.865 102.972 159.317 121.379 195.226C124.461 201.262 127.948 207.083 131.816 212.648C135.352 217.713 139.27 223.741 143.964 227.816C145.667 229.691 147.445 231.515 149.261 233.312C149.719 233.781 150.189 234.227 150.655 234.689C152.417 236.4 154.21 238.083 156.065 239.715C156.144 239.774 156.21 239.848 156.285 239.907C156.308 239.927 156.328 239.934 156.339 239.958C158.387 241.755 160.505 243.485 162.658 245.183C163.136 245.547 163.605 245.927 164.091 246.303C166.244 247.955 168.444 249.579 170.699 251.129C170.77 251.176 170.824 251.223 170.891 251.274C171.885 251.963 172.899 252.601 173.909 253.262C174.391 253.576 174.849 253.912 175.338 254.206C176.947 255.239 178.576 256.245 180.236 257.208C180.475 257.353 180.698 257.474 180.929 257.611C182.358 258.433 183.806 259.243 185.259 260.026C185.768 260.312 186.28 260.562 186.801 260.829C187.803 261.357 188.809 261.889 189.827 262.394C189.98 262.473 190.137 262.539 190.285 262.606C192.364 263.631 194.459 264.618 196.6 265.549C197.058 265.753 197.532 265.933 197.994 266.121C199.709 266.849 201.435 267.557 203.173 268.223C203.909 268.5 204.657 268.771 205.389 269.037C206.967 269.62 208.552 270.156 210.146 270.692C210.87 270.923 211.575 271.158 212.299 271.381C214.566 272.086 216.809 272.974 219.173 273.37C341.017 293.552 369.149 199.755 369.149 199.755C343.788 236.271 294.684 253.689 242.287 240.091C239.269 239.297 236.276 238.408 233.314 237.425C230.956 236.663 228.619 235.837 226.306 234.948C224.562 234.28 222.83 233.582 221.111 232.854C220.645 232.654 220.172 232.47 219.714 232.263C217.572 231.33 215.454 230.345 213.36 229.311C212.283 228.787 211.226 228.231 210.173 227.687L208.333 226.74C206.977 226.003 205.633 225.245 204.301 224.465C203.984 224.285 203.655 224.109 203.334 223.921C201.686 222.955 200.061 221.964 198.452 220.939C197.955 220.622 197.477 220.281 196.98 219.956C195.917 219.269 194.861 218.571 193.813 217.862C191.581 216.308 189.385 214.703 187.228 213.048C186.731 212.656 186.233 212.273 185.744 211.881C162.807 193.774 144.626 169.032 135.982 140.975C126.923 111.876 128.876 79.2122 144.571 52.7051" fill="#0868AC"/>
<path d="M210.478 50.3955C196.568 70.863 195.202 96.2859 204.852 118.894C215.035 142.889 235.893 161.716 260.236 170.641C261.238 171.016 262.244 171.349 263.258 171.694C263.701 171.827 264.143 171.983 264.593 172.112C266.026 172.562 267.447 173.087 268.931 173.365C336.208 186.36 354.456 138.849 359.314 131.855C343.33 154.866 316.466 160.389 283.506 152.392C280.81 151.702 278.148 150.88 275.531 149.93C272.308 148.786 269.147 147.473 266.061 145.997C260.205 143.179 254.643 139.786 249.458 135.867C219.963 113.493 201.642 70.8082 220.887 36.0459M968.193 449.079L948.799 493.236H927.388L929.142 453.111L913.381 493.236H892.651L892.103 449.079L894.394 438.174H909.074L906.244 481.794L922.542 438.174H943.009L941.529 482.335L957.69 438.174H970.479L968.193 449.079ZM1001.98 462.153C1003.86 453.53 1003.33 451.917 998.882 451.917H992.144L987.834 472.119L981.234 493.244H968.714L978.943 445.322L980.431 438.315H991.874L993.358 441.544C993.358 441.544 999.959 437.646 1006.41 437.646C1020.16 437.646 1019.08 448.003 1016.11 462.149L1001.98 462.153ZM1042.65 431.305C1037.14 431.305 1033.63 429.692 1034.98 422.964C1036.46 416.227 1040.77 414.611 1046.15 414.611C1051.55 414.611 1055.18 416.227 1053.7 422.964C1052.35 429.559 1048.05 431.305 1042.65 431.305ZM1036.73 493.244H1024.34L1026.76 471.704L1031.07 451.78L1022.46 449.89L1024.88 438.182H1048.44L1036.73 493.244ZM1090.46 449.862L1074.97 451.757L1070.52 472.757C1069.31 478.55 1069.31 480.166 1074.43 480.166H1084.79L1082.64 491.2C1082.64 491.2 1073.22 494.03 1069.17 494.03C1053.28 494.03 1053.42 485.282 1056.25 472.216L1060.56 451.62L1051.94 449.741L1054.5 438.026H1063.52L1068.65 424.15H1080.9L1077.93 438.026H1093.02L1090.46 449.862ZM1122.64 450.563C1115.37 450.563 1111.6 454.34 1110.12 461.069L1130.85 459.319C1131.79 454.743 1130.85 450.563 1122.64 450.563ZM1108.1 471.026C1107.15 477.767 1109.71 480.049 1118.33 480.049H1140L1137.85 490.281C1137.85 490.281 1124.79 493.913 1115.1 493.913C1090.99 493.913 1090.72 480.327 1093.82 465.777C1096.91 451.506 1102.43 437.376 1125.72 437.376C1148.22 437.376 1149.3 450.97 1143.77 471.026H1108.1ZM1193.18 493.232H1180.8L1183.22 471.692L1191.98 430.761L1183.35 428.745L1185.91 417.03H1209.48L1193.18 493.232ZM1237.93 450.563C1230.65 450.563 1226.89 454.34 1225.4 461.069L1246.14 459.319C1247.08 454.743 1246.14 450.563 1237.93 450.563ZM1223.38 471.026C1222.44 477.767 1225 480.049 1233.61 480.049H1255.3L1253.14 490.281C1253.14 490.281 1240.07 493.913 1230.38 493.913C1206.27 493.913 1206.01 480.327 1209.1 465.777C1212.2 451.506 1217.72 437.376 1241.02 437.376C1263.51 437.376 1264.59 450.97 1259.07 471.026H1223.38ZM1315.87 451.232C1315.87 451.232 1300.12 451.365 1295.81 451.365C1286.65 451.365 1285.71 454.187 1285.04 457.147L1284.49 459.84L1313.58 462C1313.58 462 1313.72 471.289 1312.51 476.538C1310.76 485.29 1301.73 494.171 1285.44 494.171C1277.36 494.171 1264.3 491.083 1264.3 491.083L1266.59 480.448H1286.65C1295.54 480.448 1296.76 478.017 1297.3 475.602L1297.97 472.103L1269.42 469.942C1269.42 469.942 1268.35 462.803 1269.83 455.675C1271.99 445.971 1280.86 437.634 1297.16 437.634C1305.24 437.634 1318.3 440.585 1318.3 440.585L1315.87 451.232ZM1370.02 451.232C1370.02 451.232 1354.27 451.365 1349.95 451.365C1340.8 451.365 1339.86 454.187 1339.18 457.147L1338.64 459.84L1367.73 462C1367.73 462 1367.86 471.289 1366.65 476.538C1364.9 485.29 1355.88 494.171 1339.59 494.171C1331.51 494.171 1318.45 491.083 1318.45 491.083L1320.74 480.448H1340.8C1349.69 480.448 1350.9 478.017 1351.45 475.602L1352.11 472.103L1323.56 469.942C1323.56 469.942 1322.49 462.803 1323.97 455.675C1326.13 445.971 1335.01 437.634 1351.31 437.634C1359.38 437.634 1372.44 440.585 1372.44 440.585L1370.02 451.232ZM1386.97 502H1376.2L1376.61 493.917C1372.7 493.662 1370.68 490.832 1371.62 486.108C1373.1 479.379 1377.28 477.767 1382.8 477.767C1388.18 477.767 1391.81 479.379 1390.34 486.108L1386.97 502ZM1459 451.78C1450.93 451.78 1448.1 456.626 1446.21 465.511C1444.33 474.401 1444.87 479.646 1452.94 479.646H1464.12L1470.32 451.78H1459ZM1477.45 486.104L1475.97 493.244L1464.66 493.107L1463.04 489.611C1463.04 489.611 1453.07 493.909 1446.35 493.909C1429.11 493.909 1428.3 479.779 1431.4 465.507C1434.49 450.966 1441.23 437.231 1458.33 437.231C1464.53 437.231 1472.87 440.327 1472.87 440.327L1479.74 417.037H1492.13L1477.45 486.104ZM1522.03 451.232C1511.53 451.232 1508.16 457.147 1506.28 465.766C1504.53 474.518 1505.34 480.444 1515.7 480.444C1526.48 480.444 1529.71 474.655 1531.59 465.766C1533.48 457.413 1532.94 451.232 1522.03 451.232ZM1512.88 494.046C1490.66 494.046 1488.91 480.182 1491.87 465.77C1494.97 451.365 1502.78 437.634 1525 437.634C1547.08 437.634 1549.1 451.365 1546 465.77C1542.91 480.448 1535.09 494.046 1512.88 494.046ZM1638.93 493.232L1641.36 471.958L1642.57 465.899C1644.32 457.828 1645.4 451.902 1636.92 451.902H1630.32C1630.59 456.074 1629.77 460.791 1628.7 465.766L1622.91 493.232H1610.39L1612.81 471.958L1614.02 465.899C1615.78 457.828 1616.85 451.902 1608.38 451.902H1602.98L1594.09 493.232H1579.68L1591.4 438.174H1602.71L1604.46 441.537C1604.46 441.537 1612.14 437.493 1618.33 437.493C1623.04 437.493 1626.54 439.654 1627.76 442.339C1630.45 440.856 1638.13 437.493 1643.65 437.493C1660.87 437.493 1660.35 451.491 1657.25 465.774L1651.46 493.236L1638.93 493.232ZM1696.17 451.232C1685.66 451.232 1682.29 457.147 1680.41 465.766C1678.66 474.518 1679.48 480.444 1689.84 480.444C1700.61 480.444 1703.85 474.655 1705.73 465.766C1707.61 457.413 1707.07 451.232 1696.17 451.232ZM1687.01 494.046C1664.78 494.046 1663.04 480.182 1666 465.77C1669.1 451.365 1676.91 437.634 1699.13 437.634C1721.22 437.634 1723.23 451.365 1720.13 465.77C1717.04 480.448 1709.23 494.046 1687.01 494.046ZM1757.55 462.153C1759.43 453.53 1758.9 451.917 1754.46 451.917H1747.72L1743.41 472.119L1736.8 493.244H1724.29L1734.52 445.322L1736 438.315H1747.45L1748.92 441.544C1748.92 441.544 1755.53 437.646 1762 437.646C1775.73 437.646 1774.65 448.003 1771.69 462.149L1757.55 462.153ZM1805.78 450.563C1798.52 450.563 1794.75 454.34 1793.27 461.069L1814 459.319C1814.94 454.743 1813.99 450.563 1805.78 450.563ZM1791.24 471.026C1790.3 477.767 1792.86 480.049 1801.47 480.049H1823.15L1821 490.281C1821 490.281 1807.94 493.913 1798.25 493.913C1774.14 493.913 1773.87 480.327 1776.96 465.777C1780.06 451.506 1785.59 437.376 1808.88 437.376C1831.36 437.376 1832.45 450.97 1826.92 471.026H1791.24ZM1839.02 494.054C1833.36 494.054 1829.87 492.441 1831.35 485.846C1832.69 479.098 1836.86 477.493 1842.53 477.493C1847.78 477.493 1851.41 479.098 1850.07 485.846C1848.58 492.304 1844.28 494.054 1839.02 494.054Z" fill="#0868AC"/>
</g>
<defs>
<clipPath id="clip0_436_1742">
<rect width="2051" height="502" fill="white"/>
</clipPath>
</defs>
</svg>
