<svg width="800" height="800" viewBox="0 0 800 800" fill="none" xmlns="http://www.w3.org/2000/svg">
<path d="M606.025 528.8C606.429 533.654 605.845 538.539 604.309 543.16C602.773 547.782 600.317 552.044 597.088 555.69C593.859 559.337 589.925 562.291 585.523 564.374C581.121 566.458 576.342 567.628 571.476 567.814C566.609 568 561.755 567.198 557.207 565.456C552.659 563.714 548.511 561.069 545.013 557.68C541.515 554.291 538.741 550.229 536.857 545.738C534.972 541.247 534.018 536.42 534.05 531.55L535.425 403.225C535.425 358.65 582.35 310.05 646.1 309.35C655.84 309.35 665.181 305.481 672.069 298.594C678.956 291.707 682.825 282.365 682.825 272.625C682.825 262.885 678.956 253.544 672.069 246.657C665.181 239.77 655.84 235.9 646.1 235.9H286.425C279.876 234.956 273.198 235.489 266.882 237.46C260.566 239.431 254.77 242.791 249.921 247.293C245.072 251.795 241.291 257.324 238.856 263.477C236.422 269.63 235.394 276.249 235.85 282.85V495.725C236.072 500.589 235.306 505.448 233.597 510.008C231.889 514.568 229.274 518.734 225.911 522.254C222.547 525.775 218.504 528.577 214.027 530.492C209.55 532.406 204.732 533.394 199.863 533.394C194.993 533.394 190.175 532.406 185.698 530.492C181.221 528.577 177.178 525.775 173.814 522.254C170.451 518.734 167.836 514.568 166.128 510.008C164.419 505.448 163.653 500.589 163.875 495.725C163.875 495.725 162.5 333.5 162.5 278.725C162.655 262.964 165.938 247.39 172.158 232.907C178.377 218.424 187.411 205.32 198.734 194.355C210.057 183.39 223.445 174.782 238.12 169.031C252.796 163.279 268.467 160.499 284.225 160.85H644.45C658.491 160.422 672.47 162.885 685.519 168.086C698.568 173.286 710.409 181.113 720.307 191.081C730.205 201.049 737.948 212.945 743.056 226.031C748.164 239.117 750.527 253.113 750 267.15C751.451 295.234 742.111 322.811 723.891 344.232C705.672 365.654 679.953 379.299 652 382.375C620.4 382.375 607 400.125 607 429.65L606.025 528.8Z" fill="#C40804"/>
<path d="M50.6249 274.725L49.9999 526.55C49.8332 555.839 61.1574 584.027 81.5415 605.061C101.926 626.095 129.744 638.297 159.025 639.05L392.95 636.8C406.644 636.505 420.143 633.483 432.655 627.908C445.167 622.334 456.441 614.32 465.818 604.335C475.195 594.35 482.487 582.596 487.266 569.759C492.044 556.922 494.215 543.26 493.65 529.575C494.168 515.297 491.723 501.067 486.468 487.782C481.214 474.496 473.263 462.443 463.119 452.383C452.974 442.323 440.855 434.474 427.526 429.331C414.198 424.188 399.948 421.862 385.675 422.5C380.738 422.682 375.815 421.867 371.201 420.103C366.586 418.34 362.374 415.664 358.817 412.236C355.26 408.807 352.431 404.697 350.498 400.151C348.566 395.604 347.57 390.715 347.57 385.775C347.57 380.834 348.566 375.945 350.498 371.398C352.431 366.852 355.26 362.742 358.817 359.314C362.374 355.885 366.586 353.209 371.201 351.446C375.815 349.682 380.738 348.867 385.675 349.05H491.65C539.85 349.05 538.625 272.675 491.65 272.675L378.6 274.05C350.402 274.471 323.507 285.994 303.751 306.119C283.996 326.245 272.973 353.348 273.075 381.55C272.411 396.135 274.702 410.704 279.81 424.381C284.917 438.059 292.737 450.563 302.799 461.143C312.86 471.723 324.956 480.16 338.36 485.948C351.764 491.736 366.2 494.755 380.8 494.825C385.707 494.614 390.607 495.394 395.205 497.12C399.804 498.845 404.008 501.479 407.566 504.866C411.124 508.252 413.963 512.32 415.913 516.829C417.864 521.337 418.885 526.192 418.917 531.103C418.949 536.015 417.991 540.883 416.099 545.416C414.208 549.949 411.422 554.054 407.908 557.486C404.395 560.919 400.225 563.608 395.649 565.392C391.073 567.177 386.185 568.021 381.275 567.875H173.5C166.832 568.523 160.104 567.68 153.802 565.407C147.5 563.134 141.783 559.489 137.064 554.734C132.345 549.979 128.743 544.234 126.518 537.915C124.293 531.597 123.501 524.862 124.2 518.2L122.825 275.35C123.435 270.276 122.968 265.131 121.454 260.251C119.94 255.37 117.414 250.864 114.04 247.027C110.665 243.189 106.52 240.107 101.873 237.981C97.2266 235.855 92.1838 234.733 87.0741 234.689C81.9645 234.645 76.903 235.679 72.2203 237.724C67.5376 239.769 63.3392 242.78 59.8992 246.558C56.4592 250.337 53.855 254.798 52.2569 259.652C50.6588 264.505 50.1027 269.641 50.6249 274.725Z" fill="#C40804"/>
</svg>
