<svg width="774" height="875" viewBox="0 0 774 875" fill="none" xmlns="http://www.w3.org/2000/svg">
<g clip-path="url(#clip0_436_1765)">
<path d="M742.905 791.437C740.142 794.199 736.688 795.58 732.544 795.58C728.399 795.58 724.946 794.199 722.183 791.437C719.42 788.674 718.038 785.221 718.038 781.078C718.038 776.934 719.42 773.136 722.528 770.373C725.291 767.611 728.745 766.575 732.544 766.575C736.688 766.575 740.142 767.956 742.905 770.718C745.668 773.481 747.049 776.934 747.049 781.078C747.395 785.221 746.013 788.674 742.905 791.437ZM724.255 772.445C721.837 774.862 720.801 777.625 720.801 780.732C720.801 784.185 721.837 786.948 724.255 789.365C726.672 791.782 729.435 792.818 732.889 792.818C736.343 792.818 739.106 791.782 741.523 789.365C743.941 786.948 744.977 784.185 744.977 780.732C744.977 777.625 743.941 774.517 741.523 772.445C739.106 770.028 736.343 768.647 732.889 768.647C729.435 768.992 726.672 770.028 724.255 772.445ZM737.379 788.329C735.997 789.365 734.616 789.71 733.234 789.71C731.162 789.71 729.09 789.02 727.363 787.293C725.636 785.566 724.945 783.495 724.945 781.078C724.945 778.66 725.636 776.589 727.018 774.862C728.399 773.135 730.471 772.445 732.889 772.445C734.271 772.445 735.652 772.79 737.033 773.481C738.76 774.517 740.142 776.243 740.487 779.006H736.688C736.343 777.97 735.997 776.934 735.307 776.589C734.616 776.243 733.925 775.898 733.234 775.898C732.198 775.898 731.162 776.243 730.471 777.279C729.781 778.315 729.435 779.696 729.435 781.423C729.435 783.149 729.781 784.531 730.471 785.221C731.162 785.912 732.198 786.602 733.234 786.602C734.271 786.602 734.961 786.257 735.652 785.912L736.688 783.84H740.142C739.796 785.912 738.76 787.293 737.379 788.329ZM773.988 635.014C773.988 633.633 773.643 632.252 773.643 630.87C773.643 629.834 773.297 629.144 773.297 628.453C772.952 626.381 772.607 624.655 771.916 622.583C770.534 618.785 768.462 614.986 765.699 611.879C762.936 608.771 759.828 606.354 756.72 604.627C753.266 602.901 749.812 601.865 747.049 601.174C746.013 601.174 745.322 600.829 744.632 600.829C748.431 584.254 743.596 571.478 740.487 565.608L741.178 564.917C745.322 560.774 748.776 556.975 751.884 553.177L752.575 552.486C754.993 549.033 756.374 545.58 757.41 542.473C758.101 539.71 758.792 537.293 758.792 534.876V532.804V531.423V528.315C758.446 523.136 757.756 516.575 754.302 509.323C752.575 505.87 750.158 502.072 747.049 498.619C743.941 495.166 740.142 492.058 735.652 489.641C735.307 489.296 734.961 489.296 734.616 488.951C725.291 475.484 714.93 464.779 705.605 456.837C700.77 452.694 696.28 449.241 692.481 446.478C688.682 443.716 685.573 441.644 683.846 440.263C679.702 437.155 676.594 435.428 675.212 434.738C671.758 432.666 669.341 430.939 667.959 429.904C666.923 428.868 666.232 428.522 665.887 428.177C665.887 428.177 665.887 427.832 665.542 427.141C665.196 426.105 665.196 424.724 665.196 422.307C665.196 418.854 665.196 413.674 665.542 406.768C666.232 395.718 667.269 380.87 668.65 360.497C668.995 353.937 668.995 347.721 668.995 342.196C668.65 332.873 667.269 324.586 665.542 316.989C665.196 315.263 664.506 313.536 664.16 311.81C663.815 310.428 663.469 309.738 663.124 309.047C662.779 308.011 662.433 306.975 661.743 305.594C661.397 304.904 661.397 304.213 660.707 303.522C660.016 301.796 659.325 300.069 658.289 298.343L657.944 297.997L657.598 296.962L657.253 296.271C655.526 293.163 653.454 290.401 651.382 287.984C650.345 283.149 648.619 276.243 645.51 268.301C642.747 261.395 639.294 253.799 634.113 246.202C632.386 243.439 630.314 241.022 628.242 238.605L628.932 237.915C629.969 236.879 654.144 211.326 673.485 178.177C709.058 116.368 697.316 78.7295 681.083 58.0113L680.738 57.3206L680.393 56.63C664.851 39.3648 643.438 29.0057 617.535 25.5527C563.312 18.6466 501.836 45.5803 485.604 53.177L455.902 20.7184C453.139 17.956 450.376 15.1936 447.267 13.1218C444.159 11.0499 440.705 8.97811 437.252 7.25159C430.344 4.14385 422.746 2.07203 414.457 1.03612C398.225 -1.03571 379.575 1.03612 359.543 6.21568C329.496 13.8124 295.995 29.0057 260.767 50.0693C225.539 71.1328 188.93 98.4118 153.357 130.87C109.84 170.235 73.9216 212.017 47.6734 252.072C34.5493 271.754 23.8428 291.091 15.8993 309.738C7.95574 328.039 2.77518 345.649 0.702959 361.533C-0.678524 373.274 -0.678524 384.323 1.73907 394.337C2.77518 398.826 4.15667 402.97 6.22889 407.113C8.64649 412.293 11.7548 417.127 15.5539 421.271L46.2919 453.384L49.7456 456.837L49.4002 457.182L48.3641 459.254C47.6734 460.29 47.328 461.326 46.6373 462.017L45.6012 464.089C45.2558 465.124 44.5651 466.16 44.2197 467.196L43.1836 469.268C42.8382 470.304 42.1475 471.34 41.8021 472.376C41.4567 473.066 41.1113 473.757 41.1113 474.448L40.0752 477.555C39.7299 478.246 39.7299 478.937 39.3845 479.627C39.0391 480.663 38.6937 481.699 38.3484 483.08C38.3484 483.426 38.003 483.771 38.003 484.116C38.003 484.462 37.6576 484.807 37.6576 485.152C37.3123 486.188 36.9669 487.569 36.6215 488.605C36.6215 489.296 36.2762 489.986 36.2762 490.677C36.2762 491.022 35.9308 491.713 35.9308 492.058C35.9308 492.749 35.5854 493.439 35.5854 494.13C35.5854 494.821 35.24 495.511 35.24 496.202C34.8947 497.583 34.8947 498.964 34.5493 500.691C34.5493 501.036 34.5493 501.381 34.2039 502.072V502.417C34.2039 503.453 33.8586 504.489 33.8586 505.18C33.8586 506.561 33.5132 508.288 33.5132 509.669V526.934C33.5132 527.625 33.5132 528.315 33.8586 529.006C33.8586 529.696 33.8586 530.732 34.2039 531.768V532.804C34.2039 533.495 34.5493 534.531 34.5493 535.221C34.5493 535.912 34.8947 536.602 34.8947 537.638C34.8947 537.984 34.8947 538.329 35.24 538.674C35.24 539.02 35.5854 539.71 35.5854 540.055V540.746C35.5854 541.437 35.9308 542.127 36.2762 543.508C36.2762 543.854 36.2762 543.854 36.6215 544.199C36.9669 544.89 36.9669 545.58 36.9669 545.926L37.3123 546.616C37.3123 546.962 37.3123 546.961 37.6576 547.307L38.003 547.997V549.033C38.003 549.379 38.003 549.379 38.3484 549.724L38.6937 550.415C38.6937 551.105 39.0391 551.45 39.0391 552.141C39.3845 552.832 39.3845 553.522 39.7299 554.904C39.7299 555.249 39.7299 555.249 40.0752 555.594C40.4206 556.63 40.766 557.321 40.766 557.666C41.1113 558.357 41.4567 559.047 41.8021 560.428L42.1475 560.774C42.4928 561.464 42.4928 562.155 42.8382 562.5L43.1836 563.191C43.1836 563.536 43.5289 563.881 43.5289 564.227C43.5289 564.572 43.8743 565.263 44.2197 565.608L44.565 566.299C44.9104 566.644 44.9104 567.334 45.2558 567.68C45.6012 568.025 45.6012 568.37 45.6012 568.716C45.9465 569.406 46.2919 570.097 46.6373 571.133L46.9826 571.478C47.328 571.823 47.328 572.169 47.6734 572.514C48.0188 572.859 48.0188 573.55 48.3641 573.895C48.7095 574.241 49.0549 574.931 49.4002 575.967L49.7456 576.312C50.091 576.658 50.091 577.003 50.4364 577.348C50.7817 578.039 51.1271 578.384 51.1271 578.729C51.4725 579.075 51.8178 579.765 52.1632 580.456V580.801C52.5086 581.147 52.5086 581.492 52.854 581.837C53.1993 582.528 53.5447 582.873 53.8901 583.218C54.2354 583.564 54.5808 584.254 55.2715 585.29C55.6169 585.636 55.9623 585.981 55.9623 586.326C56.3077 587.017 56.653 587.362 56.9984 587.707C57.3438 588.053 57.6891 588.743 58.0345 589.434C58.3799 589.779 58.7253 590.47 59.0706 590.815C59.416 591.506 59.7614 591.851 60.4521 592.196L61.4882 593.232L61.8336 593.578C62.5243 594.268 62.8697 594.959 63.5604 595.649L64.2512 596.34L65.2873 597.376L67.3595 599.448L68.0503 600.138L69.0864 601.174L69.4317 601.52C70.1225 602.21 71.1586 602.901 71.8493 603.937L72.1947 604.282C72.5401 604.627 72.8855 604.627 73.2308 605.318C74.2669 606.354 75.3031 607.044 76.3392 608.08L77.0299 608.426L77.3753 608.771L78.066 609.116C79.1021 609.807 79.7929 610.497 80.829 611.188L81.1744 611.533C81.5197 611.879 81.8651 611.879 81.8651 611.879L82.5558 612.569C83.2466 613.26 83.9373 613.605 84.6281 614.296L85.3188 614.641L86.0095 615.332L86.3549 615.677C87.0457 616.022 88.0818 616.713 88.7725 617.058C89.1179 617.404 89.4633 617.749 90.154 617.749L90.8447 618.094L91.1901 618.439H91.5355C92.917 619.13 93.9531 619.821 94.9892 620.511L95.6799 620.857L99.8244 622.928H100.17L100.86 623.274L102.933 624.31C103.278 624.31 103.623 624.655 103.969 624.655C104.314 625 104.66 625 105.35 625.346H105.696C106.386 625.691 107.077 626.036 107.768 626.036H108.113C108.804 626.381 109.495 626.727 110.531 627.072H110.876L111.567 627.417C111.912 627.417 112.258 627.763 112.603 627.763H112.948C113.985 628.108 115.021 628.453 116.402 628.799H116.748C118.474 629.489 120.201 629.834 121.928 630.18H122.273C123.655 630.525 125.382 630.87 126.763 631.216H128.145C129.526 631.561 130.908 631.906 132.289 631.906H133.671C134.707 631.906 135.398 632.252 136.434 632.252C136.434 632.597 136.779 632.942 136.779 633.287C139.197 639.848 141.614 646.409 144.377 652.625C185.131 765.539 298.067 853.246 426.891 869.475C555.714 885.359 693.517 799.724 749.467 684.047C751.884 679.558 753.957 675.415 756.029 670.926C761.555 665.055 766.045 659.185 768.808 652.97C773.297 649.172 774.334 641.575 773.988 635.014Z" fill="#664F44"/>
<path d="M663.815 70.0969C657.598 63.1909 650.345 58.0113 642.402 54.213C641.02 53.5224 639.639 53.1771 637.912 52.8318C637.221 52.4865 636.53 51.7958 635.84 51.4505C628.932 48.6881 621.68 46.9616 614.081 45.9257C576.781 41.0914 533.955 54.9036 509.779 64.5721C508.398 65.2627 507.016 65.608 505.635 66.2986C503.563 67.3345 501.49 68.0251 499.418 69.061C495.965 70.4423 492.511 72.1688 488.712 73.8953C488.021 74.2406 487.676 74.2406 486.985 74.5859L480.423 66.9892L477.315 63.5362L474.552 60.4284L473.515 59.0472L448.303 30.0417L446.231 27.6246L443.468 24.5168H443.123L435.87 26.2434L427.581 27.9699C423.091 25.8981 417.565 24.5168 411.349 23.4809C398.915 21.7544 383.028 23.4809 365.069 27.9699C347.11 32.4588 326.733 40.4008 305.32 51.1052C262.149 72.5141 214.487 105.318 168.208 147.445C151.975 161.948 137.124 177.141 123.309 191.989C109.84 206.492 97.752 221.34 86.7001 235.497C64.251 264.848 47.3279 293.163 36.276 318.716C29.0232 335.636 24.5334 351.174 22.8065 364.641C21.4251 374.31 21.7704 382.942 23.4973 389.848C24.188 392.265 24.8788 393.992 25.5695 396.064C27.2964 400.207 29.3686 403.66 32.1316 406.768L60.1066 436.119L63.2149 439.227L63.5603 438.881C64.251 437.846 65.2872 436.81 66.3233 436.119L66.6686 435.774L67.7047 434.738C68.3955 433.702 69.4316 433.011 70.1223 431.975C70.8131 431.285 71.1584 430.939 71.8492 430.594C72.5399 430.249 72.8853 429.558 73.576 429.213L74.2668 428.522C74.9575 428.177 75.3029 427.486 75.9936 427.141C76.6844 426.451 77.7205 425.76 78.4112 425.069C78.7566 424.724 79.4473 424.379 79.7927 424.033H80.1381C81.1742 423.343 81.8649 422.652 82.9011 421.962C83.5918 421.616 83.9372 421.271 84.6279 420.58C85.664 419.89 86.3548 419.199 87.3909 418.509C88.0816 418.163 88.427 417.818 89.1177 417.473C90.1538 416.782 91.19 416.091 92.2261 415.746C92.9168 415.401 93.2622 415.056 93.9529 414.71C94.989 414.02 96.0251 413.674 97.0613 412.984C97.752 412.638 98.0974 412.293 98.7881 411.948L99.4789 411.602C100.515 411.257 101.206 410.567 102.242 410.221C102.587 409.876 103.278 409.876 103.623 409.531C104.314 409.185 105.005 408.84 106.041 408.495L108.113 407.459L108.804 407.114L113.984 405.042C114.675 404.696 115.021 404.696 115.711 404.351C116.402 404.006 116.747 404.006 117.438 403.66L118.129 403.315C118.474 403.315 118.82 402.97 119.165 402.97C119.856 402.625 120.546 402.625 121.583 402.279H122.273C123.309 401.934 124 401.934 125.036 401.589C125.727 401.243 126.763 401.243 127.454 400.898C128.49 400.553 129.526 400.553 130.562 400.207C130.908 400.207 131.253 399.862 131.944 399.862C132.289 399.862 132.98 399.862 133.325 399.517C134.361 399.172 135.397 399.172 136.434 399.172C137.47 399.172 138.16 398.826 139.196 398.826C139.887 398.826 140.578 398.481 141.269 398.481H144.032C147.485 398.481 151.63 398.481 155.774 398.826H156.465C160.609 399.172 165.445 399.862 170.28 400.898C171.316 401.243 172.697 401.243 173.734 401.589C174.079 401.243 174.079 400.553 174.424 400.207C177.187 395.719 179.605 390.884 182.368 386.395C197.91 360.497 214.487 337.707 231.41 317.68C237.282 310.774 243.153 304.558 249.024 298.343C273.546 272.79 298.067 253.108 320.171 237.915C325.006 234.462 330.187 231.354 334.676 228.246C341.238 224.102 347.455 220.649 353.326 217.196C358.162 214.434 362.651 212.017 367.141 209.945C374.394 206.147 380.956 203.039 386.827 200.622L392.008 198.55C394.426 197.514 396.843 196.478 398.915 195.788C397.188 195.442 395.116 195.442 393.389 195.442H386.482C384.755 195.442 382.683 195.442 380.956 195.788C377.502 196.133 373.703 196.478 369.904 196.823C368.523 197.169 367.487 197.169 366.105 197.514C375.43 192.68 384.755 189.227 393.389 186.464C399.261 184.738 405.132 183.357 410.658 182.321C418.256 180.939 425.509 179.904 432.071 179.558C436.561 179.213 440.705 179.213 444.504 179.213C448.303 179.213 452.102 179.558 455.211 179.558C466.608 180.249 473.515 181.975 473.515 181.975C471.789 179.558 469.716 177.832 467.644 176.105C463.5 172.997 459.01 170.926 454.865 169.199C453.139 168.509 451.757 168.163 450.376 167.473C449.339 167.127 448.303 166.782 447.613 166.782C449.685 166.437 451.412 166.091 453.139 166.091C455.211 165.746 456.938 165.746 459.01 165.401C475.242 164.02 489.748 165.401 500.454 167.127C513.233 169.544 521.177 172.652 521.177 172.652C519.45 169.199 516.687 166.091 513.578 163.329C511.506 161.602 509.089 159.876 507.016 158.495C511.506 159.531 515.305 160.567 519.45 161.948C529.811 165.056 538.445 168.854 545.353 171.962L551.569 175.069C552.26 175.415 552.605 175.76 552.951 175.76C559.167 179.213 562.621 181.63 562.621 181.63C561.585 177.832 559.513 174.379 556.75 171.271C556.059 170.58 555.368 169.544 554.678 168.854H555.023C555.368 168.854 555.714 169.199 556.404 169.199C556.75 169.199 557.441 169.544 558.131 169.89C560.894 170.926 565.039 172.652 569.874 175.069C570.219 175.069 570.219 175.415 570.565 175.415L572.637 176.451C574.364 177.486 576.091 178.177 577.817 179.558L582.998 182.666C584.034 183.357 584.725 183.702 585.761 184.393C587.488 185.774 589.56 187.155 591.287 188.881C593.359 190.608 595.086 192.335 596.813 194.061L597.849 195.097C599.23 196.478 600.612 197.859 601.648 199.241C604.066 202.003 606.138 205.111 608.21 208.218C610.628 212.017 612.354 216.506 614.081 220.995C614.081 221.34 614.081 221.685 614.427 221.685C615.463 220.649 617.535 218.578 619.953 215.815C639.984 192.335 700.079 116.368 663.815 70.0969Z" fill="#132134"/>
<path d="M753.266 637.431C753.266 637.431 753.956 632.251 751.193 627.417C751.193 627.072 750.848 626.726 750.848 626.726L750.503 626.381L749.466 625.345C748.776 624.655 748.085 623.964 747.049 623.273C746.703 622.928 746.013 622.583 745.322 622.237C743.595 621.547 741.868 620.856 739.451 620.511C737.724 620.166 735.997 620.166 733.925 620.166H731.162V620.856C731.162 621.201 731.507 621.547 731.507 622.237C731.507 622.583 731.507 622.928 731.852 622.928C732.198 623.964 732.543 625.69 732.889 627.072C732.889 627.072 732.889 627.417 732.543 628.108V628.453C731.507 630.87 728.744 636.395 722.527 643.301C721.491 644.682 720.455 645.718 719.074 647.099C701.805 665.055 664.505 690.262 585.761 704.42C559.167 708.218 534.3 708.563 513.578 705.801C482.495 702.003 459.355 691.989 448.303 678.522C447.267 677.486 446.576 676.105 445.54 675.069C444.849 674.033 444.504 673.342 443.813 672.306C443.468 671.961 443.468 671.616 443.123 671.271C438.633 662.983 436.56 654.005 436.56 645.373C436.56 634.668 440.014 624.655 445.54 617.058C450.03 610.842 455.901 606.008 463.154 603.936C466.608 602.9 470.407 602.21 474.206 602.555C474.897 602.555 475.933 602.555 477.314 602.9C479.732 603.246 483.531 603.591 488.021 604.282C488.366 604.282 489.057 604.282 489.402 604.627C504.253 606.353 527.738 608.771 556.059 607.044C607.864 603.936 675.902 587.707 737.724 531.768V531.422C738.069 526.588 737.378 518.301 731.507 511.74C730.471 510.704 729.435 509.668 728.053 508.632C727.363 507.942 726.327 507.596 725.636 506.906C724.6 506.561 723.909 505.87 723.218 505.525L720.11 503.453V503.108C719.765 502.417 719.419 501.726 718.728 501.036C702.841 476.864 680.738 462.707 671.758 456.146C667.614 453.038 664.851 451.657 664.851 451.657C645.855 439.917 643.092 436.119 644.819 404.696C645.51 393.301 646.546 378.453 647.927 358.08C647.927 355.317 648.273 352.9 648.273 350.483V348.757V340.469C648.273 338.743 647.927 337.016 647.927 335.635C647.927 334.945 647.927 334.254 647.582 333.563C647.237 331.837 647.237 330.11 646.891 328.384C646.891 327.693 646.546 326.657 646.546 325.967C646.546 324.931 646.201 324.24 645.855 323.204C645.51 322.514 645.51 321.478 645.164 320.787C644.819 319.751 644.474 318.715 644.474 317.679C644.474 317.334 644.128 316.989 644.128 316.643C644.128 316.298 643.783 315.953 643.783 315.608V315.262L643.438 314.226C643.092 313.536 642.747 312.845 642.747 312.155V311.809L642.401 311.119L642.056 310.428C641.365 309.047 641.02 307.666 640.329 306.63L639.984 305.594C639.293 304.558 638.602 303.177 637.912 302.141L637.566 301.795L637.221 301.45C636.53 300.759 636.185 300.069 635.494 299.378L634.803 298.342C634.113 297.306 633.422 296.616 632.731 295.925V293.163C632.386 291.782 632.04 290.055 631.695 288.329C631.695 287.983 631.35 287.293 631.35 286.947V286.602C631.35 285.911 631.004 285.566 631.004 284.875C630.659 283.494 630.313 282.113 629.623 280.732C629.623 280.387 629.277 279.696 629.277 279.351L628.241 276.243C627.896 275.552 627.896 274.862 627.55 274.516C627.205 273.48 626.86 272.445 626.169 271.409L625.133 269.337C624.788 268.301 624.097 267.265 623.751 266.229L622.715 264.157C622.025 263.121 621.679 262.085 620.988 261.05L619.952 258.978C619.262 257.942 618.571 256.906 617.88 255.525C617.535 254.834 617.189 254.489 616.844 253.798C616.499 253.453 616.153 252.762 615.808 252.417C614.772 251.381 614.081 250.345 613.045 249.309L612.354 248.964C610.973 247.583 609.937 246.201 608.555 245.166L608.21 244.82C607.519 244.475 606.828 243.784 606.483 243.439H606.138C605.447 243.094 605.101 242.748 604.411 242.403L604.065 242.058C603.375 241.713 602.338 241.022 600.957 240.331C600.612 239.986 599.921 239.986 599.23 239.641C596.122 238.605 592.323 237.224 587.488 235.842C587.142 235.842 586.797 235.842 586.451 235.497C582.652 234.461 578.162 233.425 573.327 232.735C571.6 232.389 570.219 232.389 568.492 232.044C567.801 232.044 567.111 232.044 566.074 231.699H565.038C561.239 231.353 557.786 231.008 553.987 231.008H553.641C548.806 231.008 543.971 231.353 539.481 232.389C540.517 230.663 543.625 228.591 546.388 226.864C550.187 224.793 553.641 223.411 553.641 223.411C551.569 223.411 549.497 223.757 547.424 224.102C546.734 224.102 546.043 224.447 545.352 224.447C545.007 224.447 544.316 224.447 543.971 224.793H543.625C543.28 224.793 542.935 224.793 542.589 225.138C531.883 227.555 521.522 231.353 515.65 233.771L513.578 234.806H513.233C512.542 234.806 512.197 234.806 511.506 235.152C515.65 227.21 521.867 223.066 526.702 220.994C527.393 220.649 528.429 220.304 529.12 219.958C529.465 219.958 529.465 219.958 529.811 219.613C530.501 219.268 531.192 219.268 531.537 218.922C532.574 218.577 533.264 218.577 533.264 218.577H527.738C515.996 219.958 505.289 223.757 496.31 228.936C490.093 232.389 484.567 236.188 479.732 239.986C478.35 240.331 477.314 240.677 475.933 240.677C462.809 243.439 447.958 246.892 432.416 251.726C426.545 253.453 420.673 255.525 414.802 257.596C410.312 259.323 405.477 261.05 400.987 262.776C397.534 264.157 394.425 265.538 390.972 266.92C367.141 277.624 343.31 291.782 323.624 310.773L321.552 312.845L316.371 318.025L314.299 320.096C313.608 321.132 312.572 322.168 311.882 322.859C308.083 327.003 304.629 331.492 301.175 336.326C298.758 339.779 296.34 343.577 294.268 347.376L293.922 347.721C289.433 355.663 285.288 363.95 282.18 373.273C280.453 377.762 279.071 382.596 277.69 387.431C277.345 388.812 276.999 389.848 276.654 391.229L276.308 391.92C274.927 397.099 273.891 402.624 273.2 408.149C273.2 409.185 272.855 410.221 272.855 411.602C272.509 414.364 272.164 417.127 272.164 420.235C271.819 422.997 271.819 425.414 271.819 428.177V438.881C271.819 441.989 271.819 445.096 272.164 448.204V448.55C272.164 451.657 272.509 454.765 272.855 458.218C272.855 459.599 273.2 460.98 273.2 462.362V463.398C273.2 464.088 273.2 464.779 273.545 465.815C273.891 469.268 274.582 473.066 274.927 476.864C274.927 477.9 275.272 478.936 275.272 479.972C275.963 483.08 276.308 486.533 276.999 489.641C276.999 489.641 276.308 485.497 276.654 479.282C276.654 477.9 276.999 476.174 276.999 474.793C277.345 471.34 278.035 467.196 279.417 463.398L280.453 460.29C280.453 459.945 280.798 459.599 281.144 458.909C281.834 457.182 282.87 455.11 283.907 453.384C284.252 454.765 284.252 456.146 284.597 457.182V475.483C284.943 487.224 285.979 501.381 288.396 513.467C288.396 513.467 288.742 491.713 292.541 488.95C292.541 488.95 299.103 529.696 304.974 544.889C305.665 546.961 306.701 548.342 307.392 549.378V545.235L306.701 522.79V520.373C311.191 529.696 316.371 539.019 322.243 549.033C323.97 551.795 325.351 554.558 327.078 557.32C316.026 566.989 305.665 581.146 298.067 597.721C297.031 600.483 295.649 603.246 294.613 606.008C293.922 607.735 293.577 609.116 292.886 610.842C292.886 611.188 292.541 611.878 292.541 612.224C292.195 613.259 291.85 614.641 291.505 615.677C291.505 616.367 291.159 616.713 291.159 617.403C290.814 618.439 290.469 619.82 290.123 620.856C290.123 621.547 289.778 621.892 289.778 622.583L288.742 627.762C288.396 629.489 288.051 631.215 288.051 632.942C288.051 633.632 288.051 633.978 287.706 634.668C287.706 636.05 287.36 637.085 287.36 638.467C287.36 639.157 287.36 639.848 287.015 640.538C287.015 641.92 286.67 642.956 286.67 644.337V656.422C286.67 657.804 286.67 659.185 287.015 660.911V661.947C287.015 663.674 287.36 665.4 287.706 667.472C287.706 668.163 287.706 668.508 288.051 669.199C288.051 670.58 288.396 671.616 288.742 672.997C288.742 673.688 289.087 674.378 289.087 675.069C289.433 676.105 289.433 677.486 289.778 678.522C289.778 679.213 290.123 679.903 290.123 680.594C290.469 681.63 290.814 682.666 290.814 684.047C291.159 684.737 291.159 685.428 291.505 686.464C291.85 687.5 292.195 688.881 292.541 689.917C292.886 690.608 292.886 691.298 293.232 691.989C293.577 693.025 293.922 694.406 294.268 695.442C294.613 696.132 294.613 696.823 294.958 697.514C295.304 698.895 295.995 700.276 296.34 701.312C296.685 702.003 296.685 702.348 297.031 703.039L302.211 714.434C302.557 715.124 302.902 715.469 303.247 716.16L305.32 720.304C305.665 720.994 306.01 721.685 306.701 722.376C307.392 723.411 308.083 724.793 308.773 725.829C309.119 726.519 309.809 727.21 310.155 727.9C310.846 728.936 311.536 730.318 312.572 731.353C313.263 732.044 313.608 732.735 314.299 733.771C314.99 734.806 316.026 736.188 316.717 737.224C317.408 737.914 317.753 738.605 318.444 739.641C319.48 740.677 320.171 742.058 321.207 743.094C321.897 743.784 322.243 744.475 322.934 745.166C323.97 746.547 325.006 747.583 326.387 748.964L328.114 750.69C329.841 752.417 331.568 754.489 333.295 756.215C333.295 756.215 332.259 754.834 330.877 752.072C330.532 751.726 330.186 751.036 330.186 750.345L329.15 748.273C328.805 747.583 328.459 746.892 328.114 745.856C325.351 739.641 322.934 730.663 323.279 720.994L326.387 725.138C327.423 727.555 329.15 730.663 330.877 734.116C331.568 735.152 332.259 736.533 332.604 737.569C335.367 742.403 338.13 747.928 341.584 753.108C345.728 759.668 349.872 765.884 354.362 771.754C354.362 771.754 349.182 760.704 347.455 753.453C347.109 751.381 346.764 749.655 347.109 748.619C347.455 748.964 347.8 749.655 348.491 750C348.836 750.345 349.182 751.036 349.872 751.381C350.563 752.417 351.599 753.798 352.981 755.525L353.672 756.215C354.362 756.906 354.708 757.942 355.398 758.632C356.089 759.668 356.78 760.704 357.816 761.74C365.069 771.063 375.084 783.494 381.992 790.055C384.409 792.127 386.482 793.853 387.863 794.544L377.847 776.588C400.642 795.235 495.273 819.061 588.178 792.472C599.576 789.365 610.627 785.221 621.679 780.387C628.241 777.624 634.803 774.171 641.365 770.718L642.401 770.027C646.891 767.61 651.381 764.848 655.871 762.085C659.325 760.014 662.778 757.596 665.887 755.525C671.413 751.726 676.939 747.583 682.464 743.094C682.81 742.748 683.155 742.403 683.501 742.403C688.681 737.914 693.862 733.08 698.352 728.246C704.568 721.685 710.094 715.124 714.929 708.563L715.275 708.218C716.656 706.492 717.692 705.11 718.728 703.384L719.074 703.039C719.419 702.348 719.765 702.003 720.11 701.312C721.837 698.895 723.218 696.823 724.945 694.406C725.29 693.715 725.636 693.37 725.981 692.679C726.672 691.298 727.363 690.262 728.399 688.881C729.089 687.845 729.435 687.155 730.126 686.119C730.816 685.083 731.507 684.047 731.852 683.011C732.889 681.284 733.925 679.213 734.961 677.486L735.997 675.414L738.069 671.271L739.105 669.199L739.451 668.508C740.141 666.782 741.177 665.055 741.868 663.329V662.983C744.977 660.221 747.049 657.458 749.121 655.041C749.466 654.696 749.812 654.351 749.812 654.005C751.884 647.445 753.266 642.265 753.266 637.431ZM197.564 570.442C197.564 570.096 197.564 569.751 197.219 569.061C196.182 563.19 195.146 556.975 194.801 550.759V549.378C193.765 549.724 192.729 551.105 191.347 552.831C191.002 553.522 190.311 554.213 189.966 555.248C186.857 561.119 184.094 569.406 184.094 569.406C184.44 566.643 184.785 563.881 184.785 561.119V560.083C185.131 557.32 185.476 554.213 185.821 551.45V550.414C186.167 546.961 186.857 543.853 187.548 540.746C187.548 540.4 187.548 540.055 187.894 539.364V539.019C187.894 538.674 187.894 538.329 188.239 537.983C188.239 537.293 188.584 536.947 188.584 536.257C188.93 533.84 189.62 531.422 189.966 529.005C190.311 526.934 190.656 524.862 191.002 523.135V522.445C191.002 522.099 191.002 521.754 191.347 521.754V521.063C191.347 520.718 191.693 520.027 191.693 519.682C191.693 519.337 191.693 518.992 192.038 518.646C192.038 517.956 192.383 517.265 192.383 516.92C192.383 516.574 192.729 515.884 192.729 515.538C192.729 514.848 193.074 514.157 193.074 513.812C193.074 513.467 193.074 513.121 193.419 512.776C193.419 512.431 193.419 512.085 193.765 512.085C193.765 511.395 194.11 511.049 194.11 510.704V509.668L193.419 510.359C192.729 510.704 192.383 511.395 191.693 511.74L191.002 512.431C190.311 513.121 189.62 513.812 189.275 514.503L188.93 514.848L186.857 517.956L186.512 518.301C186.512 518.646 186.167 518.646 186.167 518.992L185.131 521.063V521.754C184.785 522.79 184.094 523.826 183.749 524.862C182.713 527.624 181.677 530.387 180.986 532.804C180.641 533.494 180.641 534.53 180.295 534.875C179.95 536.257 179.605 537.638 179.605 537.983C179.605 536.947 179.605 536.257 179.95 535.221C179.95 533.494 180.295 531.422 180.295 529.696C180.295 528.315 180.641 526.588 180.986 525.207C180.986 524.862 180.986 524.171 181.331 523.826C181.331 523.135 181.677 522.445 181.677 521.754C181.677 521.063 182.022 520.373 182.022 519.682V518.646C182.022 517.956 182.368 516.92 182.368 516.229V514.503V513.812C182.368 513.467 182.368 513.121 182.713 512.776C183.058 511.74 183.404 510.359 183.404 509.323V508.978C183.749 508.287 183.749 507.251 184.094 506.561V506.215C184.44 504.489 185.131 502.762 185.476 501.036V500.345C185.476 500 185.476 499.655 185.821 499.309C186.512 496.547 187.548 493.784 188.239 491.367V491.022C188.93 488.95 189.966 486.533 190.656 484.461V484.116C191.002 483.08 191.347 482.389 191.693 481.353C192.383 479.972 192.729 478.591 193.419 477.21C193.419 476.864 193.765 476.174 194.456 474.793C194.801 474.447 194.801 473.757 195.146 473.411C195.492 472.721 195.837 472.03 196.182 470.994L196.528 470.304L202.399 459.599C202.744 459.254 202.744 458.563 203.09 458.218V457.873L203.435 457.182C204.126 456.146 204.817 454.765 205.507 453.729C206.544 452.003 207.234 450.276 208.27 448.895C209.997 445.787 211.379 443.025 212.415 441.643C212.76 440.608 213.106 440.262 213.451 439.917C213.106 439.917 211.379 438.536 208.616 436.809C205.162 434.737 200.327 431.975 194.456 429.213C192.383 428.177 190.656 427.486 188.584 426.45C186.167 425.414 183.404 424.378 180.641 423.342C179.95 422.997 179.259 422.997 178.568 422.652C176.151 421.961 174.079 421.271 171.661 420.58C169.934 420.235 168.207 419.889 166.826 419.544C165.444 419.199 164.063 419.199 162.681 418.853C161.991 418.853 161.3 418.853 160.609 418.508C159.918 418.508 159.228 418.508 158.537 418.163C156.81 418.163 154.738 417.818 153.011 417.818H150.248C146.104 417.818 142.305 418.163 138.505 418.853H137.815C130.907 419.889 124.345 421.616 117.783 424.033C115.711 424.724 113.639 425.759 111.221 426.795C110.53 427.141 110.185 427.486 109.494 427.486L107.422 428.522C101.205 431.63 95.3341 435.773 89.8082 440.262H89.4628C84.6276 444.061 80.4832 448.55 76.6841 453.038L73.5758 457.182C72.1943 458.909 71.1582 460.635 70.1221 462.362C68.0498 465.469 65.9776 468.922 64.2508 472.376C63.56 473.757 62.8693 474.793 62.5239 476.174C62.5239 476.519 62.1785 476.519 62.1785 476.864C58.7248 485.152 55.9619 493.784 54.9258 503.108C54.5804 504.834 54.5804 506.561 54.235 508.632V509.323C54.235 510.704 53.8896 512.085 53.8896 513.812V520.027C53.8896 521.409 53.8896 522.79 54.235 524.171V525.898C54.235 526.934 54.5804 527.969 54.5804 529.005V529.351C54.5804 530.041 54.5804 530.387 54.9258 531.077C54.9258 532.113 55.2711 533.149 55.2711 533.84C55.2711 534.53 55.6165 535.221 55.6165 535.911C55.9619 536.947 55.9619 537.638 56.3072 538.674C56.3072 539.364 56.6526 540.055 56.998 540.746V541.091L57.3434 541.782V542.472L57.6887 543.163C58.0341 543.853 58.0341 544.544 58.3795 545.235C58.7248 545.925 58.7248 546.961 59.0702 547.652C59.4156 548.342 59.7609 549.033 59.7609 550.069L60.1063 550.759C60.4517 551.45 60.4517 551.795 60.7971 552.486C61.1424 553.177 61.4878 553.867 61.8332 554.903L62.8693 556.975C63.2147 557.32 63.2147 557.666 63.56 558.011C63.9054 558.356 63.9054 558.701 64.2508 559.047L65.2869 561.119C65.6323 561.809 65.9776 562.845 66.6684 563.536C67.0137 564.226 67.3591 564.917 67.7045 565.262C68.0499 565.953 68.7406 566.989 69.086 567.679C69.4313 568.37 69.7767 568.715 70.1221 569.406C70.4674 570.096 71.1582 571.132 71.8489 571.823C72.1943 572.514 72.5397 572.859 72.885 573.204C73.5758 573.895 73.9212 574.931 74.6119 575.621C74.9573 575.967 75.3026 576.657 75.648 577.003C76.3387 577.693 77.0295 578.729 77.7202 579.42C78.0656 579.765 78.411 580.11 78.7563 580.801C79.4471 581.492 80.1378 582.527 80.8286 583.218L81.8647 584.254C82.5554 584.945 83.2462 585.98 84.2823 586.671L85.3184 587.707L87.736 590.124C88.0814 590.469 88.4267 590.815 88.7721 590.815C89.4628 591.505 90.499 592.196 91.5351 593.232C91.8804 593.577 92.2258 593.577 92.5712 593.922C93.6073 594.613 94.298 595.304 95.3341 595.994C95.6795 596.34 96.0249 596.34 96.0249 596.685L99.1332 598.757L99.824 599.102L102.932 601.174L103.623 601.519C104.659 602.21 106.041 602.9 107.077 603.591L107.767 603.936C108.804 604.627 110.185 605.317 111.221 605.663L111.912 606.008C113.293 606.699 114.33 607.044 115.711 607.735L116.056 608.08C117.438 608.771 118.819 609.116 119.855 609.806H120.201C121.582 610.152 122.964 610.842 124.345 611.188H124.691C125.381 611.533 126.072 611.533 126.763 611.878C127.454 612.224 128.144 612.224 129.18 612.569H129.526C130.907 612.914 132.634 613.259 134.016 613.605C135.397 613.95 137.124 614.295 138.505 614.295C143.341 614.986 148.176 615.331 153.011 615.677H156.465C158.192 615.677 159.573 615.677 161.3 615.331C163.372 614.986 165.79 614.986 168.207 614.641C170.28 614.295 172.352 613.95 174.079 613.605C177.187 612.914 180.295 612.224 183.058 611.188C192.038 608.771 199.636 605.317 204.471 601.519C204.471 601.519 201.363 587.707 198.945 573.895C198.255 573.204 197.909 571.823 197.564 570.442Z" fill="#90694C"/>
<path d="M419.293 57.3203L418.256 43.5082L425.164 28.3148L427.927 27.6242C423.437 25.5524 417.911 24.1711 411.694 23.1352C399.261 21.4087 383.374 23.1352 365.415 27.6242C347.455 32.1131 327.079 40.0551 305.666 50.7595C262.494 72.1684 214.833 104.972 168.553 147.099C152.321 161.602 137.47 176.795 123.655 191.644C110.186 206.146 98.0977 220.994 87.0458 235.152C64.5967 264.503 47.6736 292.818 36.6217 318.37C29.3689 335.29 24.8791 350.829 23.1522 364.295C21.7708 373.964 22.1161 382.597 23.843 389.503C24.5337 391.92 25.2245 393.646 25.9152 395.718C27.6421 399.862 29.7143 403.315 32.4773 406.422L60.4523 435.773L63.5606 438.881L63.906 438.536C64.5967 437.5 65.6328 436.464 66.669 435.773L67.0143 435.428L68.0504 434.392C68.7412 433.356 69.7773 432.666 70.468 431.63C71.1588 430.939 71.5041 430.594 72.1949 430.248C72.8856 429.903 73.231 429.213 73.9217 428.867L74.6125 428.177C75.3032 427.831 75.6486 427.141 76.3393 426.795C77.0301 426.105 78.0662 425.414 78.7569 424.724C79.1023 424.378 79.793 424.033 80.1384 423.688H80.4838C81.5199 422.997 82.2106 422.306 83.2468 421.616C83.9375 421.271 84.2829 420.925 84.9736 420.235C86.0097 419.544 86.7005 418.853 87.7366 418.163C88.4273 417.818 88.7727 417.472 89.4634 417.127C90.4995 416.436 91.5357 415.746 92.5718 415.4C93.2625 415.055 93.6079 414.71 94.2986 414.365C95.3347 413.674 96.3708 413.329 97.407 412.638C98.0977 412.293 98.4431 411.947 99.1338 411.602L99.8246 411.257C106.387 392.956 116.402 372.583 129.526 351.865C145.413 326.312 165.79 299.378 189.966 272.445C205.163 255.525 221.74 238.605 239.7 222.376C262.84 201.312 286.67 182.32 310.155 165.746C326.042 154.696 341.584 144.682 356.78 136.05C358.162 135.359 359.543 134.323 361.27 133.632C365.415 131.215 369.214 129.144 373.358 127.072C381.992 122.583 390.627 118.439 398.916 114.986L394.771 110.152L394.08 109.461L388.9 103.591L360.234 69.0606L360.579 44.1988L360.234 43.8535L380.611 37.638L419.293 57.3203Z" fill="#2F83C1"/>
<path d="M753.266 637.431C753.266 637.431 753.957 632.252 751.194 627.417C751.194 627.072 750.848 626.727 750.848 626.727L750.503 626.382L749.467 625.346C748.776 624.655 748.085 623.964 747.049 623.274C746.704 622.929 746.013 622.583 745.322 622.238C743.596 621.547 741.869 620.857 739.451 620.511C737.724 620.166 735.997 620.166 733.925 620.166H731.162V620.857C731.162 621.202 731.508 621.547 731.508 622.238C731.508 622.583 731.508 622.929 731.853 622.929C732.198 623.964 732.544 625.691 732.889 627.072C732.889 627.072 732.889 627.417 732.544 628.108V628.453C731.508 630.871 728.745 636.395 722.528 643.301C721.492 644.683 720.456 645.719 719.074 647.1C701.806 665.056 664.506 690.263 585.761 704.42C559.168 708.219 534.301 708.564 513.579 705.801C482.495 702.003 459.355 691.989 448.303 678.522C447.267 677.487 446.577 676.105 445.54 675.069C444.85 674.034 444.504 673.343 443.814 672.307C443.468 671.962 443.468 671.616 443.123 671.271C438.633 662.984 436.561 654.006 436.561 645.373C436.561 634.669 440.015 624.655 445.54 617.058C450.03 610.843 455.902 606.009 463.154 603.937C466.608 602.901 470.407 602.21 474.206 602.556C474.897 602.556 475.933 602.556 477.315 602.901C479.732 603.246 483.531 603.592 488.021 604.282C488.366 604.282 489.057 604.282 489.403 604.627C504.254 606.354 527.739 608.771 556.059 607.045C607.865 603.937 675.903 587.708 737.724 531.768V531.423C738.07 526.589 737.379 518.301 731.508 511.741C730.471 510.705 729.435 509.669 728.054 508.633C727.363 507.942 726.327 507.597 725.636 506.906C724.6 506.561 723.909 505.871 723.219 505.525L720.11 503.453V503.108C719.765 502.417 719.42 501.727 718.729 501.036C702.842 476.865 680.738 462.708 671.758 456.147C667.614 453.039 664.851 451.658 664.851 451.658C645.856 439.918 643.093 436.119 644.819 404.696C645.51 393.301 646.546 378.453 647.928 358.08C647.928 355.318 648.273 352.901 648.273 350.484V348.757V340.47C648.273 338.743 647.928 337.017 647.928 335.636C647.928 334.945 647.928 334.255 647.582 333.564C647.237 331.837 647.237 330.111 646.892 328.384C646.892 327.694 646.546 326.658 646.546 325.967C646.546 324.931 646.201 324.241 645.856 323.205C645.51 322.514 645.51 321.478 645.165 320.788C644.819 319.752 644.474 318.716 644.474 317.68C644.474 317.335 644.129 316.989 644.129 316.644C644.129 316.299 643.783 315.953 643.783 315.608V315.263L643.438 314.227C643.093 313.536 642.747 312.846 642.747 312.155V311.81L642.402 311.119L642.057 310.429C641.366 309.047 641.02 307.666 640.33 306.63L639.984 305.594C639.294 304.558 638.603 303.177 637.912 302.141L637.567 301.796L637.221 301.451C636.531 300.76 636.185 300.069 635.494 299.379L634.804 298.343C634.113 297.307 633.422 296.616 632.732 295.926L629.969 293.163C628.932 292.473 627.896 291.782 626.86 291.437C626.515 291.092 626.169 291.092 625.824 291.092L623.752 290.056C623.406 290.056 623.061 289.71 622.716 289.71C622.025 289.365 621.334 289.365 620.989 289.02C620.644 289.02 620.298 288.674 619.607 288.674C618.917 288.674 618.571 288.329 617.881 288.329H610.282C609.937 288.329 609.592 288.329 609.246 288.674C608.901 288.674 608.556 288.674 608.21 289.02C607.519 289.02 606.829 289.365 605.793 289.71H605.102C603.03 290.401 601.303 291.092 599.231 291.782L598.54 292.127C597.849 292.473 597.158 292.818 596.122 293.163L595.086 293.509L593.014 294.545L591.978 295.235L589.906 296.271L588.869 296.962C588.179 297.307 587.488 297.998 586.797 298.343L586.106 298.688C585.416 299.379 584.38 299.724 583.689 300.415L583.343 300.76C582.307 301.451 581.617 302.141 580.581 302.487C578.854 303.522 577.127 304.904 575.4 305.94C574.018 306.976 572.637 308.011 570.91 309.047L570.219 309.393C568.838 310.429 567.111 311.464 565.73 312.155L565.039 312.5C563.657 313.536 561.931 314.227 560.549 315.263L559.858 315.608C558.477 316.644 556.75 317.335 555.023 318.025L554.332 318.371C552.605 319.061 551.224 319.752 549.497 320.442L548.806 320.788C547.079 321.478 545.353 321.824 543.626 322.514H543.28C541.554 322.859 539.481 323.205 537.754 323.55C534.646 323.895 531.192 324.241 528.084 324.241C522.904 324.241 517.723 323.895 512.197 323.205L507.017 322.169C506.326 322.169 505.635 321.824 505.29 321.824C500.8 320.788 495.965 319.752 491.475 318.716C489.403 318.371 487.676 317.68 485.604 317.335C482.495 316.644 479.387 315.953 475.933 315.263C475.242 315.263 474.552 314.917 474.206 314.917C473.861 314.917 473.17 314.572 472.825 314.572C472.134 314.572 471.443 314.227 470.753 314.227C470.062 314.227 469.371 313.882 468.68 313.882H467.99C467.299 313.882 466.608 313.536 466.263 313.536C464.881 313.191 463.5 312.846 461.773 312.846C461.428 312.846 460.737 312.846 460.391 312.5C459.355 312.5 458.319 312.155 457.283 312.155C456.592 312.155 456.247 312.155 455.556 311.81C454.52 311.81 453.829 311.464 452.793 311.464H436.906C435.179 311.464 433.798 311.81 432.071 311.81H430.69C429.653 311.81 428.617 312.155 427.581 312.155H427.236C426.545 312.155 426.2 312.5 425.509 312.5C424.473 312.846 423.437 312.846 422.401 313.191C421.71 313.191 421.019 313.536 420.674 313.536C419.638 313.882 418.602 314.227 417.565 314.227C416.875 314.227 416.529 314.572 415.839 314.917C414.803 315.263 413.421 315.608 412.385 315.953C411.694 316.299 411.349 316.299 411.003 316.644C409.277 317.335 407.55 318.025 406.168 318.716C393.044 326.313 381.647 336.672 373.013 348.412C369.904 352.556 367.141 356.699 364.724 360.843C361.961 365.332 359.889 370.166 357.816 375C357.126 376.382 356.78 377.763 356.089 379.144C355.399 381.561 354.363 383.978 353.672 386.395C353.672 386.741 353.672 387.086 353.327 387.086C352.636 389.848 351.945 392.611 351.254 395.719C350.564 398.826 350.218 401.589 349.873 404.696C349.527 406.423 349.527 407.804 349.527 409.531C349.182 414.02 349.182 418.163 349.527 422.652V423.688C349.527 424.724 349.527 425.76 349.873 427.141C350.218 430.249 350.564 433.357 351.254 436.464C351.6 437.5 351.945 438.536 351.945 439.918C352.29 440.953 352.29 441.989 352.636 443.025C354.708 450.967 357.816 458.219 361.615 464.434C375.776 488.951 399.261 503.799 416.529 511.741C423.091 514.503 429.999 517.266 437.252 519.683L436.561 520.373C435.179 520.719 433.798 521.064 432.071 521.409C429.653 522.1 426.545 523.136 423.437 524.172C419.983 525.208 415.839 526.934 411.694 528.661C400.642 533.15 388.209 539.71 377.157 548.688C375.776 549.724 374.394 551.105 373.013 552.141C370.595 554.213 368.523 556.285 366.451 558.702L365.76 559.393L364.724 560.429C364.033 561.464 362.997 562.155 362.306 563.191L361.27 564.227C360.234 565.608 359.198 566.989 358.507 568.371C357.471 569.752 356.78 571.133 355.744 572.514C349.182 583.909 345.383 597.721 346.419 614.296V613.605C346.419 613.26 346.419 612.915 346.764 612.569V612.224C346.764 611.879 347.11 611.534 347.11 610.843V610.498C347.11 610.152 347.455 609.462 347.455 608.771C347.455 608.081 347.801 607.735 348.146 607.045V606.699C348.491 606.009 348.491 605.318 348.837 604.627V604.282C349.182 603.592 349.182 602.901 349.527 602.21V601.865C349.873 601.174 350.218 600.484 350.564 599.448L350.909 599.103C351.254 598.412 351.6 597.376 352.29 596.685C352.981 595.304 353.672 594.268 354.363 592.887C354.708 592.542 355.053 591.851 355.399 591.506L355.744 591.161L357.816 588.053C358.507 587.362 359.198 586.326 359.889 585.636L360.579 584.945C361.27 584.254 361.615 583.564 362.306 583.219L362.997 582.528C363.688 581.837 364.724 581.147 365.414 580.111C365.414 580.111 350.564 613.951 357.126 640.539V640.194V639.503V638.467V637.086V635.359C357.126 634.669 357.126 633.978 357.471 633.288C357.471 632.597 357.471 631.906 357.816 631.216V630.871C357.816 630.18 358.162 629.144 358.162 628.453V627.763C358.507 626.727 358.507 626.036 358.852 625V624.655C359.198 623.619 359.543 622.583 359.543 621.893C359.543 621.547 359.889 621.202 359.889 620.857L360.234 620.166C360.579 619.476 360.925 618.44 361.27 617.749C361.615 616.713 362.306 615.677 362.997 614.641C362.997 614.296 363.342 613.951 363.342 613.951L365.414 610.843C365.414 610.843 364.724 619.13 364.724 629.144C364.724 630.871 364.724 632.252 365.069 633.978C365.069 635.014 365.069 636.05 365.414 637.086C365.069 643.992 365.069 650.898 365.76 658.15C366.796 670.235 369.904 683.357 375.085 696.824C375.085 696.824 370.25 681.285 377.157 665.746L379.229 669.89C379.92 674.379 380.611 680.94 381.992 688.191C383.374 700.277 388.9 736.534 413.766 761.741C413.766 761.741 404.441 749.655 405.823 734.116C406.859 736.188 407.895 737.915 408.586 739.641C412.73 747.583 421.019 762.086 430.344 772.445C430.344 772.445 423.091 758.288 424.818 755.18C424.818 755.18 448.994 785.221 456.592 787.984L446.577 771.409L446.231 771.064C481.114 796.616 529.466 805.94 588.869 789.365C599.231 786.603 609.592 782.804 620.644 778.315C627.206 775.553 633.768 772.1 640.33 768.647L641.366 767.956C645.856 765.539 650.345 762.777 654.835 760.014C658.289 757.942 661.743 755.525 664.851 753.453C670.377 749.655 675.903 745.511 681.429 741.022C681.774 740.677 682.12 740.332 682.465 740.332C687.645 735.843 692.826 731.009 697.316 726.174C703.532 719.614 709.058 713.053 713.894 706.492L714.239 706.147C715.62 704.42 716.657 703.039 717.693 701.313L718.038 700.967C718.383 700.277 718.729 699.931 719.074 699.241C720.801 696.824 722.183 694.752 723.909 692.335C724.255 691.644 724.6 691.299 724.945 690.608C725.636 689.227 726.327 688.191 727.363 686.81C728.054 685.774 728.399 685.083 729.09 684.047C729.781 683.011 730.471 681.975 730.817 680.94C731.853 679.213 732.889 677.141 733.925 675.415L734.961 673.343L737.033 669.199L738.07 667.127L738.415 666.437C739.106 664.71 740.142 662.984 740.833 661.257V660.912C743.941 658.15 746.013 655.387 748.085 652.97C748.431 652.625 748.776 652.279 748.776 651.934C751.884 647.445 753.266 642.266 753.266 637.431ZM194.801 549.379C193.765 549.724 192.729 551.105 191.348 552.832C191.002 553.522 190.312 554.213 189.966 555.249C186.858 561.119 184.095 569.406 184.095 569.406C184.44 566.644 184.786 563.882 184.786 561.119V560.083C185.131 557.321 185.476 554.213 185.822 551.451V550.415C186.167 546.962 186.858 543.854 187.549 540.746C187.549 540.401 187.549 540.056 187.894 539.365V539.02C187.894 538.674 187.894 538.329 188.239 537.984C188.239 537.293 188.585 536.948 188.585 536.257C188.93 533.84 189.621 531.423 189.966 529.006C190.312 526.934 190.657 524.862 191.002 523.136V522.445C191.002 522.1 191.002 521.755 191.348 521.755V521.064C191.348 520.719 191.693 520.028 191.693 519.683C191.693 519.337 191.693 518.992 192.038 518.647C192.038 517.956 192.384 517.266 192.384 516.92C192.384 516.575 192.729 515.884 192.729 515.539C192.729 514.848 193.074 514.158 193.074 513.813C193.074 513.467 193.074 513.122 193.42 512.777C193.42 512.431 193.42 512.086 193.765 512.086C193.765 511.395 194.111 511.05 194.111 510.705V509.669L193.42 510.359C192.729 510.705 192.384 511.395 191.693 511.741L191.002 512.431C190.312 513.122 189.621 513.813 189.275 514.503L188.93 514.848L186.858 517.956L186.512 518.301C186.512 518.647 186.167 518.647 186.167 518.992L185.131 521.064V521.755C184.786 522.79 184.095 523.826 183.749 524.862C182.713 527.625 181.677 530.387 180.986 532.804C180.641 533.495 180.641 534.531 180.296 534.876C179.95 536.257 179.605 537.639 179.605 537.984C179.605 536.948 179.605 536.257 179.95 535.221C179.95 533.495 180.296 531.423 180.296 529.696C180.296 528.315 180.641 526.589 180.986 525.208C180.986 524.862 180.986 524.172 181.332 523.826C181.332 523.136 181.677 522.445 181.677 521.755C181.677 521.064 182.023 520.373 182.023 519.683V518.647C182.023 517.956 182.368 516.92 182.368 516.23V514.503V513.813C182.368 513.467 182.368 513.122 182.713 512.777C183.059 511.741 183.404 510.359 183.404 509.324V508.978C183.749 508.288 183.749 507.252 184.095 506.561V506.216C184.44 504.489 185.131 502.763 185.476 501.036V500.346C185.476 500 185.476 499.655 185.822 499.31C186.512 496.547 187.549 493.785 188.239 491.368V491.022C188.93 488.951 189.966 486.534 190.657 484.462V484.116C191.002 483.08 191.348 482.39 191.693 481.354C192.384 479.973 192.729 478.592 193.42 477.21C193.42 476.865 193.765 476.174 194.456 474.793C194.801 474.448 194.801 473.757 195.147 473.412C195.492 472.721 195.837 472.031 196.183 470.995L196.528 470.304C196.183 469.959 195.492 469.959 195.147 469.614H194.801L194.111 469.268C191.002 467.887 187.549 466.506 184.095 465.47H183.404C180.986 464.779 178.914 464.434 176.497 464.089C175.115 464.089 173.734 463.743 172.352 463.743H168.899C167.172 463.743 165.445 464.089 163.718 464.089C163.027 464.089 162.682 464.089 161.991 464.434C161.3 464.434 160.264 464.779 159.573 464.779C159.228 464.779 158.883 464.779 158.537 465.125C157.847 465.125 157.501 465.47 156.811 465.47C155.774 465.815 154.393 466.161 153.357 466.506C153.011 466.506 152.321 466.851 151.975 466.851C150.594 467.542 148.867 467.887 147.486 468.578C146.795 468.923 146.449 469.268 145.759 469.268L143.686 470.304L142.996 470.65C142.305 470.995 141.614 471.34 140.923 472.031C140.233 472.376 139.542 472.721 138.851 473.412C138.161 473.757 137.47 474.448 136.779 474.793C136.434 475.138 135.743 475.484 135.398 475.829C134.361 476.865 132.98 477.901 131.944 478.937L130.217 480.663C129.181 481.699 128.49 482.735 127.454 483.771L127.109 484.116C126.763 484.807 126.073 485.152 125.727 485.843L124.691 486.879C122.964 489.296 121.237 492.058 119.856 494.821C119.51 495.166 119.51 495.511 119.165 495.857C118.474 497.238 118.129 498.619 117.438 500C117.093 500.691 117.093 501.036 116.748 501.727C116.402 503.108 115.711 504.489 115.366 506.216V507.597C115.021 508.633 115.021 509.669 114.675 510.705C114.675 511.395 114.675 511.741 114.33 512.431C114.33 513.122 114.33 513.467 113.985 514.158V515.539C113.985 517.266 113.639 518.992 113.985 520.719C113.985 522.1 113.985 523.481 114.33 524.862V525.553C114.33 526.243 114.675 526.934 114.675 527.625C115.021 530.387 115.711 532.804 116.402 535.567C117.093 537.639 117.784 539.365 118.474 541.092C119.856 544.545 121.583 547.652 123.655 550.76C127.799 556.976 133.325 562.5 139.887 566.644C143.341 569.061 147.486 570.788 151.63 572.169C155.429 573.55 159.573 574.586 164.063 574.931C165.099 574.931 166.136 575.277 166.826 575.277H171.316C172.698 575.277 174.079 574.931 175.461 574.931C176.151 574.931 177.187 574.931 177.878 574.586C179.95 574.241 181.677 573.895 183.749 573.55H184.095C184.786 573.205 185.476 573.205 186.512 572.859C188.93 572.169 191.348 571.133 193.42 570.097L193.765 569.752C194.456 569.406 195.147 569.061 195.492 569.061C194.456 563.191 193.42 556.976 193.074 550.76C194.801 550.069 194.801 549.724 194.801 549.379Z" fill="#FCE9CD"/>
<path d="M732.198 623.273C732.198 622.928 732.198 622.583 731.853 622.583C731.507 621.892 731.507 621.547 731.507 621.201C729.781 615.677 727.708 611.533 725.636 608.425C723.218 604.627 721.146 602.555 721.146 602.555L722.182 598.411C722.528 596.685 722.873 594.958 722.873 593.232C724.255 580.801 721.146 571.132 718.383 565.608C718.038 564.572 717.693 563.881 717.347 563.19C715.275 564.572 713.548 565.953 711.476 567.334C674.176 592.541 632.386 608.771 587.142 615.677C556.059 620.511 523.249 620.856 489.057 616.713L489.748 617.058C489.748 617.058 469.026 619.82 463.5 639.503L463.845 639.848L462.118 652.969C462.809 670.925 470.752 681.975 480.077 687.845C489.748 691.643 501.49 694.406 514.615 696.132C537.064 698.895 563.312 698.204 589.56 694.061C624.788 689.226 674.521 670.58 710.094 646.409C718.038 640.884 725.636 635.014 731.853 629.143L732.198 628.798L732.543 628.453C732.543 626.036 732.198 624.655 732.198 623.273Z" fill="white"/>
<path d="M664.851 452.693C645.855 440.953 643.092 437.155 644.819 405.732C645.51 394.337 646.546 379.489 647.928 359.116C647.928 356.354 648.273 353.937 648.273 351.519V349.793V341.506C648.273 339.779 647.928 338.053 647.928 336.671C647.928 335.981 647.928 335.29 647.582 334.6C647.237 332.873 647.237 331.147 646.891 329.42C646.891 328.729 646.546 327.693 646.546 327.003C646.546 325.967 646.201 325.276 645.855 324.24C645.51 323.55 645.51 322.514 645.165 321.823C642.402 317.68 639.293 314.227 635.494 311.119L634.803 310.428L634.113 310.083H633.767C633.077 309.738 632.731 309.392 632.04 309.047C631.35 308.702 630.659 308.356 630.314 308.011C624.788 304.558 618.226 302.486 611.664 301.45C607.865 300.76 604.065 300.76 600.266 300.76C598.539 300.76 596.467 301.105 594.74 301.105C589.905 301.796 585.07 302.832 579.889 304.213C578.163 305.249 576.436 306.63 574.709 307.666C573.327 308.702 571.946 309.738 570.219 310.774L569.528 311.119C568.147 312.155 566.42 313.191 565.039 313.881L564.348 314.227C562.966 315.263 561.239 315.953 559.858 316.989L559.167 317.334C557.786 318.37 556.059 319.061 554.332 319.751L553.641 320.097C551.914 320.787 550.533 321.478 548.806 322.169L548.115 322.514C546.388 323.205 544.662 323.55 542.935 324.24H542.589C540.863 324.586 538.79 324.931 537.063 325.276C533.955 325.622 530.501 325.967 527.393 325.967C522.213 325.967 517.032 325.622 511.506 324.931L506.326 323.895C505.635 323.895 504.944 323.55 504.599 323.55C500.109 322.514 495.274 321.478 490.784 320.442C488.712 320.097 486.985 319.406 484.912 319.061C481.804 318.37 478.696 317.68 475.242 316.989C474.551 316.989 473.861 316.644 473.515 316.644C470.752 316.644 467.989 316.989 465.572 317.334H464.881C456.937 318.37 449.339 320.097 441.396 322.859C441.05 322.859 440.705 323.205 440.014 323.205C438.633 323.55 437.597 324.24 436.215 324.586C434.488 325.276 433.107 325.967 431.38 326.658C419.983 331.492 409.276 338.398 398.915 347.03C394.771 350.484 390.972 354.282 387.173 358.08C381.647 363.95 376.811 370.166 372.322 376.727C371.976 377.072 371.976 377.417 371.631 377.763C369.213 381.216 367.141 385.014 365.414 388.467C364.723 389.848 364.033 391.229 363.342 392.265V392.611C361.27 397.1 359.543 401.243 358.161 405.732C358.161 406.077 358.161 406.423 357.816 406.423C357.471 407.113 357.471 407.804 357.125 408.495C356.435 410.566 355.744 412.638 355.398 414.71C354.708 416.782 354.362 418.854 354.017 421.271C354.017 421.616 353.672 422.307 353.672 422.652C353.326 424.033 353.326 425.414 352.981 426.45C352.29 431.285 351.945 436.119 351.599 440.953V444.406C353.672 452.348 356.78 459.6 360.579 465.815C374.739 490.332 398.224 505.18 415.493 513.122C422.055 515.884 428.962 518.646 436.215 521.064L436.561 521.409L436.906 521.064C437.942 520.373 438.633 519.682 439.669 518.992C440.014 518.647 440.36 518.647 440.705 518.301L443.813 516.229C444.159 515.884 444.504 515.884 444.849 515.539L447.958 513.467C448.303 513.122 448.649 513.122 448.994 512.776C450.03 512.086 451.066 511.395 452.448 510.704C452.793 510.359 453.138 510.359 453.484 510.014C454.52 509.323 455.901 508.633 456.937 507.942C457.283 507.597 457.628 507.597 457.974 507.251C459.01 506.561 460.391 505.87 461.427 505.18C461.773 504.834 462.463 504.834 462.809 504.489C463.845 503.798 465.226 503.108 466.262 502.417C466.608 502.072 467.299 501.727 467.644 501.727C468.68 501.036 470.062 500.345 471.443 499.655C472.134 499.309 472.479 498.964 473.17 498.964C474.551 498.274 475.588 497.583 476.969 497.238C477.66 496.892 478.005 496.547 478.696 496.547C480.077 495.856 481.113 495.511 482.495 494.821L484.567 493.785C485.949 493.094 486.985 492.749 488.366 492.058C489.057 491.713 489.748 491.367 490.784 491.022C492.165 490.677 493.201 489.986 494.583 489.641C495.274 489.296 496.31 488.95 497 488.605C498.382 488.26 499.418 487.569 500.8 487.224C501.836 486.879 502.526 486.533 503.563 486.188C504.944 485.843 505.98 485.152 507.362 484.807L510.47 483.771C511.506 483.426 512.888 483.08 513.924 482.39C514.96 482.044 516.341 481.699 517.377 481.354C518.413 481.008 519.795 480.663 520.831 480.318C522.213 479.973 523.594 479.627 524.63 479.282C525.666 478.937 526.702 478.591 528.084 478.246C529.465 477.901 530.847 477.555 532.574 476.865C533.264 476.519 533.955 476.519 534.646 476.174C540.172 462.017 557.095 426.796 585.761 422.997C588.869 422.652 591.632 422.307 594.395 422.307H596.467C596.122 420.235 595.777 418.163 595.777 415.746C594.74 400.553 599.576 387.776 606.138 387.431C611.318 387.086 615.463 394.682 616.153 397.1C618.226 401.589 619.607 407.459 619.952 414.019C620.298 419.89 619.607 425.414 618.571 430.249C619.262 430.939 619.607 431.63 620.298 431.975C626.86 440.263 627.896 451.312 627.551 459.6C629.968 459.254 632.731 459.254 635.494 458.909C636.185 458.909 636.876 458.909 637.566 458.564H638.948C642.056 458.218 645.51 457.873 648.964 457.873C656.562 457.182 664.16 456.837 672.103 456.492C667.614 454.075 664.851 452.693 664.851 452.693ZM737.033 665.401C724.6 676.45 711.476 685.428 698.352 692.68C691.79 696.133 685.228 699.24 679.011 702.003C664.851 708.218 651.381 712.362 639.293 715.47C612.7 722.03 594.395 722.031 594.395 722.031C608.901 729.973 627.205 729.973 639.639 728.937C648.273 728.246 654.144 726.519 654.144 726.519C653.799 731.699 653.108 736.533 652.417 741.367C651.381 746.547 650 751.036 648.273 755.18V755.525C646.201 760.705 643.438 765.194 640.675 769.337C640.329 769.682 639.984 770.373 639.639 770.718L640.675 770.028C645.165 767.611 649.654 764.848 654.144 762.086C657.598 760.014 661.052 757.597 664.16 755.525C669.686 751.727 675.212 747.583 680.738 743.094C681.083 742.749 681.428 742.403 681.774 742.403C686.954 737.914 692.135 733.08 696.625 728.246C702.841 721.685 708.367 715.124 713.203 708.564L713.548 708.218C714.929 706.492 715.966 705.111 717.002 703.384L717.347 703.039C717.692 702.348 718.038 702.003 718.383 701.312C720.11 698.895 721.491 696.823 723.218 694.406C723.564 693.716 723.909 693.37 724.254 692.68C724.945 691.298 725.636 690.263 726.672 688.881C727.363 687.845 727.708 687.155 728.399 686.119C729.09 685.083 729.78 684.047 730.126 683.011C731.162 681.285 732.198 679.213 733.234 677.486L734.27 675.414L736.342 671.271L737.379 669.199L737.724 668.508C738.415 666.782 739.451 665.055 740.142 663.329C738.76 663.674 738.069 664.365 737.033 665.401ZM422.055 526.243C418.601 527.279 414.457 529.006 410.312 530.732C399.261 535.221 386.827 541.782 375.775 550.76C374.394 551.796 373.012 553.177 371.631 554.213C369.213 556.285 367.141 558.356 365.069 560.774L364.378 561.464L363.342 562.5C362.651 563.536 361.615 564.227 360.924 565.263L359.888 566.298C358.852 567.68 357.816 569.061 357.125 570.442C356.089 571.823 355.398 573.204 354.362 574.586C347.8 585.981 344.001 599.793 345.037 616.367V615.677C345.037 615.332 345.037 614.986 345.383 614.641V614.296C345.383 613.95 345.728 613.605 345.728 612.914V612.569C345.728 612.224 346.073 611.533 346.073 610.843C346.073 610.152 346.419 609.807 346.764 609.116V608.771C347.11 608.08 347.11 607.39 347.455 606.699V606.354C347.8 605.663 347.8 604.972 348.146 604.282V603.937C348.491 603.246 348.836 602.555 349.182 601.519L349.527 601.174C349.872 600.484 350.218 599.448 350.909 598.757C351.599 597.376 352.29 596.34 352.981 594.959C353.326 594.613 353.672 593.923 354.017 593.577L354.362 593.232L356.435 590.124C357.125 589.434 357.816 588.398 358.507 587.707L359.198 587.017C359.888 586.326 360.234 585.635 360.924 585.29L361.615 584.6C362.306 583.909 363.342 583.218 364.033 582.182C364.033 582.182 349.182 616.022 355.744 642.611V642.265V641.575V640.539V639.158V637.431C355.744 636.74 355.744 636.05 356.089 635.359C356.089 634.669 356.089 633.978 356.435 633.287V632.942C356.435 632.251 356.78 631.216 356.78 630.525V629.834C357.125 628.798 357.125 628.108 357.471 627.072V626.727C357.816 625.691 358.161 624.655 358.161 623.964C358.161 623.619 358.507 623.274 358.507 622.928L358.852 622.238C359.198 621.547 359.543 620.511 359.888 619.821C360.234 618.785 360.924 617.749 361.615 616.713C361.615 616.368 361.96 616.022 361.96 616.022L364.033 612.914C364.033 612.914 363.342 621.202 363.342 631.216C363.342 632.942 363.342 634.323 363.687 636.05C363.687 637.086 363.687 638.122 364.033 639.158C364.723 628.453 366.796 618.439 369.559 609.116C370.249 606.699 371.285 603.937 371.976 601.519C371.976 601.174 372.322 600.829 372.322 600.484C373.358 598.066 374.048 595.995 375.085 593.577C375.43 593.232 375.43 592.887 375.775 592.196C376.811 590.124 377.848 587.707 378.884 585.635C379.229 585.29 379.229 584.945 379.229 584.6C381.647 580.111 384.064 575.967 386.482 572.169C386.827 571.823 386.827 571.478 387.173 571.133C388.209 569.751 389.245 568.37 390.281 566.644C390.626 566.298 390.626 565.953 390.972 565.608C391.317 565.263 391.317 564.917 391.662 564.572C393.044 562.845 394.08 561.119 395.461 559.392C395.807 559.047 395.807 558.702 396.152 558.702C397.534 556.975 398.915 555.249 400.297 553.867C402.024 551.796 403.75 550.069 405.477 547.997C406.859 546.616 407.895 545.235 409.276 544.199L410.658 542.818C413.421 540.055 416.184 537.293 418.947 534.876C426.545 527.97 432.762 523.481 434.834 522.1C433.452 522.445 432.071 522.79 430.344 523.135C428.272 524.171 425.509 525.207 422.055 526.243Z" fill="#F2D2AC"/>
<path d="M620.989 451.312C620.989 451.312 620.989 450.622 620.643 449.241C619.262 444.406 614.427 432.666 595.431 434.393C575.4 436.464 568.492 452.694 566.766 458.218C566.42 459.254 566.42 459.945 566.42 459.945L567.111 460.29C569.528 458.218 574.364 458.218 578.854 461.326C580.926 462.707 582.307 464.089 583.689 465.815C585.416 468.578 585.761 471.34 584.725 473.412L583.689 474.448C583.689 474.448 584.379 474.793 585.761 475.138C591.287 476.865 606.829 479.973 615.117 469.268C615.463 468.578 615.808 468.232 616.154 467.542C614.427 466.851 613.736 464.434 613.736 461.326C613.736 459.945 614.081 458.564 614.427 456.837C615.463 452.694 618.571 450.276 620.989 451.312ZM521.177 599.102C508.052 601.865 496.655 603.937 488.021 605.318C488.366 605.318 489.057 605.318 489.402 605.663C504.253 607.39 527.739 609.807 556.059 608.08C607.865 604.973 675.903 588.743 737.724 532.804V532.459C738.07 527.625 737.379 519.337 731.507 512.776C730.471 511.741 729.435 510.705 728.054 509.669C727.708 509.669 727.708 509.323 727.363 509.323C725.636 508.288 724.255 507.597 722.873 506.561L719.765 504.489V504.144C715.966 509.669 711.476 514.848 706.641 519.683C704.914 521.409 703.187 523.136 701.115 524.862C684.192 540.055 662.088 553.177 638.257 563.536C598.885 580.801 554.678 592.196 521.177 599.102ZM193.765 508.978C193.074 509.323 192.729 510.014 192.038 510.359L191.347 511.05C190.657 511.741 189.966 512.431 189.621 513.122L189.275 513.467L187.203 516.575L186.858 516.92C186.858 517.265 186.512 517.265 186.512 517.611L185.476 519.683V520.373C185.131 521.409 184.44 522.445 184.095 523.481C183.059 526.243 182.022 529.006 181.332 531.423C180.986 532.113 180.986 533.149 180.641 533.495C180.296 534.876 179.95 536.257 179.95 536.602C179.95 535.567 179.95 534.876 180.296 533.84C180.296 532.114 180.641 530.042 180.641 528.315C180.641 526.934 180.986 525.207 181.332 523.826C181.332 523.481 181.332 522.79 181.677 522.445C181.677 521.754 182.022 521.064 182.022 520.373C182.022 519.683 182.368 518.992 182.368 518.301V517.265C182.368 516.575 182.713 515.539 182.713 514.848V513.122V512.431C182.713 512.086 182.713 511.741 183.059 511.395C183.404 510.359 183.749 508.978 183.749 507.942V507.597C184.095 506.906 184.095 505.87 184.44 505.18V504.834C184.785 503.108 185.476 501.381 185.822 499.655V498.964C185.822 498.619 185.822 498.274 186.167 497.928C186.858 495.166 187.894 492.404 188.585 489.986V489.641C189.275 487.569 190.311 485.152 191.002 483.08V482.735C191.347 481.699 191.693 481.009 192.038 479.973C192.729 478.591 193.074 477.21 193.765 475.829C193.765 475.484 194.11 474.793 194.801 473.412C195.147 473.067 195.147 472.376 195.492 472.031C195.837 471.34 196.183 470.649 196.528 469.613L196.873 468.923C196.528 468.578 195.837 468.578 195.492 468.232H195.147L194.456 467.887C191.347 466.506 187.894 465.125 184.44 464.089H183.749C181.332 463.398 179.26 463.053 176.842 462.707C175.46 462.707 174.079 462.362 172.697 462.362H169.244C167.517 462.362 165.79 462.707 164.063 462.707C163.372 462.707 163.027 462.707 162.336 463.053C161.646 463.053 160.609 463.398 159.919 463.398C159.573 463.398 159.228 463.398 158.883 463.743C158.192 463.743 157.847 464.089 157.156 464.089C156.12 464.434 154.738 464.779 153.702 465.125C153.357 465.125 152.666 465.47 152.321 465.47C150.939 466.16 149.212 466.506 147.831 467.196C147.14 467.542 146.795 467.887 146.104 467.887L144.032 468.923L143.341 469.268C142.65 469.613 141.959 469.959 141.269 470.649C140.578 470.995 139.887 471.34 139.196 472.031C138.506 472.376 137.815 473.067 137.124 473.412C136.779 473.757 136.088 474.102 135.743 474.448C134.707 475.484 133.325 476.52 132.289 477.555L130.562 479.282C129.526 480.318 128.835 481.354 127.799 482.39L127.454 482.735C127.109 483.426 126.418 483.771 126.072 484.462L125.036 485.497C123.309 487.915 121.583 490.677 120.201 493.439C119.856 493.785 119.856 494.13 119.51 494.475C118.82 495.857 118.474 497.238 117.784 498.619C117.438 499.31 117.438 499.655 117.093 500.346C117.093 500.691 117.438 501.036 117.438 501.381C117.784 502.763 118.129 503.799 118.474 505.18V505.87C118.82 506.906 119.51 508.288 119.856 509.323C121.237 512.776 122.619 515.884 124.346 518.647C124.691 518.992 124.691 519.337 125.036 519.683V520.028L125.382 520.373C126.418 522.445 127.454 524.172 128.49 525.553C130.217 527.97 131.598 529.696 132.634 531.078L133.325 531.768C133.325 532.114 133.671 532.114 133.671 532.114L134.361 532.804C134.361 532.114 134.016 531.423 134.016 531.078C132.98 526.589 132.634 522.445 132.634 517.956V517.265C132.634 514.503 132.634 511.741 132.98 509.323L134.016 512.431C134.361 513.812 135.052 515.194 135.397 516.575V517.265C137.47 523.136 139.887 527.97 142.305 531.768C145.068 536.602 147.485 539.71 149.212 541.782C149.558 542.127 149.903 542.473 149.903 542.818L150.594 543.509C149.558 538.674 148.867 534.185 148.867 529.696V525.207C148.867 523.136 148.867 521.409 149.212 519.683C149.903 522.79 150.939 525.898 151.975 528.66V529.006C155.774 539.02 160.264 546.271 163.372 550.76L163.718 551.105C164.409 551.796 164.754 552.486 165.099 553.177C165.445 553.522 165.79 553.868 165.79 554.213L166.481 554.904L166.826 555.249V554.558C166.826 553.868 166.481 553.177 166.481 552.486C166.135 550.069 165.79 547.652 165.445 545.58C165.445 544.199 165.099 542.473 165.099 541.091V536.948V536.257V533.495C165.099 531.768 165.445 529.696 165.445 527.97C165.79 529.006 166.135 530.387 166.481 531.423C166.826 532.113 167.172 533.149 167.517 533.84V534.185L167.862 534.531C168.208 535.567 168.553 536.602 168.898 537.293C169.589 539.02 170.28 540.746 171.316 542.127C172.352 544.199 173.043 545.926 174.079 547.307C174.77 548.343 175.115 549.033 175.46 549.724C176.151 550.76 176.842 551.796 177.187 552.486C177.878 553.177 178.223 553.868 178.569 554.558L178.914 554.904C179.26 555.594 179.95 555.939 180.296 556.63C180.641 556.975 180.986 557.321 180.986 557.666C181.677 558.357 182.022 559.047 182.368 559.047L182.713 559.393V558.357C183.059 555.594 183.404 552.486 183.749 549.724V548.688C184.095 545.235 184.785 542.127 185.476 539.02C185.476 538.674 185.476 538.329 185.822 537.638V537.293C185.822 536.948 185.822 536.602 186.167 536.257C186.167 535.567 186.512 535.221 186.512 534.531C186.858 532.114 187.548 529.696 187.894 527.279C188.239 525.207 188.585 523.136 188.93 521.409V520.718C188.93 520.373 188.93 520.028 189.275 520.028V519.337C189.275 518.992 189.621 518.301 189.621 517.956C189.621 517.611 189.621 517.265 189.966 516.92C189.966 516.23 190.311 515.539 190.311 515.194C190.311 514.848 190.657 514.158 190.657 513.812C190.657 513.122 191.002 512.431 191.002 512.086C191.002 511.741 191.002 511.395 191.347 511.05C191.347 510.705 191.347 510.359 191.693 510.359C191.693 509.669 192.038 509.323 192.038 508.978V507.942L193.765 508.978ZM612.354 653.315C617.19 651.589 621.334 650.207 624.788 648.826C631.35 646.064 634.804 643.992 634.804 643.301C634.458 642.611 630.659 642.956 623.752 644.683C620.298 645.373 616.154 646.064 610.973 647.445C608.555 648.136 605.792 648.481 603.03 648.826C600.267 649.171 597.158 649.862 594.05 650.207C587.833 651.243 580.926 651.934 573.328 652.625L561.93 653.66C558.131 654.006 553.987 654.006 549.842 654.351C533.265 654.696 514.96 654.006 496.31 650.553C486.639 648.826 473.17 644.337 463.845 639.158L463.5 638.812C469.026 619.13 489.748 616.368 489.748 616.368L489.057 616.022H488.021C484.913 615.677 482.495 615.332 480.077 614.986C478.351 614.641 476.969 614.641 475.933 614.296C474.897 614.296 473.861 613.951 473.515 613.951C461.082 613.26 454.175 623.619 452.102 628.108L451.066 630.18C449.339 634.323 447.958 638.812 447.613 643.992C446.922 653.315 449.339 663.329 456.592 671.962C461.427 677.832 469.716 683.011 480.423 687.155C471.098 681.285 462.809 669.89 462.464 652.279C473.17 656.768 485.258 659.531 494.583 661.257C514.269 665.055 533.61 665.401 550.533 664.365C554.678 664.02 559.167 663.674 562.966 663.329C567.111 662.638 570.91 662.293 574.709 661.948C582.307 660.567 588.869 659.531 595.431 658.149C598.54 657.459 601.648 656.768 604.411 655.732C607.519 655.042 609.937 654.351 612.354 653.315Z" fill="#F2D2AC"/>
<path d="M596.122 422.652C606.483 422.997 613.39 426.105 618.226 430.939C619.262 426.45 619.952 420.925 619.607 414.71C619.262 408.149 617.88 402.279 615.808 397.79C615.117 395.027 610.973 387.776 605.792 388.121C599.23 388.467 594.395 401.243 595.431 416.436C595.431 418.508 595.777 420.58 596.122 422.652ZM613.39 461.671C613.39 464.433 614.427 466.851 615.808 467.886C618.226 469.268 621.334 466.505 622.715 462.016C622.715 461.671 623.061 461.326 623.061 460.98C624.097 456.837 623.061 452.693 620.643 451.657C618.226 450.276 615.117 453.038 613.736 457.527C613.736 458.909 613.39 460.29 613.39 461.671ZM566.42 469.268C567.456 470.994 569.183 472.721 571.255 474.102C575.745 476.864 580.58 477.21 583.343 474.793L584.379 473.757C585.415 471.685 585.07 468.922 583.343 466.16C582.307 464.433 580.58 462.707 578.508 461.671C574.018 458.909 569.183 458.563 566.765 460.635C566.42 460.98 566.075 461.326 565.729 462.016C564.693 463.743 565.038 466.505 566.42 469.268ZM738.069 532.458C737.724 532.458 737.724 532.458 738.069 532.458V532.458ZM732.543 628.107C725.981 634.323 718.728 640.193 710.44 645.718C674.866 669.889 625.133 688.881 589.905 693.37C563.312 697.514 537.409 698.204 514.96 695.442C501.836 693.715 490.438 690.953 480.423 687.154C469.716 683.011 461.427 677.831 456.592 671.961C449.339 663.328 447.267 652.969 447.612 643.991C447.958 639.157 448.994 634.323 451.066 630.179L452.102 628.107C454.52 623.618 461.082 612.914 473.515 613.95C473.861 613.95 474.897 613.95 475.933 614.295C476.969 614.295 478.696 614.641 480.077 614.986C482.495 615.331 484.912 615.677 488.021 616.022H489.057C523.249 620.165 556.059 619.82 587.142 614.986C632.386 608.08 674.176 591.851 711.476 566.643C713.548 565.262 715.275 563.881 717.347 562.5L737.724 532.113C675.903 588.398 607.864 604.627 556.059 607.735C527.738 609.461 504.253 607.389 489.402 605.317C488.712 605.317 488.366 605.317 488.021 604.972C483.531 604.282 480.077 603.936 477.314 603.591C475.933 603.591 474.897 603.246 474.206 603.246C470.407 602.9 466.608 603.591 463.154 604.627C456.247 606.699 450.03 611.533 445.54 617.748C440.014 625.345 436.561 635.704 436.561 646.063C436.561 654.696 438.633 663.674 443.123 671.961C443.468 672.306 443.468 672.652 443.813 672.997C444.504 674.033 444.849 674.723 445.54 675.759C446.231 676.795 447.267 678.177 448.303 679.212C459.01 692.679 482.495 702.348 513.578 706.491C534.646 709.254 559.167 708.909 585.761 705.11C664.505 690.953 701.805 665.4 719.074 647.79C720.455 646.409 721.491 645.373 722.528 643.991C728.744 636.74 731.507 631.215 732.543 629.143V628.798C732.889 628.107 732.889 627.762 732.889 627.762L732.543 628.107Z" fill="#664F44"/>
<path d="M482.149 355.318C479.732 353.937 476.969 352.901 474.206 352.21C472.479 351.865 470.752 351.519 468.68 351.174C467.989 351.174 467.298 351.174 466.608 350.829C457.282 350.138 449.339 351.52 449.339 351.52C447.612 351.865 445.885 352.21 444.504 352.901C432.07 356.699 423.436 363.26 417.219 370.857C412.384 377.072 408.931 383.633 407.204 390.194C406.858 390.884 406.858 391.229 406.858 391.92C406.513 393.647 405.822 395.373 405.477 396.754C404.441 402.279 403.75 407.113 403.75 411.257C403.75 416.782 404.095 420.235 404.095 420.235C406.168 415.401 408.585 411.257 411.003 407.113C416.874 397.1 423.091 388.812 429.653 382.252C442.086 369.475 454.865 362.569 464.535 359.116C474.896 355.663 482.149 355.318 482.149 355.318ZM631.695 337.707L631.349 337.017C629.968 335.29 628.241 333.564 626.169 332.182C621.334 329.075 614.772 327.348 605.792 329.075C605.792 329.075 595.085 331.492 588.869 338.743C588.869 338.743 607.519 330.801 627.55 344.959C629.277 346.34 631.349 347.721 633.076 349.448C634.803 351.174 636.875 352.901 638.602 355.318C638.602 355.318 637.911 346.685 632.731 339.089C632.385 338.398 632.04 338.053 631.695 337.707Z" fill="#E9B784"/>
<path d="M484.567 475.138C491.82 473.066 499.418 470.995 508.052 468.923C509.434 462.362 509.779 454.42 508.743 445.787C506.325 425.76 497.346 410.221 488.366 411.257C479.386 412.293 474.206 429.558 476.623 449.586C478.005 459.945 480.768 468.923 484.567 475.138Z" fill="#664F44"/>
<path d="M443.468 23.8262L424.818 27.9698L428.617 61.8096L379.229 36.6024L358.853 42.8179L359.198 43.1632L419.292 111.533L419.983 111.188L420.674 110.843C422.401 109.807 424.473 108.426 426.2 107.39C426.891 107.044 427.581 106.699 428.272 106.008C431.035 104.282 433.798 102.555 436.561 101.174L411.004 71.8234L452.103 91.851C453.484 91.1604 454.52 90.4698 455.902 89.7792L452.103 60.4284L470.753 82.1825H471.098C472.825 81.4919 474.206 80.456 475.933 79.7654L476.624 79.4201L477.315 79.0748C477.66 79.0748 478.005 78.7295 478.005 78.7295L480.078 77.6936C480.078 77.6936 480.423 77.6936 480.423 77.3483C482.495 76.3124 484.913 75.2765 486.985 74.2405L443.468 23.8262Z" fill="#FFD250"/>
<path d="M425.163 27.9701L427.926 27.2794C423.436 25.2076 417.91 23.8264 411.694 22.7905C399.26 21.064 383.373 22.7905 365.414 27.2794C347.455 31.7684 327.078 39.7104 305.665 50.4148C262.493 71.8237 214.832 104.628 168.553 146.755C152.32 161.257 137.469 176.451 123.654 191.299L179.604 260.36C194.801 243.785 211.033 227.21 228.992 210.981C252.823 189.227 276.999 169.89 300.83 153.315C323.969 137.086 347.109 123.274 368.868 112.224L359.197 68.0253L359.543 43.1634L359.197 42.8181L379.574 36.6027L419.292 56.9756L418.256 43.1634L425.163 27.9701Z" fill="#4D9ED7"/>
<path d="M425.163 27.9697L418.256 43.1631L419.292 57.3206L428.962 62.1548L425.163 27.9697ZM411.003 71.8233L452.447 92.1963L436.56 101.174L411.003 71.8233ZM452.447 60.4283L456.247 89.7791L471.097 82.1824L452.447 60.4283Z" fill="#132134"/>
<path d="M608.555 49.7237H616.154C623.061 49.7237 629.623 50.7597 635.84 52.1409C636.185 52.1409 636.53 52.1409 636.876 52.4862H637.221L637.912 52.8315H638.603C637.912 52.4862 637.221 51.7956 636.531 51.4503C629.623 48.6878 622.37 46.9613 614.772 45.9254C577.472 41.0911 534.646 54.9033 510.47 64.5718C509.089 65.2624 507.707 65.6077 506.326 66.2983C504.254 67.3342 502.181 68.0248 500.109 69.0608C496.655 70.442 493.202 72.1685 489.403 73.895C488.712 74.2403 488.366 74.2403 487.676 74.5856C485.603 75.6215 483.186 76.6574 481.114 77.6934C481.114 77.6934 480.768 77.6934 480.768 78.0387L478.696 79.0746C478.351 79.0746 478.005 79.4199 478.005 79.4199H476.624L476.278 79.7652C474.552 80.4558 473.17 81.1464 471.443 82.1823H471.098C470.753 82.5276 470.407 82.5276 470.062 82.8729H469.716C469.371 82.8729 469.026 83.2182 469.026 83.2182C466.608 84.5994 464.19 85.6353 461.773 87.0166C460.046 88.0525 458.319 88.7431 456.592 89.779H456.247C454.865 90.4696 453.829 91.1602 452.448 91.8508C448.303 93.9226 444.504 96.3398 440.36 98.7569C440.015 99.1022 439.669 99.1022 438.978 99.4475C438.633 99.7928 438.288 99.7928 437.942 100.138C437.597 100.483 437.252 100.483 436.906 100.829L436.561 101.174C433.798 102.901 431.035 104.282 428.272 106.008C427.581 106.354 426.89 106.699 426.2 107.389C424.473 108.425 422.401 109.807 420.674 110.843L419.983 111.188L419.292 111.533L403.751 121.892C395.116 127.762 386.827 133.633 378.539 139.848C377.502 140.539 376.466 141.575 375.43 142.265C353.672 158.494 332.95 176.105 312.918 194.061C291.85 213.398 271.474 233.08 252.478 253.108C242.117 263.467 233.137 272.79 226.23 280.387C211.724 295.925 203.781 305.594 204.126 305.939C204.126 305.939 205.508 304.903 207.925 302.486C206.199 304.558 204.126 306.975 202.399 309.047C234.174 275.207 269.056 240.677 306.701 208.218C329.496 188.536 353.326 169.544 377.848 151.934C388.554 144.337 399.606 136.74 410.658 129.489C414.112 127.072 417.911 125 421.365 122.583C423.091 121.547 424.818 120.511 426.89 119.475C427.927 118.785 428.963 118.094 429.999 117.749C432.071 116.713 433.798 115.331 435.87 114.296C437.597 113.26 439.669 112.224 441.396 110.843C442.432 110.152 443.468 109.807 444.504 109.116L451.757 104.972C453.139 104.282 454.52 103.246 455.902 102.555C460.391 100.138 464.881 97.721 469.716 95.3039C470.062 94.9585 470.407 94.9585 470.753 94.6132L472.825 93.5773C473.861 93.232 474.552 92.5414 475.588 92.1961C475.933 91.8508 476.278 91.8508 476.624 91.5055L478.696 90.4696C478.696 90.4696 479.041 90.4696 479.041 90.1243H479.387C481.459 89.0884 483.531 88.0525 485.258 87.3619C485.603 87.3619 485.949 87.0166 486.294 86.6713L488.366 85.6353C490.784 84.5994 492.856 83.5635 495.274 82.5276C495.965 82.1823 496.655 81.837 497.001 81.4917C497.346 81.4917 497.691 81.1464 498.037 81.1464C498.728 80.8011 499.418 80.4558 500.109 80.4558C502.872 79.4199 505.29 78.0387 508.053 77.0027C510.47 75.9668 512.542 74.9309 514.96 73.895C528.084 68.3701 540.172 63.8812 551.569 60.0829C572.982 54.2127 591.978 50.4143 608.555 49.7237Z" fill="white"/>
</g>
<defs>
<clipPath id="clip0_436_1765">
<rect width="774" height="875" fill="white"/>
</clipPath>
</defs>
</svg>
