<svg width="1248" height="829" viewBox="0 0 1248 829" fill="none" xmlns="http://www.w3.org/2000/svg">
<g clip-path="url(#clip0_436_1754)">
<path d="M1220.55 0.0195025C1201.29 0.638814 1207.38 6.18824 1165.78 16.4288C1123.76 26.7718 1072.44 23.5972 1027.2 42.5813C892.148 99.2459 865.05 292.905 742.275 362.278C650.502 414.134 557.91 418.27 474.668 444.368C419.961 461.529 360.116 496.722 310.552 539.455C272.082 572.629 271.078 601.805 230.877 643.421C187.884 687.929 59.9905 644.172 2.02734 712.296C20.6968 731.183 28.8861 736.474 65.6791 731.573C58.0651 746.017 13.1559 758.189 21.9447 779.44C31.1966 801.799 139.762 816.955 238.457 757.35C284.419 729.588 321.032 689.572 392.61 680.024C485.241 667.672 591.954 687.943 699.189 703.416C683.288 750.845 651.365 782.386 625.793 820.159C617.872 828.693 641.699 829.649 668.879 824.494C717.771 812.401 753.004 802.657 789.904 781.172C835.238 754.77 842.111 687.09 897.729 672.441C928.717 720.094 1013.01 731.349 1065.31 693.234C1019.41 680.238 1006.73 582.514 1022.22 539.455C1036.89 498.687 1051.39 433.489 1066.17 379.604C1082.04 321.74 1087.89 248.802 1107.09 219.324C1135.98 174.978 1167.9 159.748 1195.61 134.742C1223.33 109.73 1248.7 85.3919 1247.86 28.1665C1247.59 9.73343 1238.06 -0.536415 1220.55 0.0195025Z" fill="#002B64"/>
<path d="M41.8916 775.359C112.173 785.434 154.913 775.359 211.35 750.879C259.374 730.042 305.751 687.09 362.461 668.881C445.742 642.148 537.072 668.915 626.1 674.255C647.782 675.557 669.323 675.572 690.586 673.256C723.747 652.862 723.065 576.589 755.344 569.601C754.394 676.615 710.537 740.736 664.673 802.823C761.335 785.746 819.181 729.813 858.25 655.11C870.105 632.459 880.225 608.091 889.175 582.548C903.013 593.174 895.17 625.5 902.126 643.017C968.708 605.911 1006.83 521.236 1032.08 435.596C1061.29 336.482 1073.25 236.119 1092.09 206.792C1110.47 178.167 1139.09 160.524 1165.21 142.198C1194.89 121.361 1221.36 99.6461 1225.93 59.9468C1194.63 57.0501 1187.39 49.8037 1182.76 34.0234C1167.09 42.8596 1152.68 44.7517 1136.4 45.2393C1122.28 45.6685 1106.75 45.0394 1087.8 46.9851C931.032 63.0921 911.11 235.948 810.631 333.936C803.221 341.116 795.348 347.801 787.063 353.949C751.869 380.185 708.7 398.93 669.001 414.11C604.74 438.673 543.648 440.419 483.359 461.622C439.098 477.182 394.126 499.756 357.776 524.645C348.998 530.622 340.479 536.972 332.244 543.678C310.913 561.136 296.908 580.51 283.367 600.44C269.396 620.97 255.908 642.1 235.348 662.284C202.035 695.005 77.5586 671.827 33.7365 702.173C28.8522 705.548 24.9721 709.6 22.3301 714.467C46.2446 725.336 62.2136 718.665 89.7206 721.708C93.3278 747.822 32.9712 763.339 41.8916 775.364V775.359ZM991.652 587.254C993.524 617.21 1010.91 676.64 1026.25 691.089C996.195 698.404 944.423 686.32 931.139 665.112C937.964 634.488 973.48 606.497 991.652 587.254Z" fill="white"/>
<path d="M1035.68 111.841C1057.87 131.113 1104.44 115.645 1096.12 77.2966C1061.64 74.439 1041.66 86.1474 1035.68 111.841ZM1190.4 67.0219C1184.5 79.4081 1173.19 95.3785 1173.19 126.905C1173.15 132.318 1169.09 136.029 1169.02 127.685C1169.32 96.8659 1177.47 83.5482 1186.14 66.0417C1190.16 58.8684 1192.59 61.8284 1190.4 67.0219Z" fill="#002B64"/>
<path d="M1184.45 62.3607C1177.49 74.1764 1160.72 95.7353 1157.95 127.145C1157.44 132.528 1153.06 135.864 1153.72 127.54C1156.75 96.8764 1170.15 77.6826 1180.32 61.0002C1184.93 54.217 1187.1 57.3769 1184.45 62.3607ZM1179.03 56.1773C1171.1 67.364 1145.29 93.2531 1139.9 124.326C1138.93 129.641 1134.29 132.606 1135.65 124.365C1141.24 94.0578 1163.48 70.2362 1175.02 54.4803C1180.18 48.0921 1182.08 51.4325 1179.03 56.1773ZM1174.2 49.282C1164.78 59.2398 1134.01 92.2535 1124.31 122.254C1122.59 127.379 1117.58 129.666 1120.1 121.698C1129.88 92.4778 1156.83 61.0002 1170.46 47.0291C1176.48 41.4358 1177.88 45.0053 1174.2 49.282Z" fill="#002B64"/>
</g>
<defs>
<clipPath id="clip0_436_1754">
<rect width="1248" height="829" fill="white"/>
</clipPath>
</defs>
</svg>
