<svg width="881" height="881" viewBox="0 0 881 881" fill="none" xmlns="http://www.w3.org/2000/svg">
<path fill-rule="evenodd" clip-rule="evenodd" d="M38.8672 586.012H65.3764V480.995L106.776 572.557C111.466 583.562 118.198 587.644 131.247 587.644C144.301 587.644 150.622 583.562 155.517 572.557L196.711 480.995V586.012H223.426V480.995C223.426 470.802 219.344 465.898 210.779 463.247C190.591 457.132 177.131 462.434 171.015 476.095L130.438 566.642L91.2822 476.095C85.3679 462.438 71.702 457.137 51.3128 463.247C42.9533 465.898 38.8718 470.798 38.8718 480.995V586.012H38.8672ZM245.447 500.57H272.162V558.283C271.96 561.542 273.181 568.886 287.66 569.083C295.206 569.289 345.167 569.083 345.574 569.083V500.159H372.288V594.577C372.288 617.823 343.535 622.919 330.075 623.125H246.055V605.387H330.276C347.406 603.549 345.368 594.989 345.368 592.132V585.194H288.881C262.573 584.988 245.648 573.365 245.447 560.111C245.447 558.891 246.055 500.973 245.447 500.57ZM818.474 433.681C802.167 433.274 789.515 434.905 778.912 439.394C775.858 440.623 770.959 440.623 770.557 444.494C772.188 446.117 772.385 448.772 773.815 451.021C776.261 455.103 780.548 460.601 784.419 463.458C788.706 466.726 792.989 469.984 797.468 472.841C805.421 477.731 814.393 480.588 822.14 485.483C826.628 488.34 831.112 492.01 835.6 495.072C837.84 496.704 839.27 499.359 842.127 500.374V499.757C840.701 497.929 840.289 495.278 838.868 493.23C836.825 491.196 834.786 489.354 832.743 487.32C826.834 479.368 819.489 472.43 811.532 466.726C805.005 462.237 790.731 456.122 788.08 448.576L787.678 448.165C792.157 447.753 797.463 446.122 801.746 444.897C808.684 443.068 815.001 443.471 822.135 441.638C825.403 440.82 828.662 439.8 831.93 438.781V436.948C828.26 433.278 825.609 428.383 821.738 424.919C811.34 415.947 799.913 407.176 788.085 399.836C781.764 395.759 773.605 393.103 766.882 389.643C764.427 388.418 760.355 387.806 758.929 385.767C755.25 381.284 753.216 375.37 750.565 370.063C744.655 358.847 738.942 346.411 733.846 334.582C730.176 326.629 727.927 318.676 723.448 311.336C702.442 276.669 679.598 255.662 644.524 235.067C636.982 230.785 628.01 228.948 618.421 226.708C613.325 226.502 608.229 226.095 603.128 225.89C599.861 224.464 596.602 220.588 593.745 218.751C582.122 211.41 552.144 195.505 543.574 216.506C538.067 229.761 551.733 242.81 556.422 249.542C559.896 254.232 564.375 259.534 566.829 264.835C568.251 268.3 568.657 271.975 570.088 275.645C573.347 284.617 576.409 294.608 580.692 302.972C582.931 307.255 585.376 311.743 588.233 315.619C589.865 317.863 592.721 318.882 593.329 322.552C590.473 326.634 590.276 332.749 588.644 337.85C581.299 360.895 584.156 389.442 594.554 406.367C597.822 411.463 605.569 422.679 615.972 418.397C625.149 414.726 623.106 403.104 625.757 392.907C626.374 390.461 625.963 388.83 627.183 387.198V387.605C630.04 393.313 632.896 398.821 635.547 404.53C641.868 414.521 652.883 424.923 662.061 431.857C666.952 435.527 670.827 441.853 676.943 444.092V443.475H676.541C675.316 441.647 673.478 440.829 671.847 439.398C668.176 435.728 664.099 431.24 661.243 427.163C652.682 415.746 645.141 403.099 638.408 390.05C635.141 383.729 632.284 376.795 629.642 370.474C628.408 368.025 628.408 364.354 626.374 363.134C623.312 367.618 618.833 371.498 616.58 377.001C612.704 385.767 612.302 396.577 610.875 407.793C610.053 407.999 610.464 407.793 610.053 408.2C603.535 406.573 601.286 399.84 598.841 394.132C592.726 379.652 591.702 356.406 597.004 339.683C598.43 335.4 604.554 321.94 602.109 317.863C600.875 313.987 596.807 311.748 594.559 308.685C591.908 304.809 589.06 299.919 587.223 295.636C582.332 284.215 579.887 271.572 574.581 260.151C572.126 254.849 567.848 249.341 564.379 244.451C560.504 238.943 556.23 235.067 553.168 228.545C552.149 226.301 550.723 222.631 552.354 220.186C552.756 218.554 553.579 217.942 555.202 217.535C557.853 215.291 565.403 218.147 568.054 219.368C575.595 222.425 581.917 225.282 588.238 229.56C591.094 231.598 594.156 235.474 597.827 236.498H602.114C608.641 237.924 615.976 236.905 622.092 238.738C632.901 242.207 642.687 247.303 651.462 252.81C678.172 269.735 700.202 293.799 715.084 322.552C717.529 327.242 718.548 331.524 720.797 336.419C725.084 346.415 730.386 356.607 734.66 366.398C738.947 375.982 743.024 385.772 749.139 393.725C752.201 398.007 764.432 400.247 769.94 402.491C774.021 404.324 780.338 405.96 784.017 408.2C790.946 412.482 797.879 417.377 804.406 422.067C807.665 424.507 817.866 429.604 818.474 433.681Z" fill="#00678C"/>
<path fill-rule="evenodd" clip-rule="evenodd" d="M610.468 256.472C607.004 256.472 604.559 256.878 602.113 257.491V257.898H602.515C604.147 261.161 607.004 263.405 609.042 266.257C610.674 269.521 612.104 272.784 613.736 276.047L614.138 275.641C616.995 273.602 618.426 270.339 618.426 265.444C617.201 264.018 617 262.587 615.98 261.161C614.755 259.123 612.104 258.103 610.468 256.472Z" fill="#00678C"/>
<path fill-rule="evenodd" clip-rule="evenodd" d="M392.682 586.012H469.357C478.329 586.012 486.899 584.184 493.828 580.916C505.451 575.614 510.958 568.48 510.958 559.101V539.525C510.958 531.984 504.637 524.84 492 519.95C485.473 517.504 477.314 516.074 469.362 516.074H437.144C426.335 516.074 421.238 512.806 419.808 505.676C419.607 504.862 419.607 504.044 419.607 503.23V491.196C419.607 490.579 419.607 489.77 419.808 488.957C421.234 483.449 424.09 482.019 433.474 481.004H511.982V463.257H437.34C426.531 463.257 420.822 463.874 415.726 465.505C400.022 470.396 393.088 478.147 393.088 491.804V507.312C393.088 519.337 406.549 529.539 429.388 531.984C431.833 532.189 434.484 532.189 437.135 532.189H464.668C465.687 532.189 466.702 532.189 467.515 532.395C475.879 533.209 479.549 534.635 481.995 537.688C483.626 539.32 484.038 540.75 484.038 542.587V558.086C484.038 559.914 482.813 562.373 480.368 564.407C477.913 566.441 474.037 567.872 468.941 568.077C467.922 568.077 467.319 568.283 466.29 568.283H392.682V586.012ZM676.947 555.225C676.947 573.375 690.613 583.567 717.94 585.61C720.591 585.816 723.036 586.012 725.687 586.012H795.022V568.274H725.079C709.571 568.274 703.661 564.398 703.661 555.019V463.252H676.942L676.947 555.225ZM527.878 556.034V492.823C527.878 476.712 539.296 466.918 561.531 463.864C563.977 463.659 566.422 463.453 568.666 463.453H619.234C621.885 463.453 624.134 463.659 626.785 463.864C649.012 466.918 660.223 476.712 660.223 492.823V556.034C660.223 569.083 655.538 576.021 644.519 580.715L670.621 604.363H639.834L618.622 585.199L597.204 586.424H568.657C563.972 586.424 558.666 585.816 553.158 584.39C536.242 579.691 527.878 570.719 527.878 556.034ZM556.632 554.617C556.632 555.431 557.043 556.24 557.249 557.268C558.675 564.604 565.604 568.685 576.207 568.685H600.276L578.255 548.698H609.042L628.412 566.24C632.091 564.197 634.331 561.34 635.144 557.67C635.35 556.857 635.35 555.842 635.35 555.019V494.45C635.35 493.637 635.35 492.828 635.144 492.005C633.718 485.076 626.79 481.205 616.387 481.205H576.207C564.379 481.205 556.632 486.301 556.632 494.45V554.617ZM807.262 586.218H811.138V571.336H816.234V568.274H801.96V571.336H807.262V586.218ZM836.829 586.218H840.499V568.274H835.001L830.512 580.514L825.622 568.274H820.32V586.218H823.785V572.561H823.99L829.086 586.218H831.737L836.834 572.561V586.218H836.829Z" fill="#CE8B2C"/>
</svg>
