<svg width="1287" height="1287" viewBox="0 0 1287 1287" fill="none" xmlns="http://www.w3.org/2000/svg">
<path opacity="0.756" fill-rule="evenodd" clip-rule="evenodd" d="M577.863 364.221C598.867 362.507 620.316 361.647 642.213 361.647C675.333 361.233 707.938 362.95 740.025 366.795C685.989 365.019 631.935 364.162 577.863 364.221Z" fill="#AAB4CF"/>
<path fill-rule="evenodd" clip-rule="evenodd" d="M577.863 364.221C631.935 364.162 685.989 365.019 740.025 366.795C740.311 368.383 741.168 369.67 742.599 370.656C782.041 375.886 821.508 380.605 861.003 384.813C881.526 388.01 901.261 393.158 920.205 400.257C919.984 402.821 920.844 404.965 922.779 406.692C929.848 411.197 937.57 413.771 945.945 414.414C942.514 417.845 942.514 421.279 945.945 424.71C950.151 425.982 954.442 426.409 958.815 425.997C958.815 429.428 958.815 432.862 958.815 436.293C967.474 434.463 973.479 437.467 976.833 445.302C987.716 447.704 992.007 443.843 989.703 433.719C980.29 438.707 975.142 436.133 974.259 425.997C984.62 428.072 994.916 431.073 1005.15 435.006C1008.58 436.723 1008.58 438.437 1005.15 440.154C1001.84 441.915 998.838 441.485 996.138 438.867C994.965 442.069 996.252 444.213 999.999 445.302C1007.36 446.726 1014.65 446.296 1021.88 444.015C1029.66 446.298 1036.95 449.3 1043.76 453.024C1049.31 460.985 1056.17 467.42 1064.35 472.329C1058.88 476.502 1053.73 481.22 1048.91 486.486C1061.29 488.522 1072.01 485.518 1081.08 477.477C1085.39 478.921 1088.83 481.495 1091.38 485.199C1093.91 483.472 1096.92 483.472 1100.39 485.199C1149.55 518.29 1180.86 563.765 1194.34 621.621C1199.49 672.664 1184.48 716.422 1149.29 752.895C1147.47 750.568 1144.89 749.711 1141.57 750.321C1140.98 755.297 1138.84 759.587 1135.13 763.191C1134.28 761.474 1133.42 759.76 1132.56 758.043C1131.29 762.249 1130.86 766.54 1131.27 770.913C1127.47 770.239 1124.04 771.096 1120.98 773.487C1121.52 774.995 1122.38 776.282 1123.55 777.348C1118.4 778.205 1113.26 779.065 1108.11 779.922C1110.26 782.524 1111.12 785.528 1110.68 788.931C1106.31 788.622 1102.02 787.762 1097.81 786.357C1091.32 789.605 1084.45 791.322 1077.22 791.505C1077.22 794.936 1077.22 798.37 1077.22 801.801C1079.79 801.801 1082.37 801.801 1084.94 801.801C1084.94 804.375 1084.94 806.949 1084.94 809.523C1059.2 829.168 1030.88 844.612 999.999 855.855C993.083 855.433 986.218 855.863 979.407 857.142C981.124 857.999 982.838 858.859 984.555 859.716C969.209 860.403 956.339 865.979 945.945 876.447C925.055 878.985 904.463 882.846 884.169 888.03C875.582 893.366 866.146 896.37 855.855 897.039C852.733 897.675 851.016 899.392 850.707 902.187C840.772 905.544 830.476 907.26 819.819 907.335C808.633 906.908 797.48 907.338 786.357 908.622C781.685 910.571 777.397 912.715 773.487 915.057C751.341 918.473 729.032 920.187 706.563 920.205C629.686 922.576 553.323 917.855 477.477 906.048C479.194 905.191 480.908 904.331 482.625 903.474C459.436 901.322 436.27 899.178 413.127 897.039C354.324 885.196 298.553 865.461 245.817 837.837C244.83 832.926 242.256 829.065 238.095 826.254C238.953 825.397 239.811 824.537 240.669 823.68C264.692 822.823 288.718 821.963 312.741 821.106C314.172 820.12 315.03 818.833 315.315 817.245C320.481 820.28 321.338 818.993 317.889 813.384C322.149 806.931 324.296 799.636 324.324 791.505C326.425 786.035 329.428 781.315 333.333 777.348C329.055 765.25 330.772 754.095 338.481 743.886C371.158 743.351 403.763 741.636 436.293 738.738C445.264 734.221 453.845 729.503 462.033 724.581C465.634 721.003 469.925 718.429 474.903 716.859C487.325 716.066 495.475 710.061 499.356 698.841C502.213 694.885 506.074 693.171 510.939 693.693C511.135 705.201 509.418 716.355 505.791 727.155C505.83 732.648 507.117 737.796 509.652 742.599C535.217 740.913 560.527 739.196 585.585 737.451C587.173 737.165 588.46 736.308 589.446 734.877C594.867 707.338 600.445 679.884 606.177 652.509C608.154 650.545 609.441 647.971 610.038 644.787C610.895 646.504 611.755 648.218 612.612 649.935C616.944 626.056 619.946 602.03 621.621 577.863C621.621 577.006 621.621 576.146 621.621 575.289C623.948 573.464 624.805 570.89 624.195 567.567C644.787 567.567 665.379 567.567 685.971 567.567C690.81 566.87 694.242 568.586 696.267 572.715C692.064 593.122 689.49 613.714 688.545 634.491C688.545 635.348 688.545 636.208 688.545 637.065C686.957 637.351 685.67 638.208 684.684 639.639C677.876 668.319 673.158 697.49 670.527 727.155C671.384 730.586 672.244 734.02 673.101 737.451C700.095 740.01 727.552 740.869 755.469 740.025C755.469 745.173 755.469 750.321 755.469 755.469C755.06 765.227 753.346 774.666 750.321 783.783C746.162 791.484 741.871 799.636 737.451 808.236C741.724 812.977 744.298 818.555 745.173 824.967C773.487 824.967 801.801 824.967 830.115 824.967C834.581 805.536 837.155 785.801 837.837 765.765C837.837 760.617 837.837 755.469 837.837 750.321C839.727 746.774 841.443 742.913 842.985 738.738C872.156 737.881 901.33 737.021 930.501 736.164C967.631 730.934 996.802 713.346 1018.02 683.397C1021.64 682.18 1023.35 679.606 1023.17 675.675C1026.78 674.458 1028.5 671.884 1028.31 667.953C1032.44 665.927 1034.16 662.496 1033.46 657.657C1035.62 656.777 1036.48 655.062 1036.04 652.509C1038.19 651.629 1039.05 649.915 1038.61 647.361C1040.94 645.536 1041.79 642.962 1041.18 639.639C1043.59 636.89 1044.45 633.459 1043.76 629.343C1046.21 625.691 1047.06 621.402 1046.33 616.473C1048.04 609.662 1048.9 602.37 1048.91 594.594C1049.35 583.16 1047.64 572.435 1043.76 562.419C1043 554.043 1039.57 547.178 1033.46 541.827C1027.06 529.858 1017.63 520.849 1005.15 514.8C988.617 507.665 971.459 502.947 953.667 500.643C903.464 497.225 852.841 497.225 801.801 500.643C799.4 510.756 798.543 521.052 799.227 531.531C797.644 546.314 795.07 560.898 791.505 575.289C787.137 579.935 784.993 585.943 785.07 593.307C783.791 587.361 783.364 581.356 783.783 575.289C784.442 533.047 763.85 509.024 722.007 503.217C721.722 501.629 720.864 500.342 719.433 499.356C692.849 498.069 666.252 497.642 639.639 498.069C639.639 493.778 639.639 489.49 639.639 485.199C641.415 466.025 644.846 447.148 649.935 428.571C648.708 426.054 646.993 423.91 644.787 422.136C620.764 420.419 596.738 420.419 572.715 422.136C571.428 423.423 570.141 424.71 568.854 425.997C561.704 462.177 554.412 498.213 546.975 534.105C542.718 539.408 540.144 545.843 539.253 553.41C535.14 550.985 530.849 547.982 526.383 544.401C506.28 518.468 479.683 503.881 446.589 500.643C394.669 497.225 342.332 497.225 289.575 500.643C291.495 503.825 292.353 507.258 292.149 510.939C290.309 528.728 286.875 545.886 281.853 562.419C277.251 570.265 273.39 578.846 270.27 588.159C268.988 611.724 265.555 634.89 259.974 657.657C257.593 659.065 255.449 660.779 253.539 662.805C254.555 673.534 255.413 684.689 256.113 696.267C256.113 697.124 256.113 697.984 256.113 698.841C253.317 699.15 251.602 700.867 250.965 703.989C246.78 718.275 245.064 732.859 245.817 747.747C245.817 748.604 245.817 749.464 245.817 750.321C243.72 752.712 241.575 755.286 239.382 758.043C237.118 777.513 232.399 796.388 225.225 814.671C223.509 815.528 221.793 816.388 220.077 817.245C213.855 813.109 206.991 810.535 199.485 809.523C141.965 776.437 105.5 727.531 90.0903 662.805C85.5235 610.437 100.967 564.965 136.422 526.383C191.575 471.969 256.354 432.929 330.759 409.266C361.822 398.283 393.57 390.131 425.997 384.813C451.627 381.287 477.367 378.285 503.217 375.804C508.37 373.181 513.518 371.037 518.661 369.369C537.84 365.58 557.575 363.863 577.863 364.221ZM953.667 500.643C971.459 502.947 988.617 507.665 1005.15 514.8C1017.63 520.849 1027.06 529.858 1033.46 541.827C1031.74 540.97 1030.03 540.11 1028.31 539.253C1014.24 522.764 996.218 512.898 974.259 509.652C921.07 508.365 867.873 507.935 814.671 508.365C795.75 609.405 776.015 710.221 755.469 810.81C778.62 812.097 801.786 812.524 824.967 812.097C824.357 808.774 825.214 806.2 827.541 804.375C828.37 810.095 826.653 814.815 822.393 818.532C798.37 820.249 774.344 820.249 750.321 818.532C748.115 816.759 746.401 814.614 745.173 812.097C748.213 802.903 749.93 793.466 750.321 783.783C753.346 774.666 755.06 765.227 755.469 755.469C768.409 695.914 780.422 635.853 791.505 575.289C795.07 560.898 797.644 546.314 799.227 531.531C801.528 521.397 804.96 511.531 809.523 501.93C857.564 500.643 905.611 500.213 953.667 500.643ZM1033.46 541.827C1039.57 547.178 1043 554.043 1043.76 562.419C1040.33 557.271 1036.89 552.123 1033.46 546.975C1033.46 545.258 1033.46 543.544 1033.46 541.827ZM389.961 680.823C371.943 680.823 353.925 680.823 335.907 680.823C335.907 678.249 335.907 675.675 335.907 673.101C344.45 634.73 352.172 596.12 359.073 557.271C384.103 556.347 408.986 557.634 433.719 561.132C445.972 563.953 454.123 571.245 458.172 583.011C461.876 611.088 455.871 636.828 440.154 660.231C425.861 672.864 409.13 679.729 389.961 680.823ZM961.389 564.993C963.106 568.424 965.68 570.998 969.111 572.715C977.343 600.18 974.769 626.777 961.389 652.509C957.77 653.727 956.053 656.301 956.241 660.231C943.304 670.561 928.718 677.425 912.483 680.823C891.891 680.823 871.299 680.823 850.707 680.823C850.707 678.249 850.707 675.675 850.707 673.101C859.359 634.993 867.081 596.383 873.873 557.271C903.567 555.428 932.741 558.002 961.389 564.993ZM1043.76 562.419C1047.64 572.435 1049.35 583.16 1048.91 594.594C1048.9 602.37 1048.04 609.662 1046.33 616.473C1046.65 598.38 1045.79 580.362 1043.76 562.419ZM1028.31 667.953C1032.44 665.927 1034.16 662.496 1033.46 657.657C1030.44 660.267 1028.73 663.698 1028.31 667.953ZM1023.17 675.675C1026.78 674.458 1028.5 671.884 1028.31 667.953C1024.69 669.171 1022.98 671.745 1023.17 675.675ZM1018.02 683.397C1021.64 682.18 1023.35 679.606 1023.17 675.675C1019.55 676.893 1017.83 679.467 1018.02 683.397ZM1018.02 683.397C996.802 713.346 967.631 730.934 930.501 736.164C901.33 737.021 872.156 737.881 842.985 738.738C841.443 742.913 839.727 746.774 837.837 750.321C837.837 746.03 837.837 741.742 837.837 737.451C865.958 733.279 894.272 730.705 922.779 729.729C960.962 727.369 992.707 711.925 1018.02 683.397ZM837.837 750.321C837.837 755.469 837.837 760.617 837.837 765.765C836.12 770.056 834.406 774.344 832.689 778.635C832.509 768.532 834.226 759.096 837.837 750.321Z" fill="#6E81B6"/>
<path fill-rule="evenodd" clip-rule="evenodd" d="M740.025 366.795C781.281 368.764 821.608 374.769 861.003 384.813C821.508 380.604 782.041 375.886 742.599 370.656C741.168 369.67 740.311 368.383 740.025 366.795Z" fill="#939EBF"/>
<path fill-rule="evenodd" clip-rule="evenodd" d="M518.66 369.369C513.517 371.037 508.369 373.181 503.216 375.804C477.365 378.285 451.625 381.287 425.996 384.813C456.009 376.378 486.897 371.23 518.66 369.369Z" fill="#8D99BB"/>
<path opacity="0.208" fill-rule="evenodd" clip-rule="evenodd" d="M575.289 428.571C597.127 426.015 619.436 425.158 642.213 425.997C642.944 430.926 642.087 435.214 639.639 438.867C639.639 435.436 639.639 432.002 639.639 428.571C618.19 428.571 596.738 428.571 575.289 428.571Z" fill="#C9C7C7"/>
<path fill-rule="evenodd" clip-rule="evenodd" d="M575.288 428.571C596.737 428.571 618.189 428.571 639.638 428.571C639.638 432.002 639.638 435.436 639.638 438.867C636.67 461.426 632.379 483.735 626.768 505.791C657.62 507.935 688.508 509.222 719.432 509.652C734.987 511.529 748.717 517.107 760.616 526.383C760.428 530.314 762.145 532.888 765.764 534.105C771.411 538.535 774.415 544.543 774.773 552.123C776.49 563.276 776.49 574.432 774.773 585.585C766.238 631.266 757.229 676.741 747.746 722.007C745.419 723.832 744.562 726.406 745.172 729.729C723.723 729.729 702.271 729.729 680.822 729.729C680.822 726.298 680.822 722.864 680.822 719.433C687.278 679.848 694.57 640.378 702.701 601.029C704.418 590.733 704.418 580.437 702.701 570.141C699.306 565.027 694.588 562.023 688.544 561.132C664.536 559.845 640.511 559.418 616.472 559.845C606.578 617.04 595.422 673.668 583.01 729.729C561.561 729.729 540.109 729.729 518.66 729.729C518.66 727.155 518.66 724.581 518.66 722.007C536.56 623.93 555.435 526.118 575.288 428.571Z" fill="#0E0D0E"/>
<path fill-rule="evenodd" clip-rule="evenodd" d="M920.206 400.257C975.001 414.373 1026.48 436.252 1074.65 465.894C1083.86 471.755 1092.44 478.19 1100.39 485.199C1096.92 483.472 1093.91 483.472 1091.38 485.199C1088.83 481.495 1085.39 478.921 1081.08 477.477C1072.02 485.518 1061.29 488.522 1048.91 486.486C1053.73 481.219 1058.88 476.501 1064.35 472.329C1056.17 467.42 1049.31 460.985 1043.76 453.024C1036.95 449.299 1029.66 446.298 1021.88 444.015C1014.65 446.295 1007.36 446.725 1000 445.302C996.252 444.213 994.965 442.069 996.139 438.867C998.839 441.485 1001.84 441.914 1005.15 440.154C1008.58 438.437 1008.58 436.723 1005.15 435.006C994.916 431.073 984.62 428.071 974.26 425.997C975.143 436.133 980.291 438.707 989.704 433.719C992.008 443.842 987.717 447.703 976.834 445.302C973.48 437.467 967.475 434.463 958.816 436.293C958.816 432.862 958.816 429.428 958.816 425.997C954.443 426.409 950.152 425.981 945.946 424.71C942.515 421.279 942.515 417.845 945.946 414.414C937.57 413.77 929.848 411.196 922.78 406.692C920.844 404.965 919.985 402.821 920.206 400.257Z" fill="#7A8AB6"/>
<path opacity="0.624" fill-rule="evenodd" clip-rule="evenodd" d="M446.588 500.643C396.817 500.213 347.052 500.643 297.296 501.93C295.79 505.281 294.076 508.285 292.148 510.939C292.352 507.258 291.494 503.824 289.574 500.643C342.331 497.225 394.668 497.225 446.588 500.643Z" fill="#A8B2CC"/>
<path opacity="0.655" fill-rule="evenodd" clip-rule="evenodd" d="M639.638 485.199C639.638 489.49 639.638 493.778 639.638 498.069C666.251 497.642 692.848 498.069 719.432 499.356C720.863 500.342 721.721 501.629 722.006 503.217C692.876 501.441 663.705 500.154 634.49 499.356C636.058 494.342 637.775 489.621 639.638 485.199Z" fill="#A4AFC8"/>
<path opacity="0.668" fill-rule="evenodd" clip-rule="evenodd" d="M953.666 500.643C905.609 500.213 857.563 500.643 809.522 501.93C804.958 511.531 801.527 521.397 799.226 531.531C798.541 521.052 799.399 510.756 801.8 500.643C852.84 497.225 903.463 497.225 953.666 500.643Z" fill="#A6B0CA"/>
<path fill-rule="evenodd" clip-rule="evenodd" d="M407.978 729.729C379.664 729.729 351.35 729.729 323.036 729.729C323.036 732.303 323.036 734.877 323.036 737.451C320.004 760.319 315.716 782.625 310.166 804.375C299.232 807.647 287.649 809.361 275.417 809.523C264.228 809.521 253.502 808.664 243.242 806.949C261.564 707.318 280.439 607.791 299.87 508.365C353.072 507.935 406.269 508.365 459.458 509.652C514.467 522.679 538.063 557.428 530.243 613.899C518.127 683.081 477.373 721.691 407.978 729.729ZM389.96 680.823C371.942 680.823 353.924 680.823 335.906 680.823C335.906 678.249 335.906 675.675 335.906 673.101C344.449 634.731 352.171 596.121 359.072 557.271C384.102 556.347 408.985 557.634 433.718 561.132C445.97 563.953 454.122 571.246 458.171 583.011C461.875 611.089 455.87 636.829 440.153 660.231C425.86 672.865 409.129 679.729 389.96 680.823Z" fill="#0C0C0C"/>
<path fill-rule="evenodd" clip-rule="evenodd" d="M1028.31 539.253C1028.12 543.184 1029.84 545.758 1033.46 546.975C1036.89 552.123 1040.33 557.271 1043.76 562.419C1045.79 580.363 1046.65 598.381 1046.33 616.473C1043.88 620.126 1043.03 624.414 1043.76 629.343C1041.35 632.092 1040.49 635.524 1041.18 639.639C1038.86 641.464 1038 644.038 1038.61 647.361C1036.45 648.242 1035.59 649.956 1036.03 652.509C1033.88 653.39 1033.02 655.104 1033.46 657.657C1030.44 660.267 1028.72 663.699 1028.31 667.953C1024.69 669.171 1022.98 671.745 1023.16 675.675C1019.55 676.893 1017.83 679.467 1018.02 683.397C992.707 711.925 960.961 727.369 922.779 729.729C894.465 729.729 866.151 729.729 837.837 729.729C837.837 732.303 837.837 734.877 837.837 737.451C837.837 741.742 837.837 746.03 837.837 750.321C834.225 759.096 832.509 768.532 832.689 778.635C830.241 782.288 829.384 786.576 830.115 791.505C827.667 795.158 826.81 799.446 827.541 804.375C825.214 806.2 824.357 808.774 824.967 812.097C801.785 812.525 778.619 812.097 755.469 810.81C776.014 710.221 795.749 609.405 814.671 508.365C867.873 507.935 921.07 508.365 974.259 509.652C996.218 512.898 1014.24 522.764 1028.31 539.253ZM961.389 564.993C963.106 568.424 965.68 570.998 969.111 572.715C977.342 600.18 974.768 626.777 961.389 652.509C957.77 653.727 956.053 656.301 956.241 660.231C943.304 670.561 928.717 677.426 912.483 680.823C891.891 680.823 871.299 680.823 850.707 680.823C850.707 678.249 850.707 675.675 850.707 673.101C859.358 634.993 867.08 596.383 873.873 557.271C903.566 555.428 932.74 558.002 961.389 564.993Z" fill="#0C0C0C"/>
<path opacity="0.757" fill-rule="evenodd" clip-rule="evenodd" d="M760.617 526.383C764.236 527.6 765.953 530.174 765.765 534.105C762.146 532.887 760.43 530.313 760.617 526.383Z" fill="#908D8A"/>
<path opacity="0.553" fill-rule="evenodd" clip-rule="evenodd" d="M1028.31 539.253C1030.03 540.11 1031.74 540.97 1033.46 541.827C1033.46 543.544 1033.46 545.258 1033.46 546.975C1029.84 545.757 1028.12 543.183 1028.31 539.253Z" fill="#8E8E92"/>
<path opacity="0.979" fill-rule="evenodd" clip-rule="evenodd" d="M546.975 534.105C545.448 548.175 542.445 561.905 537.966 575.289C534.802 564.682 530.941 554.386 526.383 544.401C530.849 547.982 535.14 550.986 539.253 553.41C540.143 545.843 542.717 539.408 546.975 534.105Z" fill="#9CA5C1"/>
<path opacity="0.404" fill-rule="evenodd" clip-rule="evenodd" d="M685.971 567.567C665.379 567.567 644.787 567.567 624.195 567.567C624.805 570.89 623.948 573.464 621.621 575.289C621.621 571.858 621.621 568.424 621.621 564.993C643.544 564.154 664.993 565.011 685.971 567.567Z" fill="#BDC7E1"/>
<path opacity="0.843" fill-rule="evenodd" clip-rule="evenodd" d="M961.389 564.993C966.537 564.993 969.111 567.567 969.111 572.715C965.68 570.998 963.106 568.424 961.389 564.993Z" fill="#818181"/>
<path fill-rule="evenodd" clip-rule="evenodd" d="M428.571 567.567C436.27 566.707 442.275 569.281 446.589 575.289C443.256 580.108 443.686 584.396 447.876 588.159C449.161 600.141 449.59 612.151 449.163 624.195C447.817 638.054 441.809 649.209 431.145 657.657C405.897 668.857 379.3 673.145 351.351 670.527C350.924 660.195 351.354 649.899 352.638 639.639C355.809 632.432 357.526 624.71 357.786 616.473C358.852 615.297 360.139 614.437 361.647 613.899C363.781 601.114 365.068 588.244 365.508 575.289C367.289 573.938 368.576 572.221 369.369 570.141C389.029 567.575 408.762 566.715 428.571 567.567Z" fill="#6E81B6"/>
<path fill-rule="evenodd" clip-rule="evenodd" d="M956.24 644.787C951.01 646.198 948.436 649.629 948.518 655.083C943.301 654.666 938.153 655.096 933.074 656.37C935.54 659.323 934.683 661.897 930.5 664.092C909.509 669.83 888.06 671.976 866.15 670.527C870.228 646.694 872.802 622.671 873.872 598.455C874.925 587.191 876.639 576.036 879.02 564.993C900.488 564.566 921.937 564.993 943.37 566.28C952.31 567.101 959.602 570.962 965.249 577.863C971.388 601.593 968.387 623.902 956.24 644.787Z" fill="#7082B6"/>
<path opacity="0.969" fill-rule="evenodd" clip-rule="evenodd" d="M446.59 575.289C451.658 581.915 454.232 589.637 454.312 598.455C453.658 607.593 451.941 616.172 449.164 624.195C449.591 612.151 449.161 600.141 447.877 588.159C443.686 584.396 443.256 580.108 446.59 575.289Z" fill="#99A3C5"/>
<path fill-rule="evenodd" clip-rule="evenodd" d="M696.267 572.715C698.215 593.678 695.641 614.27 688.545 634.491C689.49 613.714 692.064 593.122 696.267 572.715Z" fill="#A0A9C7"/>
<path opacity="0.999" fill-rule="evenodd" clip-rule="evenodd" d="M621.622 577.863C619.946 602.031 616.945 626.056 612.613 649.935C611.756 648.218 610.896 646.504 610.039 644.787C609.442 647.971 608.155 650.545 606.178 652.509C610.064 627.055 615.212 602.172 621.622 577.863Z" fill="#8E9ABE"/>
<path fill-rule="evenodd" clip-rule="evenodd" d="M281.853 562.419C274.862 607.657 266.283 652.272 256.113 696.267C255.413 684.689 254.555 673.533 253.539 662.805C255.449 660.779 257.593 659.065 259.974 657.657C265.554 634.89 268.988 611.724 270.27 588.159C273.39 578.846 277.251 570.264 281.853 562.419Z" fill="#929DBF"/>
<path opacity="0.627" fill-rule="evenodd" clip-rule="evenodd" d="M961.388 652.509C961.576 656.439 959.86 659.013 956.24 660.231C956.053 656.3 957.769 653.726 961.388 652.509Z" fill="#868482"/>
<path fill-rule="evenodd" clip-rule="evenodd" d="M428.571 567.567C408.762 566.715 389.029 567.575 369.369 570.141C368.576 572.221 367.289 573.938 365.508 575.289C365.068 588.244 363.781 601.114 361.647 613.899C360.139 614.437 358.852 615.297 357.786 616.473C357.526 624.71 355.809 632.432 352.638 639.639C351.354 649.899 350.924 660.195 351.351 670.527C379.3 673.145 405.897 668.856 431.145 657.657C420.934 668.797 408.064 673.945 392.535 673.101C377.091 673.101 361.647 673.101 346.203 673.101C346.203 669.67 346.203 666.236 346.203 662.805C351.547 630.079 357.552 597.477 364.221 564.993C386.144 564.154 407.593 565.011 428.571 567.567Z" fill="#808DB2"/>
<path fill-rule="evenodd" clip-rule="evenodd" d="M873.874 598.455C872.803 622.671 870.229 646.694 866.152 670.527C888.062 671.976 909.511 669.83 930.502 664.092C934.685 661.896 935.542 659.322 933.076 656.37C938.154 655.096 943.302 654.666 948.52 655.083C948.438 649.629 951.012 646.198 956.242 644.787C946.157 664.015 929.856 673.454 907.336 673.101C891.892 673.101 876.448 673.101 861.004 673.101C861.004 670.527 861.004 667.953 861.004 665.379C864.036 642.512 868.324 620.205 873.874 598.455Z" fill="#828FB5"/>
<path opacity="0.388" fill-rule="evenodd" clip-rule="evenodd" d="M346.203 662.805C346.203 666.236 346.203 669.67 346.203 673.101C361.647 673.101 377.091 673.101 392.535 673.101C376.718 675.649 360.417 676.506 343.629 675.675C342.898 670.745 343.755 666.457 346.203 662.805Z" fill="#C8D1E5"/>
<path opacity="0.931" fill-rule="evenodd" clip-rule="evenodd" d="M783.784 575.289C783.364 581.356 783.791 587.361 785.071 593.307C784.993 585.943 787.137 579.935 791.506 575.289C780.422 635.853 768.409 695.914 755.47 755.469C755.47 750.321 755.47 745.173 755.47 740.025C727.552 740.869 700.095 740.01 673.102 737.451C699.482 738.272 725.652 737.415 751.609 734.877C762.654 681.407 773.379 628.21 783.784 575.289Z" fill="#A4ABC6"/>
<path opacity="0.442" fill-rule="evenodd" clip-rule="evenodd" d="M861.004 665.379C861.004 667.953 861.004 670.527 861.004 673.101C876.448 673.101 891.892 673.101 907.336 673.101C891.518 675.649 875.217 676.506 858.43 675.675C857.74 671.559 858.599 668.128 861.004 665.379Z" fill="#C9D1E4"/>
<path opacity="0.076" fill-rule="evenodd" clip-rule="evenodd" d="M335.908 673.101C335.908 675.675 335.908 678.249 335.908 680.823C353.926 680.823 371.944 680.823 389.962 680.823C371.563 683.376 352.688 684.233 333.334 683.397C332.644 679.281 333.504 675.85 335.908 673.101Z" fill="#DBDADB"/>
<path opacity="0.076" fill-rule="evenodd" clip-rule="evenodd" d="M850.707 673.101C850.707 675.675 850.707 678.249 850.707 680.823C871.299 680.823 891.891 680.823 912.483 680.823C891.505 683.379 870.055 684.236 848.133 683.397C847.443 679.281 848.303 675.85 850.707 673.101Z" fill="#CECECE"/>
<path fill-rule="evenodd" clip-rule="evenodd" d="M688.545 637.065C683.467 667.601 677.462 697.629 670.527 727.155C673.158 697.49 677.876 668.319 684.684 639.639C685.67 638.208 686.957 637.351 688.545 637.065Z" fill="#99A3C3"/>
<path fill-rule="evenodd" clip-rule="evenodd" d="M585.584 737.451C560.526 739.196 535.216 740.913 509.651 742.599C507.116 737.796 505.829 732.648 505.79 727.155C509.417 716.355 511.134 705.201 510.938 693.693C506.073 693.171 502.212 694.885 499.355 698.841C495.474 710.061 487.324 716.066 474.902 716.859C492.084 702.676 507.098 686.373 519.947 667.953C517.901 689.232 514.04 710.254 508.364 731.016C509.541 732.082 510.4 733.369 510.938 734.877C535.762 737.446 560.642 738.306 585.584 737.451Z" fill="#A4ACC8"/>
<path opacity="0.996" fill-rule="evenodd" clip-rule="evenodd" d="M256.113 698.841C253.942 715.719 250.51 732.02 245.817 747.747C245.064 732.859 246.78 718.275 250.965 703.989C251.601 700.867 253.317 699.15 256.113 698.841Z" fill="#98A1C1"/>
<path opacity="0.494" fill-rule="evenodd" clip-rule="evenodd" d="M407.979 729.729C379.472 730.704 351.158 733.278 323.037 737.451C323.037 734.877 323.037 732.303 323.037 729.729C351.351 729.729 379.665 729.729 407.979 729.729Z" fill="#939394"/>
<path opacity="0.497" fill-rule="evenodd" clip-rule="evenodd" d="M518.662 722.007C518.662 724.581 518.662 727.155 518.662 729.729C540.111 729.729 561.563 729.729 583.012 729.729C561.174 732.285 538.865 733.142 516.088 732.303C515.398 728.187 516.258 724.756 518.662 722.007Z" fill="#89898A"/>
<path opacity="0.5" fill-rule="evenodd" clip-rule="evenodd" d="M680.822 719.433C680.822 722.864 680.822 726.297 680.822 729.729C702.272 729.729 723.723 729.729 745.172 729.729C744.562 726.406 745.42 723.832 747.746 722.007C747.746 725.438 747.746 728.871 747.746 732.303C724.58 732.303 701.414 732.303 678.248 732.303C677.517 727.373 678.375 723.085 680.822 719.433Z" fill="#8D8D8D"/>
<path opacity="0.496" fill-rule="evenodd" clip-rule="evenodd" d="M922.78 729.729C894.273 730.704 865.959 733.278 837.838 737.451C837.838 734.877 837.838 732.303 837.838 729.729C866.152 729.729 894.466 729.729 922.78 729.729Z" fill="#939392"/>
<path opacity="0.98" fill-rule="evenodd" clip-rule="evenodd" d="M462.032 724.581C453.845 729.503 445.263 734.221 436.292 738.738C403.762 741.636 371.157 743.351 338.48 743.886C330.771 754.095 329.054 765.25 333.332 777.348C329.428 781.315 326.424 786.035 324.323 791.505C324.295 799.636 322.148 806.931 317.888 813.384C321.338 818.993 320.48 820.28 315.314 817.245C320.192 792.427 324.91 767.546 329.471 742.599C330.758 741.312 332.045 740.025 333.332 738.738C361.646 737.881 389.96 737.021 418.274 736.164C433.24 733.605 447.824 729.744 462.032 724.581Z" fill="#929CBE"/>
<path fill-rule="evenodd" clip-rule="evenodd" d="M1149.29 752.895C1142.27 763.801 1133.69 773.67 1123.55 782.496C1111.43 792.823 1098.56 801.832 1084.94 809.523C1084.94 806.949 1084.94 804.375 1084.94 801.801C1082.37 801.801 1079.79 801.801 1077.22 801.801C1077.22 798.37 1077.22 794.936 1077.22 791.505C1084.45 791.322 1091.32 789.605 1097.81 786.357C1102.02 787.762 1106.31 788.622 1110.68 788.931C1111.12 785.528 1110.26 782.524 1108.11 779.922C1113.25 779.065 1118.4 778.205 1123.55 777.348C1122.37 776.282 1121.51 774.995 1120.98 773.487C1124.04 771.096 1127.47 770.239 1131.27 770.913C1130.86 766.54 1131.29 762.249 1132.56 758.043C1133.42 759.76 1134.28 761.474 1135.13 763.191C1138.84 759.587 1140.98 755.297 1141.57 750.321C1144.89 749.711 1147.47 750.568 1149.29 752.895Z" fill="#8492BD"/>
<path opacity="0.803" fill-rule="evenodd" clip-rule="evenodd" d="M310.168 804.375C310.168 806.949 310.168 809.523 310.168 812.097C286.938 812.952 263.772 812.092 240.67 809.523C240.988 807.961 241.846 807.103 243.244 806.949C253.504 808.663 264.23 809.52 275.419 809.523C287.651 809.361 299.234 807.647 310.168 804.375Z" fill="#494947"/>
<path fill-rule="evenodd" clip-rule="evenodd" d="M245.816 750.321C242.667 770.074 239.235 789.809 235.52 809.523C236.378 812.097 237.236 814.671 238.094 817.245C263.834 820.615 289.574 820.615 315.314 817.245C315.029 818.833 314.172 820.12 312.74 821.106C288.717 821.963 264.692 822.823 240.668 823.68C239.81 824.537 238.952 825.397 238.094 826.254C242.256 829.065 244.83 832.926 245.816 837.837C229.001 830.422 213.557 820.985 199.484 809.523C206.99 810.535 213.854 813.109 220.076 817.245C221.792 816.388 223.508 815.528 225.224 814.671C232.398 796.388 237.117 777.513 239.381 758.043C241.574 755.287 243.719 752.713 245.816 750.321Z" fill="#8B97BB"/>
<path fill-rule="evenodd" clip-rule="evenodd" d="M837.837 765.765C837.155 785.801 834.581 805.536 830.115 824.967C801.801 824.967 773.487 824.967 745.173 824.967C744.298 818.555 741.724 812.977 737.451 808.236C741.871 799.636 746.162 791.484 750.321 783.783C749.93 793.466 748.213 802.902 745.173 812.097C746.401 814.614 748.115 816.758 750.321 818.532C774.344 820.249 798.37 820.249 822.393 818.532C826.653 814.815 828.37 810.094 827.541 804.375C829.989 800.722 830.846 796.434 830.115 791.505C832.563 787.852 833.42 783.564 832.689 778.635C834.406 774.344 836.12 770.056 837.837 765.765Z" fill="#828EB5"/>
<path fill-rule="evenodd" clip-rule="evenodd" d="M999.999 855.855C982.949 864.694 964.931 871.557 945.945 876.447C956.339 865.979 969.209 860.403 984.555 859.716C982.838 858.859 981.124 857.999 979.407 857.142C986.218 855.863 993.083 855.433 999.999 855.855Z" fill="#97A3C2"/>
<path fill-rule="evenodd" clip-rule="evenodd" d="M945.945 876.447C915.224 887.781 883.477 896.36 850.707 902.187C851.016 899.392 852.733 897.675 855.855 897.039C866.146 896.37 875.582 893.366 884.169 888.03C904.462 882.846 925.054 878.985 945.945 876.447Z" fill="#949DC0"/>
<path fill-rule="evenodd" clip-rule="evenodd" d="M819.818 907.335C804.941 911.306 789.497 913.88 773.486 915.057C777.396 912.714 781.685 910.57 786.356 908.622C797.479 907.337 808.632 906.907 819.818 907.335Z" fill="#A3AECA"/>
<path fill-rule="evenodd" clip-rule="evenodd" d="M413.127 897.039C436.27 899.178 459.436 901.322 482.625 903.474C480.908 904.331 479.194 905.191 477.477 906.048C553.322 917.855 629.685 922.576 706.563 920.205C607.595 927.6 509.783 919.878 413.127 897.039Z" fill="#919CBE"/>
</svg>
