<svg width="717" height="714" viewBox="0 0 717 714" fill="none" xmlns="http://www.w3.org/2000/svg">
<path d="M355.431 0.201172C173.868 0.201172 185.204 78.9232 185.204 78.9232L185.406 160.482H358.668V184.968H116.589C116.589 184.968 0.40625 171.794 0.40625 354.956C0.40625 538.123 101.813 531.627 101.813 531.627H162.332V446.63C162.332 446.63 159.07 345.242 262.12 345.242H433.966C433.966 345.242 530.513 346.802 530.513 251.949V95.1156C530.513 95.1156 545.177 0.201172 355.431 0.201172ZM259.894 55.0476C263.988 55.0439 268.043 55.8475 271.826 57.4123C275.61 58.9771 279.047 61.2725 281.942 64.1671C284.837 67.0617 287.133 70.4986 288.698 74.2813C290.264 78.0639 291.067 82.118 291.064 86.2116C291.067 90.3051 290.264 94.3592 288.698 98.1419C287.133 101.925 284.837 105.361 281.942 108.256C279.047 111.151 275.61 113.446 271.826 115.011C268.043 116.576 263.988 117.379 259.894 117.376C255.799 117.379 251.745 116.576 247.961 115.011C244.178 113.446 240.74 111.151 237.845 108.256C234.95 105.361 232.654 101.925 231.089 98.1419C229.524 94.3592 228.72 90.3051 228.724 86.2116C228.72 82.118 229.524 78.0639 231.089 74.2813C232.654 70.4986 234.95 67.0617 237.845 64.1671C240.74 61.2725 244.178 58.9771 247.961 57.4123C251.745 55.8475 255.799 55.0439 259.894 55.0476Z" fill="url(#paint0_linear_436_1717)"/>
<path d="M360.587 711.553C542.15 711.553 530.813 632.831 530.813 632.831L530.612 551.276H357.346V526.79H599.426C599.426 526.79 715.608 539.964 715.608 356.796C715.608 173.631 614.201 180.127 614.201 180.127H553.682V265.121C553.682 265.121 556.945 366.509 453.894 366.509H282.049C282.049 366.509 185.501 364.95 185.501 459.805V616.642C185.501 616.642 170.84 711.553 360.584 711.553H360.587ZM456.123 656.712C452.029 656.716 447.974 655.912 444.191 654.348C440.408 652.783 436.97 650.487 434.075 647.593C431.18 644.698 428.884 641.261 427.319 637.479C425.754 633.696 424.95 629.642 424.954 625.548C424.95 621.455 425.753 617.4 427.318 613.617C428.883 609.834 431.179 606.397 434.074 603.502C436.969 600.607 440.407 598.311 444.19 596.746C447.974 595.181 452.029 594.378 456.123 594.382C460.218 594.378 464.272 595.181 468.056 596.746C471.839 598.311 475.277 600.606 478.172 603.501C481.067 606.396 483.363 609.833 484.928 613.615C486.493 617.398 487.297 621.452 487.293 625.546C487.297 629.639 486.493 633.693 484.928 637.476C483.363 641.258 481.067 644.695 478.172 647.59C475.277 650.485 471.839 652.78 468.056 654.345C464.272 655.91 460.218 656.716 456.123 656.712Z" fill="url(#paint1_linear_436_1717)"/>
<defs>
<linearGradient id="paint0_linear_436_1717" x1="6873.47" y1="6398.38" x2="42310.2" y2="41488.1" gradientUnits="userSpaceOnUse">
<stop stop-color="#387EB8"/>
<stop offset="1" stop-color="#366994"/>
</linearGradient>
<linearGradient id="paint1_linear_436_1717" x1="10330.2" y1="11116.9" x2="48385.5" y2="47098.5" gradientUnits="userSpaceOnUse">
<stop stop-color="#FFE052"/>
<stop offset="1" stop-color="#FFC331"/>
</linearGradient>
</defs>
</svg>
