<svg width="800" height="800" viewBox="0 0 800 800" fill="none" xmlns="http://www.w3.org/2000/svg">
<path fill-rule="evenodd" clip-rule="evenodd" d="M564.852 496.017L222.289 699.995L665.844 669.812L700.007 221.313L564.852 496.017Z" fill="url(#paint0_linear_440_2545)"/>
<path fill-rule="evenodd" clip-rule="evenodd" d="M666.577 669.515L628.452 405.652L524.609 543.155L666.577 669.515Z" fill="url(#paint1_linear_440_2545)"/>
<path fill-rule="evenodd" clip-rule="evenodd" d="M667.09 669.507L387.793 647.522L223.779 699.422L667.09 669.507Z" fill="url(#paint2_linear_440_2545)"/>
<path fill-rule="evenodd" clip-rule="evenodd" d="M224.168 699.49L293.939 470.275L140.404 503.198L224.168 699.49Z" fill="url(#paint3_linear_440_2545)"/>
<path fill-rule="evenodd" clip-rule="evenodd" d="M685.44 295.293L511.765 153.052L463.402 309.84L685.44 295.293Z" fill="url(#paint4_linear_440_2545)"/>
<path fill-rule="evenodd" clip-rule="evenodd" d="M604.211 102.334L502.066 158.939L437.623 101.575L604.211 102.334Z" fill="url(#paint5_linear_440_2545)"/>
<path fill-rule="evenodd" clip-rule="evenodd" d="M100 580.077L142.79 501.822L108.177 408.595L100 580.077Z" fill="url(#paint6_linear_440_2545)"/>
<path fill-rule="evenodd" clip-rule="evenodd" d="M105.883 405.648L140.709 504.707L292.034 470.663L464.799 309.655L513.554 154.358L436.784 100L306.264 148.983C265.142 187.337 185.346 263.225 182.469 264.652C179.622 266.11 129.776 360.583 105.883 405.648Z" fill="white"/>
<path d="M293.068 469.705L464.801 309.657L464.878 309.412L524.581 543.915L293.068 469.705Z" fill="url(#paint7_linear_440_2545)"/>
<path fill-rule="evenodd" clip-rule="evenodd" d="M228.155 227.694C317.278 139.081 432.173 86.7278 476.265 131.338C520.33 175.947 473.6 284.36 384.478 372.94C295.353 461.523 181.882 516.763 137.82 472.153C93.7278 427.573 139.032 316.275 228.155 227.694Z" fill="url(#paint8_linear_440_2545)"/>
<path fill-rule="evenodd" clip-rule="evenodd" d="M224.17 699.388L293.397 469.445L523.307 543.513C440.18 621.678 347.725 687.758 224.17 699.388Z" fill="url(#paint9_linear_440_2545)"/>
<path fill-rule="evenodd" clip-rule="evenodd" d="M465.088 309.198L524.11 543.635C593.55 470.418 655.873 391.705 686.395 294.348L465.088 309.198Z" fill="url(#paint10_linear_440_2545)"/>
<path fill-rule="evenodd" clip-rule="evenodd" d="M685.793 295.543C709.413 224.057 714.863 121.506 603.481 102.466L512.086 153.089L685.793 295.543Z" fill="url(#paint11_linear_440_2545)"/>
<path fill-rule="evenodd" clip-rule="evenodd" d="M100 579.05C103.271 697.03 188.154 698.788 224.312 699.823L140.792 504.223L100 579.05Z" fill="#9E1209"/>
<path fill-rule="evenodd" clip-rule="evenodd" d="M465.43 309.565C518.787 342.452 626.327 408.502 628.507 409.717C631.895 411.63 674.87 337.047 684.622 294.897L465.43 309.565Z" fill="url(#paint12_radial_440_2545)"/>
<path fill-rule="evenodd" clip-rule="evenodd" d="M293.311 469.445L385.856 648.493C440.578 618.733 483.428 582.473 522.676 543.633L293.311 469.445Z" fill="url(#paint13_radial_440_2545)"/>
<path fill-rule="evenodd" clip-rule="evenodd" d="M140.431 504.457L127.318 661.032C152.06 694.922 186.098 697.867 221.802 695.227C195.97 630.757 144.368 501.847 140.431 504.457Z" fill="url(#paint14_linear_440_2545)"/>
<path fill-rule="evenodd" clip-rule="evenodd" d="M511.547 153.482L695.397 179.355C685.584 137.661 655.452 110.755 604.092 102.344L511.547 153.482Z" fill="url(#paint15_linear_440_2545)"/>
<defs>
<linearGradient id="paint0_linear_440_2545" x1="627.157" y1="754.562" x2="500.047" y2="530.767" gradientUnits="userSpaceOnUse">
<stop stop-color="#FB7655"/>
<stop offset="0.41" stop-color="#E42B1E"/>
<stop offset="0.99" stop-color="#990000"/>
<stop offset="1" stop-color="#990000"/>
</linearGradient>
<linearGradient id="paint1_linear_440_2545" x1="690.214" y1="566.32" x2="526.807" y2="456.965" gradientUnits="userSpaceOnUse">
<stop stop-color="#871101"/>
<stop offset="0.99" stop-color="#911209"/>
<stop offset="1" stop-color="#911209"/>
</linearGradient>
<linearGradient id="paint2_linear_440_2545" x1="559.695" y1="761.355" x2="396.293" y2="652.005" gradientUnits="userSpaceOnUse">
<stop stop-color="#871101"/>
<stop offset="0.99" stop-color="#911209"/>
<stop offset="1" stop-color="#911209"/>
</linearGradient>
<linearGradient id="paint3_linear_440_2545" x1="217.191" y1="486.858" x2="242.617" y2="651.643" gradientUnits="userSpaceOnUse">
<stop stop-color="white"/>
<stop offset="0.23" stop-color="#E57252"/>
<stop offset="0.46" stop-color="#DE3B20"/>
<stop offset="0.99" stop-color="#A60003"/>
<stop offset="1" stop-color="#A60003"/>
</linearGradient>
<linearGradient id="paint4_linear_440_2545" x1="545.48" y1="177.501" x2="573.522" y2="298.01" gradientUnits="userSpaceOnUse">
<stop stop-color="white"/>
<stop offset="0.18" stop-color="#E46342"/>
<stop offset="0.4" stop-color="#C82410"/>
<stop offset="0.99" stop-color="#A80D00"/>
<stop offset="1" stop-color="#A80D00"/>
</linearGradient>
<linearGradient id="paint5_linear_440_2545" x1="460.293" y1="135.045" x2="580.628" y2="75.0442" gradientUnits="userSpaceOnUse">
<stop stop-color="white"/>
<stop offset="0.54" stop-color="#C81F11"/>
<stop offset="0.99" stop-color="#BF0905"/>
<stop offset="1" stop-color="#BF0905"/>
</linearGradient>
<linearGradient id="paint6_linear_440_2545" x1="111.82" y1="444.837" x2="121.768" y2="544.157" gradientUnits="userSpaceOnUse">
<stop stop-color="white"/>
<stop offset="0.31" stop-color="#DE4024"/>
<stop offset="0.99" stop-color="#BF190B"/>
<stop offset="1" stop-color="#BF190B"/>
</linearGradient>
<linearGradient id="paint7_linear_440_2545" x1="391.131" y1="332.967" x2="400.501" y2="501.16" gradientUnits="userSpaceOnUse">
<stop stop-color="white"/>
<stop offset="0.23" stop-color="#E4714E"/>
<stop offset="0.56" stop-color="#BE1A0D"/>
<stop offset="0.99" stop-color="#A80D00"/>
<stop offset="1" stop-color="#A80D00"/>
</linearGradient>
<linearGradient id="paint8_linear_440_2545" x1="43.804" y1="571.01" x2="510.195" y2="92.7633" gradientUnits="userSpaceOnUse">
<stop stop-color="#BD0012"/>
<stop offset="0.07" stop-color="white"/>
<stop offset="0.17" stop-color="white"/>
<stop offset="0.27" stop-color="#C82F1C"/>
<stop offset="0.33" stop-color="#820C01"/>
<stop offset="0.46" stop-color="#A31601"/>
<stop offset="0.72" stop-color="#B31301"/>
<stop offset="0.99" stop-color="#E82609"/>
<stop offset="1" stop-color="#E82609"/>
</linearGradient>
<linearGradient id="paint9_linear_440_2545" x1="400.037" y1="619.38" x2="259.912" y2="584.893" gradientUnits="userSpaceOnUse">
<stop stop-color="#8C0C01"/>
<stop offset="0.54" stop-color="#990C00"/>
<stop offset="0.99" stop-color="#A80D0E"/>
<stop offset="1" stop-color="#A80D0E"/>
</linearGradient>
<linearGradient id="paint10_linear_440_2545" x1="640.628" y1="450.785" x2="515.875" y2="339.285" gradientUnits="userSpaceOnUse">
<stop stop-color="#7E110B"/>
<stop offset="0.99" stop-color="#9E0C00"/>
<stop offset="1" stop-color="#9E0C00"/>
</linearGradient>
<linearGradient id="paint11_linear_440_2545" x1="686.348" y1="245.579" x2="624.178" y2="179.297" gradientUnits="userSpaceOnUse">
<stop stop-color="#79130D"/>
<stop offset="0.99" stop-color="#9E120B"/>
<stop offset="1" stop-color="#9E120B"/>
</linearGradient>
<radialGradient id="paint12_radial_440_2545" cx="0" cy="0" r="1" gradientUnits="userSpaceOnUse" gradientTransform="translate(535.572 341.08) scale(152.499 152.923)">
<stop stop-color="#A80D00"/>
<stop offset="0.99" stop-color="#7E0E08"/>
<stop offset="1" stop-color="#7E0E08"/>
</radialGradient>
<radialGradient id="paint13_radial_440_2545" cx="0" cy="0" r="1" gradientUnits="userSpaceOnUse" gradientTransform="translate(324.388 542.605) scale(202.726 203.291)">
<stop stop-color="#A30C00"/>
<stop offset="0.99" stop-color="#800E08"/>
<stop offset="1" stop-color="#800E08"/>
</radialGradient>
<linearGradient id="paint14_linear_440_2545" x1="180.768" y1="699.252" x2="129.993" y2="527.467" gradientUnits="userSpaceOnUse">
<stop stop-color="#8B2114"/>
<stop offset="0.43" stop-color="#9E100A"/>
<stop offset="0.99" stop-color="#B3100C"/>
<stop offset="1" stop-color="#B3100C"/>
</linearGradient>
<linearGradient id="paint15_linear_440_2545" x1="568.302" y1="129.759" x2="681.657" y2="179.657" gradientUnits="userSpaceOnUse">
<stop stop-color="#B31000"/>
<stop offset="0.44" stop-color="#910F08"/>
<stop offset="0.99" stop-color="#791C12"/>
<stop offset="1" stop-color="#791C12"/>
</linearGradient>
</defs>
</svg>
