<svg width="800" height="800" viewBox="0 0 800 800" fill="none" xmlns="http://www.w3.org/2000/svg">
<path d="M342.367 494.74C342.367 494.74 377.631 491.717 377.631 446.176C377.631 400.634 334.911 396.402 334.911 396.402H257.934V540.08H296.624V505.42L330.075 540.08H387.304L342.367 494.74ZM327.455 465.319H296.624V432.473H327.657C327.657 432.473 336.322 435.697 336.322 448.795C336.322 461.894 327.455 465.319 327.455 465.319ZM473.148 397.41H433.853C405.843 397.41 396.372 422.8 396.372 434.891V540.08H435.667V514.891H472.543V540.08H510.629V434.891C510.629 404.261 482.82 397.41 473.148 397.41ZM472.543 474.186H435.465V439.324C435.465 439.324 435.465 431.465 447.757 431.465H461.259C472.14 431.465 472.342 439.324 472.342 439.324V474.186H472.543ZM528.563 397.41H569.47V540.08H528.563V397.41ZM626.901 503.203V397.41H586.196V503.203V540.08H626.901H681.913V503.203H626.901ZM695.415 503.606V540.08H761.309C774.81 540.08 797.984 530.206 798.79 502.599V488.493C798.79 464.916 779.445 451.012 761.309 451.012H728.463V434.085H793.551V397.41H731.082C714.961 397.41 693.4 410.71 693.4 435.496V448.191C693.4 472.977 714.76 485.672 731.082 485.672C776.422 485.873 720.201 485.672 762.115 485.672V503.405L695.415 503.606Z" fill="#CC0000"/>
<path d="M14.1058 539.879H173.3C173.3 539.879 142.872 401.037 243.627 344.816C265.592 334.136 335.516 294.236 449.975 378.871C453.602 375.849 457.028 373.43 457.028 373.43C457.028 373.43 352.242 268.846 235.567 280.534C176.927 285.773 104.786 339.173 62.4685 409.702C20.1511 480.231 14.1058 539.879 14.1058 539.879ZM345.793 291.818L346.6 278.317C344.786 277.31 339.748 274.891 327.053 271.264L326.247 284.564C332.897 286.781 339.345 289.199 345.793 291.818ZM326.65 334.539L325.844 347.234C332.494 347.435 339.144 348.241 345.793 349.652L346.6 337.158C339.748 335.748 333.098 334.942 326.65 334.539ZM252.091 271.667H254.106L250.076 259.375C243.829 259.375 237.38 259.778 230.73 260.584L234.559 272.473C240.403 271.869 246.247 271.667 252.091 271.667ZM261.763 345.823L266.398 359.728C272.242 356.906 278.086 354.488 283.929 352.675L279.496 339.375C272.645 341.39 266.801 343.607 261.763 345.823ZM170.277 292.826L161.209 278.922C156.171 281.541 150.932 284.362 145.491 287.587L154.761 301.692C160 298.468 165.038 295.446 170.277 292.826ZM211.587 383.506L221.259 398.015C224.685 392.977 228.715 388.342 233.149 383.707L224.081 370.005C219.446 374.236 215.214 378.871 211.587 383.506ZM182.368 448.393L198.69 461.289C199.496 453.43 200.907 445.571 202.922 437.713L188.413 426.226C185.793 433.682 183.98 441.138 182.368 448.393ZM94.1058 352.675L79.7985 340.181C74.5592 345.219 69.5214 350.257 64.8867 355.294L80.403 368.594C84.6348 363.153 89.2695 357.713 94.1058 352.675ZM33.2494 442.75L10.0756 434.287C6.24685 442.952 2.01511 453.027 0 458.468L23.1738 466.932C25.7935 460.08 30.0252 450.206 33.2494 442.75ZM179.345 499.577C179.748 510.257 180.756 518.922 181.763 524.967L205.945 533.632C204.131 525.773 202.317 516.906 201.108 507.435L179.345 499.577Z" fill="#CC0000"/>
</svg>
