<svg width="800" height="800" viewBox="0 0 800 800" fill="none" xmlns="http://www.w3.org/2000/svg">
<path d="M789.567 390.3L756.4 369.766C756.124 366.541 755.813 363.319 755.467 360.1L783.967 333.533C785.374 332.199 786.419 330.53 787.006 328.682C787.593 326.835 787.701 324.868 787.322 322.967C786.942 321.066 786.087 319.292 784.836 317.811C783.584 316.331 781.978 315.191 780.167 314.5L743.734 300.866C742.833 297.716 741.877 294.583 740.867 291.466L763.6 259.9C764.74 258.322 765.457 256.479 765.683 254.547C765.909 252.614 765.637 250.655 764.892 248.857C764.147 247.059 762.954 245.482 761.426 244.276C759.899 243.07 758.088 242.275 756.167 241.966L717.767 235.733C716.268 232.831 714.724 229.953 713.134 227.1L729.267 191.666C730.934 188.066 730.567 183.866 728.367 180.6C726.167 177.333 722.434 175.4 718.467 175.533L679.467 176.9C677.466 174.366 675.41 171.877 673.3 169.433L682.267 131.466C682.709 129.573 682.661 127.599 682.127 125.729C681.594 123.86 680.592 122.157 679.218 120.782C677.843 119.408 676.14 118.406 674.271 117.873C672.401 117.339 670.427 117.291 668.534 117.733L630.567 126.7C628.089 124.618 625.588 122.562 623.067 120.533L624.434 81.533C624.527 79.5818 624.114 77.6396 623.235 75.895C622.356 74.1503 621.041 72.6625 619.418 71.5758C617.794 70.4891 615.918 69.8404 613.97 69.6928C612.022 69.5451 610.069 69.9035 608.3 70.733L572.867 86.8997C570 85.333 567.134 83.7664 564.234 82.2664L557.967 43.833C557.642 41.9212 556.837 40.1231 555.628 38.6069C554.419 37.0906 552.845 35.9058 551.053 35.1632C549.262 34.4207 547.311 34.1446 545.384 34.3608C543.457 34.5771 541.616 35.2786 540.034 36.3997L508.434 59.133C505.317 58.1336 502.183 57.189 499.034 56.2997L485.4 19.8664C484.709 18.0552 483.569 16.4489 482.089 15.1976C480.608 13.9464 478.834 13.091 476.933 12.7114C475.032 12.3318 473.065 12.4405 471.218 13.0272C469.37 13.6139 467.701 14.6596 466.367 16.0664L439.8 44.5997C436.583 44.2375 433.361 43.9263 430.134 43.6664L409.6 10.4997C408.579 8.84557 407.152 7.4801 405.454 6.53305C403.756 5.58601 401.844 5.08887 399.9 5.08887C397.956 5.08887 396.045 5.58601 394.347 6.53305C392.649 7.4801 391.222 8.84557 390.2 10.4997L369.667 43.6664C366.434 43.933 363.2 44.2664 360 44.5997L333.4 16.0664C332.075 14.6422 330.407 13.5808 328.556 12.9834C326.704 12.3859 324.731 12.2722 322.823 12.6531C320.915 13.034 319.136 13.8968 317.656 15.1594C316.176 16.422 315.044 18.0424 314.367 19.8664L300.734 56.2997C297.567 57.1997 294.467 58.1664 291.334 59.133L259.767 36.3997C258.185 35.2786 256.344 34.5771 254.417 34.3608C252.489 34.1446 250.539 34.4207 248.747 35.1632C246.956 35.9058 245.382 37.0906 244.173 38.6069C242.964 40.1231 242.159 41.9212 241.834 43.833L235.567 82.2664C232.665 83.765 229.787 85.3096 226.934 86.8997L191.5 70.733C189.73 69.9235 187.782 69.5806 185.842 69.7371C183.902 69.8935 182.035 70.5441 180.417 71.6269C178.8 72.7096 177.486 74.1885 176.602 75.9225C175.718 77.6565 175.293 79.5881 175.367 81.533L176.734 120.533C174.2 122.533 171.7 124.6 169.234 126.7L131.267 117.733C129.374 117.291 127.399 117.339 125.53 117.873C123.66 118.406 121.958 119.408 120.583 120.782C119.208 122.157 118.207 123.86 117.673 125.729C117.14 127.599 117.092 129.573 117.534 131.466L126.467 169.433C124.4 171.9 122.334 174.4 120.334 176.9L81.3337 175.533C79.3887 175.459 77.4572 175.884 75.7231 176.768C73.9891 177.652 72.5102 178.966 71.4275 180.583C70.3447 182.201 69.6942 184.068 69.5377 186.008C69.3812 187.949 69.7241 189.896 70.5337 191.666L86.7003 227.1C85.1093 229.952 83.5646 232.83 82.067 235.733L43.667 241.966C41.7552 242.292 39.957 243.096 38.4408 244.305C36.9246 245.515 35.7398 247.088 34.9972 248.88C34.2546 250.671 33.9785 252.622 34.1948 254.549C34.411 256.476 35.1125 258.317 36.2337 259.9L58.967 291.466C57.967 294.6 57.0336 297.7 56.1003 300.866L19.667 314.5C17.8558 315.191 16.2495 316.331 14.9982 317.811C13.747 319.292 12.8916 321.066 12.512 322.967C12.1325 324.868 12.2411 326.835 12.8278 328.682C13.4146 330.53 14.4602 332.199 15.867 333.533L44.367 360.1C44.0048 363.317 43.6936 366.539 43.4337 369.766L10.267 390.3C8.59707 391.309 7.21594 392.732 6.25728 394.431C5.29863 396.131 4.79492 398.049 4.79492 400C4.79492 401.951 5.29863 403.869 6.25728 405.568C7.21594 407.268 8.59707 408.691 10.267 409.7L43.4337 430.233C43.7003 433.466 44.0336 436.7 44.367 439.9L15.867 466.5C14.4428 467.825 13.3814 469.493 12.784 471.344C12.1865 473.196 12.0728 475.169 12.4537 477.077C12.8346 478.985 13.6974 480.764 14.9601 482.244C16.2227 483.724 17.843 484.856 19.667 485.533L56.1003 499.166C57.0003 502.333 57.967 505.466 58.967 508.566L36.2337 540.133C35.0837 541.71 34.3592 543.556 34.1299 545.495C33.9006 547.433 34.1742 549.397 34.9244 551.199C35.6745 553.001 36.876 554.579 38.4131 555.782C39.9502 556.985 41.771 557.771 43.7003 558.066L82.1003 564.3C83.6003 567.2 85.1337 570.066 86.7337 572.933L70.567 608.366C69.7574 610.136 69.4146 612.084 69.571 614.024C69.7275 615.964 70.3781 617.832 71.4608 619.45C72.5436 621.067 74.0224 622.38 75.7564 623.264C77.4905 624.148 79.422 624.574 81.367 624.5L120.334 623.133C122.367 625.666 124.4 628.166 126.5 630.633L117.567 668.633C117.122 670.525 117.169 672.5 117.702 674.369C118.235 676.238 119.237 677.94 120.613 679.313C121.989 680.685 123.694 681.684 125.564 682.212C127.435 682.741 129.409 682.782 131.3 682.333L169.267 673.4C171.734 675.5 174.234 677.533 176.767 679.533L175.4 718.533C175.313 720.482 175.731 722.419 176.612 724.159C177.493 725.899 178.809 727.383 180.431 728.465C182.054 729.548 183.928 730.194 185.873 730.34C187.818 730.486 189.768 730.128 191.534 729.3L226.967 713.166C229.834 714.766 232.7 716.3 235.6 717.8L241.867 756.2C242.188 758.114 242.989 759.916 244.196 761.437C245.403 762.957 246.977 764.146 248.769 764.892C250.561 765.638 252.513 765.917 254.443 765.703C256.372 765.489 258.216 764.788 259.8 763.666L291.367 740.933C294.5 741.933 297.6 742.9 300.767 743.8L314.4 780.233C315.07 782.063 316.198 783.691 317.678 784.959C319.158 786.228 320.939 787.094 322.85 787.476C324.762 787.858 326.739 787.741 328.592 787.138C330.446 786.536 332.113 785.466 333.434 784.033L360.034 755.533C363.234 755.9 366.467 756.2 369.7 756.5L390.234 789.666C391.261 791.313 392.69 792.671 394.387 793.612C396.084 794.553 397.993 795.047 399.934 795.047C401.874 795.047 403.783 794.553 405.48 793.612C407.177 792.671 408.606 791.313 409.634 789.666L430.167 756.5C433.4 756.2 436.634 755.9 439.834 755.533L466.4 784.033C467.734 785.44 469.403 786.485 471.251 787.072C473.099 787.659 475.065 787.768 476.966 787.388C478.867 787.008 480.641 786.153 482.122 784.902C483.603 783.65 484.742 782.044 485.434 780.233L499.067 743.8C502.234 742.9 505.367 741.933 508.467 740.933L540.034 763.666C541.611 764.816 543.457 765.541 545.395 765.77C547.333 765.999 549.298 765.726 551.1 764.976C552.902 764.225 554.48 763.024 555.683 761.487C556.885 759.95 557.672 758.129 557.967 756.2L564.234 717.8C567.134 716.3 570 714.733 572.867 713.166L608.3 729.3C610.068 730.098 612.01 730.433 613.944 730.274C615.877 730.115 617.738 729.466 619.352 728.389C620.966 727.313 622.279 725.843 623.168 724.119C624.057 722.394 624.492 720.472 624.434 718.533L623.067 679.533C625.6 677.533 628.1 675.5 630.534 673.4L668.5 682.333C670.39 682.773 672.361 682.724 674.227 682.192C676.093 681.66 677.793 680.662 679.166 679.292C680.54 677.921 681.542 676.224 682.079 674.359C682.616 672.494 682.669 670.524 682.234 668.633L673.3 630.633C675.367 628.166 677.434 625.666 679.434 623.133L718.434 624.5C720.385 624.593 722.327 624.18 724.072 623.301C725.816 622.422 727.304 621.107 728.391 619.484C729.478 617.86 730.126 615.984 730.274 614.036C730.422 612.088 730.063 610.135 729.234 608.366L713.1 572.933C714.667 570.066 716.234 567.2 717.734 564.3L756.134 558.066C758.045 557.741 759.844 556.936 761.36 555.727C762.876 554.518 764.061 552.944 764.803 551.153C765.546 549.361 765.822 547.411 765.606 545.483C765.39 543.556 764.688 541.715 763.567 540.133L740.834 508.566L743.7 499.166L780.134 485.533C781.958 484.856 783.578 483.724 784.841 482.244C786.103 480.764 786.966 478.985 787.347 477.077C787.728 475.169 787.614 473.196 787.017 471.344C786.419 469.493 785.358 467.825 783.934 466.5L755.434 439.9C755.767 436.7 756.1 433.466 756.367 430.233L789.534 409.7C791.204 408.691 792.585 407.268 793.543 405.568C794.502 403.869 795.006 401.951 795.006 400C795.006 398.049 794.502 396.131 793.543 394.431C792.585 392.732 791.237 391.309 789.567 390.3ZM567.6 665.4C564.582 664.754 561.721 663.52 559.179 661.769C556.638 660.017 554.466 657.782 552.789 655.191C549.401 649.959 548.23 643.595 549.534 637.5C550.179 634.481 551.413 631.62 553.165 629.079C554.916 626.537 557.151 624.366 559.742 622.688C564.974 619.3 571.338 618.129 577.434 619.433C580.452 620.081 583.313 621.317 585.853 623.07C588.394 624.824 590.564 627.061 592.24 629.653C593.916 632.245 595.066 635.142 595.622 638.179C596.178 641.215 596.131 644.331 595.484 647.35C594.836 650.368 593.6 653.229 591.846 655.769C590.093 658.31 587.856 660.48 585.264 662.156C582.671 663.833 579.774 664.982 576.738 665.538C573.701 666.095 570.618 666.047 567.6 665.4ZM556.334 589.2C553.584 588.608 550.745 588.565 547.979 589.073C545.213 589.58 542.574 590.629 540.215 592.159C537.855 593.689 535.82 595.67 534.228 597.988C532.635 600.305 531.516 602.915 530.934 605.666L519.167 660.6C482.834 677.1 442.5 686.266 400 686.266C357.974 686.328 316.445 677.18 278.334 659.466L266.567 604.533C265.985 601.782 264.866 599.174 263.273 596.858C261.679 594.541 259.644 592.562 257.284 591.035C254.923 589.508 252.284 588.463 249.518 587.959C246.752 587.455 243.914 587.503 241.167 588.1L192.667 598.5C183.655 589.22 175.28 579.342 167.6 568.933H403.6C406.267 568.933 408.067 568.466 408.067 566.033V482.533C408.067 480.1 406.3 479.633 403.6 479.633H334.567V426.7H409.234C416.034 426.7 445.667 428.633 455.134 466.5C458.1 478.133 464.6 516.033 469.067 528.166C473.5 541.766 491.567 568.933 510.834 568.933H628.434C629.866 568.913 631.293 568.768 632.7 568.5C624.546 579.577 615.612 590.06 605.967 599.866L556.334 589.2ZM229.9 664.266C226.882 664.914 223.766 664.961 220.729 664.405C217.693 663.848 214.796 662.699 212.204 661.023C209.611 659.347 207.375 657.177 205.621 654.636C203.867 652.096 202.632 649.234 201.984 646.216C201.336 643.198 201.289 640.082 201.845 637.045C202.402 634.009 203.551 631.112 205.227 628.52C206.903 625.927 209.073 623.691 211.614 621.937C214.154 620.184 217.015 618.948 220.034 618.3C226.129 616.991 232.495 618.158 237.73 621.543C242.966 624.928 246.642 630.254 247.95 636.35C249.259 642.445 248.092 648.811 244.707 654.046C241.322 659.282 235.996 662.958 229.9 664.266ZM140.367 301.2C141.735 304.035 142.519 307.117 142.673 310.262C142.826 313.406 142.347 316.55 141.262 319.505C140.178 322.461 138.51 325.169 136.359 327.467C134.207 329.766 131.616 331.609 128.739 332.887C125.861 334.165 122.757 334.851 119.609 334.906C116.461 334.961 113.334 334.382 110.414 333.205C107.494 332.028 104.84 330.276 102.611 328.053C100.381 325.831 98.6202 323.183 97.4337 320.266C95.133 314.612 95.1227 308.284 97.4052 302.623C99.6877 296.961 104.084 292.41 109.663 289.932C115.242 287.454 121.566 287.245 127.297 289.348C133.027 291.451 137.715 295.702 140.367 301.2ZM112.867 366.433L163.4 343.966C165.971 342.825 168.292 341.189 170.229 339.15C172.167 337.111 173.684 334.711 174.693 332.086C175.702 329.46 176.184 326.662 176.111 323.85C176.038 321.039 175.411 318.269 174.267 315.7L163.867 292.166H204.8V476.633H122.234C112.052 440.833 108.882 403.402 112.9 366.4L112.867 366.433ZM334.6 348.533V294.166H432.067C437.1 294.166 467.6 300 467.6 322.8C467.6 341.733 444.2 348.533 424.967 348.533H334.6ZM688.8 397.466C688.8 404.666 688.534 411.833 688 418.9H658.367C655.4 418.9 654.2 420.833 654.2 423.766V437.366C654.2 469.4 636.134 476.366 620.3 478.133C605.234 479.833 588.534 471.833 586.467 462.6C577.567 412.6 562.767 401.9 539.367 383.466C568.4 365.033 598.6 337.833 598.6 301.433C598.6 262.133 571.634 237.366 553.267 225.2C527.5 208.2 498.967 204.8 491.267 204.8H184.834C227.183 157.446 283.975 125.388 346.4 113.6L382.534 151.5C384.469 153.537 386.788 155.171 389.358 156.31C391.927 157.448 394.696 158.067 397.505 158.132C400.314 158.197 403.109 157.707 405.728 156.689C408.347 155.671 410.739 154.145 412.767 152.2L453.167 113.533C494.36 121.259 533.38 137.854 567.518 162.167C601.657 186.48 630.097 217.93 650.867 254.333L623.2 316.833C620.907 322.024 620.763 327.912 622.8 333.209C624.836 338.506 628.887 342.781 634.067 345.1L687.334 368.766C688.267 378.233 688.734 387.766 688.734 397.466H688.8ZM382.567 81.3997C384.797 79.2723 387.425 77.605 390.299 76.493C393.174 75.381 396.24 74.8461 399.321 74.9189C402.402 74.9916 405.439 75.6706 408.258 76.917C411.077 78.1633 413.623 79.9528 415.75 82.183C417.878 84.4133 419.545 87.0408 420.657 89.9154C421.769 92.7901 422.304 95.8556 422.231 98.9369C422.158 102.018 421.479 105.055 420.233 107.874C418.987 110.693 417.197 113.239 414.967 115.366C410.402 119.305 404.497 121.338 398.475 121.046C392.453 120.753 386.773 118.156 382.611 113.794C378.45 109.431 376.124 103.635 376.116 97.6055C376.108 91.576 378.417 85.774 382.567 81.3997ZM657.134 302.333C662.367 290.466 676.234 285.133 688.067 290.4C692.321 292.277 695.923 295.374 698.416 299.299C700.909 303.224 702.182 307.801 702.073 312.449C701.964 317.098 700.479 321.61 697.805 325.414C695.131 329.218 691.388 332.144 687.051 333.82C682.713 335.496 677.976 335.848 673.439 334.83C668.901 333.813 664.768 331.472 661.561 328.105C658.354 324.737 656.219 320.494 655.425 315.913C654.631 311.331 655.214 306.617 657.1 302.366L657.134 302.333Z" fill="black"/>
</svg>
