<svg width="854" height="854" viewBox="0 0 854 854" fill="none" xmlns="http://www.w3.org/2000/svg">
<g clip-path="url(#clip0_436_2193)">
<path d="M800.625 0H53.375C23.8968 0 0 23.8968 0 53.375V800.625C0 830.103 23.8968 854 53.375 854H800.625C830.103 854 854 830.103 854 800.625V53.375C854 23.8968 830.103 0 800.625 0Z" fill="url(#paint0_linear_436_2193)"/>
<path d="M194.373 256.692L660.632 109.22C666.913 107.234 672.005 110.661 672.005 116.876V270.661C672.005 276.875 666.913 283.524 660.632 285.51L194.373 432.982C188.092 434.968 183 431.54 183 425.326V271.541C183 265.327 188.092 258.678 194.373 256.692ZM194.373 567.41L660.632 419.939C666.913 417.953 672.005 421.38 672.005 427.594V581.379C672.005 587.594 666.913 594.243 660.632 596.229L194.373 743.7C188.092 745.687 183 742.259 183 736.045V582.26C183 576.046 188.092 569.397 194.373 567.41Z" fill="#FF9800"/>
<g filter="url(#filter0_d_436_2193)">
<path d="M660.63 411.098L194.371 263.626C188.09 261.64 182.998 265.068 182.998 271.282V425.067C182.998 431.281 188.09 437.93 194.371 439.917L660.63 587.388C666.911 589.374 672.003 585.947 672.003 579.732V425.947C672.003 419.733 666.911 413.084 660.63 411.098Z" fill="black"/>
</g>
<path d="M660.63 411.098L194.371 263.626C188.09 261.64 182.998 265.068 182.998 271.282V425.067C182.998 431.281 188.09 437.93 194.371 439.917L660.63 587.388C666.911 589.374 672.003 585.947 672.003 579.732V425.947C672.003 419.733 666.911 413.084 660.63 411.098Z" fill="#FF9800"/>
</g>
<defs>
<filter id="filter0_d_436_2193" x="162.998" y="263.062" width="529.005" height="364.89" filterUnits="userSpaceOnUse" color-interpolation-filters="sRGB">
<feFlood flood-opacity="0" result="BackgroundImageFix"/>
<feColorMatrix in="SourceAlpha" type="matrix" values="0 0 0 0 0 0 0 0 0 0 0 0 0 0 0 0 0 0 127 0" result="hardAlpha"/>
<feOffset dy="20"/>
<feGaussianBlur stdDeviation="10"/>
<feColorMatrix type="matrix" values="0 0 0 0 0 0 0 0 0 0 0 0 0 0 0 0 0 0 0.1 0"/>
<feBlend mode="normal" in2="BackgroundImageFix" result="effect1_dropShadow_436_2193"/>
<feBlend mode="normal" in="SourceGraphic" in2="effect1_dropShadow_436_2193" result="shape"/>
</filter>
<linearGradient id="paint0_linear_436_2193" x1="42700" y1="0" x2="42700" y2="85400" gradientUnits="userSpaceOnUse">
<stop stop-color="#4D4D4D"/>
<stop offset="1" stop-color="#444444"/>
</linearGradient>
<clipPath id="clip0_436_2193">
<rect width="854" height="854" fill="white"/>
</clipPath>
</defs>
</svg>
