<svg width="708" height="699" viewBox="0 0 708 699" fill="none" xmlns="http://www.w3.org/2000/svg">
<g clip-path="url(#clip0_440_2541)">
<rect width="708" height="699" rx="170" fill="white"/>
<path d="M157.364 0C161.512 0 542.615 0 549.529 0C568.612 0 587.142 3.00352 605.118 9.28359C631.115 18.5672 654.623 34.95 672.323 56.2477C690.3 77.5453 702.192 103.758 706.34 131.062C708 141.165 708.276 151.268 708.276 161.371C708.276 170.654 708.276 497.764 708.276 512.509C708.276 521.246 708.276 530.257 708.276 538.995C708.276 551.009 707.723 563.296 705.234 575.037C699.703 602.068 686.704 627.462 667.898 647.94C649.368 668.419 625.031 683.709 598.758 691.901C582.717 696.816 566.123 699 549.253 699C541.786 699 156.258 699 150.45 698.727C122.24 697.362 94.3075 688.351 70.7997 672.787C47.845 657.497 29.0388 636.199 16.87 611.625C6.36066 590.6 1.10597 567.118 1.10597 543.636C1.10597 538.175 1.10597 160.825 1.10597 155.364C0.552847 132.155 5.53097 109.219 15.7638 88.4672C27.656 63.893 46.1857 42.3223 69.1404 27.0316C92.6482 11.1949 120.304 1.91133 148.514 0.546094C151.279 0 154.322 0 157.364 0Z" fill="url(#paint0_linear_440_2541)"/>
<path d="M597.375 571.76C594.886 567.937 592.12 564.115 589.078 560.565C582.164 552.374 574.144 545.275 565.294 539.268C554.231 531.895 541.233 527.253 527.958 526.707C518.555 526.161 509.152 527.8 500.302 531.076C491.452 534.08 482.878 538.448 474.581 542.817C464.902 547.732 455.222 552.647 444.989 556.742C432.82 561.657 420.098 565.48 407.1 568.211C390.783 571.214 374.189 572.306 357.872 572.033C328.28 571.487 298.688 567.118 270.478 558.927C245.588 551.555 221.803 541.452 199.402 528.619C179.766 517.424 161.512 504.591 144.366 490.119C130.261 478.105 117.262 465.272 105.094 451.619C96.7969 442.063 88.7766 431.96 81.3094 421.584C78.2672 417.489 75.5016 413.12 73.0125 408.751L0 330.933V154.818C0 69.3539 69.9703 0 156.534 0H296.198L399.633 103.758C633.052 260.487 557.55 433.325 557.55 433.325C557.55 433.325 623.925 507.048 597.375 571.76Z" fill="url(#paint1_linear_440_2541)"/>
<path d="M400.185 103.758C633.604 260.487 558.102 433.325 558.102 433.325C558.102 433.325 624.477 507.321 597.651 572.033C597.651 572.033 570.271 526.707 524.362 526.707C480.112 526.707 454.115 572.033 365.062 572.033C166.766 572.033 73.0117 408.478 73.0117 408.478C251.671 524.523 373.635 442.336 373.635 442.336C293.155 396.191 121.963 175.569 121.963 175.569C271.03 300.898 335.47 333.936 335.47 333.936C297.027 302.536 189.168 149.084 189.168 149.084C275.455 235.366 446.924 355.78 446.924 355.78C495.599 222.533 400.185 103.758 400.185 103.758Z" fill="white"/>
</g>
<defs>
<linearGradient id="paint0_linear_440_2541" x1="421.177" y1="-24.9423" x2="290.692" y2="724.6" gradientUnits="userSpaceOnUse">
<stop stop-color="#FAAE42"/>
<stop offset="1" stop-color="#EF3E31"/>
</linearGradient>
<linearGradient id="paint1_linear_440_2541" x1="361.223" y1="11.294" x2="265.724" y2="559.871" gradientUnits="userSpaceOnUse">
<stop stop-color="#E39F3A"/>
<stop offset="1" stop-color="#D33929"/>
</linearGradient>
<clipPath id="clip0_440_2541">
<rect width="708" height="699" rx="170" fill="white"/>
</clipPath>
</defs>
</svg>
