<svg width="616" height="616" viewBox="0 0 616 616" fill="none" xmlns="http://www.w3.org/2000/svg">
<g clip-path="url(#clip0_440_2568)">
<path opacity="0.968" fill-rule="evenodd" clip-rule="evenodd" d="M-3.20801 35.292C37.4309 35.292 78.07 35.292 118.709 35.292C177.346 143.985 239.373 250.929 304.792 356.125C370.135 251.106 432.163 144.161 490.875 35.292C531.514 35.292 572.153 35.292 612.792 35.292C612.792 41.7087 612.792 48.1253 612.792 54.542C508.677 226.328 406.01 399.578 304.792 574.292C203.574 399.578 100.907 226.328 -3.20801 54.542C-3.20801 48.1253 -3.20801 41.7087 -3.20801 35.292Z" fill="#41B783"/>
<path opacity="0.977" fill-rule="evenodd" clip-rule="evenodd" d="M118.708 35.2918C157.267 34.2257 195.767 35.2951 234.208 38.5001C258.538 75.3902 282.066 112.821 304.791 150.792C327.798 115.487 349.187 79.1253 368.958 41.7085C409.373 35.3154 450.012 33.1764 490.875 35.2918C432.162 144.161 370.135 251.105 304.791 356.125C239.373 250.929 177.345 143.984 118.708 35.2918Z" fill="#35495E"/>
</g>
<defs>
<clipPath id="clip0_440_2568">
<rect width="616" height="616" fill="white"/>
</clipPath>
</defs>
</svg>
