<svg width="800" height="800" viewBox="0 0 800 800" fill="none" xmlns="http://www.w3.org/2000/svg">
<g clip-path="url(#clip0_440_2536)">
<path d="M398.898 800C183.96 800 1.6852 618.45 0.0102043 402.125C-0.3652 349.947 9.6209 298.213 29.3895 249.924C49.1582 201.634 78.316 157.749 115.173 120.813C152.272 82.8168 196.551 52.5708 245.438 31.8312C294.324 11.0915 346.844 0.271743 399.948 0.00015189C452.091 -0.0455596 503.729 10.2269 551.885 30.2256C600.041 50.2243 643.764 79.5541 680.535 116.525C717.904 152.979 747.697 196.462 768.199 244.472C788.701 292.482 799.508 344.073 799.998 396.275C800.998 617.5 623.223 797.75 402.148 800H398.898ZM400.148 20.9377C349.825 21.2311 300.062 31.5171 253.747 51.1984C207.432 70.8798 165.487 99.5645 130.348 135.588C95.3935 170.536 67.7237 212.074 48.9422 257.795C30.1607 303.516 20.6411 352.51 20.9352 401.938C22.5102 606.938 195.26 778.85 398.785 778.85H401.51C611.135 776.95 779.86 606.038 779.048 396.388C778.098 296.488 737.323 201.113 665.76 131.388C630.999 96.3155 589.622 68.492 544.027 49.5303C498.433 30.5685 449.528 20.8581 400.148 20.9377ZM89.7477 517V283.313H146.598V304.25H116.435V496.475H146.585V517.413L89.7477 517ZM282.685 397.85C282.685 440.35 256.81 464.75 221.748 464.75C186.685 464.75 163.323 437.425 163.323 400.05C163.323 361 187.823 333.463 223.623 333.463C259.423 333.463 282.673 362.15 282.673 397.838L282.685 397.85ZM187.835 399.725C187.835 425.6 200.835 445.975 223.123 445.975C245.41 445.975 258.198 425.038 258.198 398.65C258.198 374.675 246.373 352.063 223.123 352.063C199.873 352.063 187.498 374.088 187.498 400.25L187.835 399.725ZM302.498 337.875C313.631 335.953 324.912 335.008 336.21 335.05C348.898 333.8 361.66 336.638 372.648 343.113C381.023 348.05 386.085 357.15 385.835 366.863C385.689 373.073 383.586 379.078 379.826 384.022C376.067 388.967 370.842 392.599 364.898 394.4C379.835 397.438 390.56 410.575 390.548 425.813C390.625 430.819 389.563 435.777 387.44 440.312C385.318 444.847 382.192 448.84 378.298 451.988C369.298 459.95 354.323 463.813 331.173 463.813C321.655 463.859 312.144 463.3 302.698 462.138L302.498 337.875ZM325.535 388.025H337.36C353.36 388.025 362.385 380.488 362.385 369.7C362.385 358.913 353.385 352.2 338.635 352.2C334.219 352.049 329.798 352.363 325.448 353.138L325.535 388.025ZM325.535 446.45C329.61 446.875 333.698 447.05 337.785 446.975C352.785 446.975 365.848 441.325 365.848 426.038C365.848 410.75 353.073 405.1 337.06 405.1H325.56L325.535 446.45ZM436.16 336.2H459.285V418.7C459.285 453.775 442.323 465.5 417.41 465.5C410.747 465.445 404.137 464.314 397.835 462.15L400.66 443.4C405.304 444.85 410.133 445.625 414.998 445.7C428.185 445.7 435.935 439.625 435.935 417.638L436.16 336.2ZM525.16 404.988V421.013H476.998V405L525.16 404.988ZM637.498 459.413C627.085 463.563 615.923 465.488 604.723 465.063C564.41 465.063 539.91 439.813 539.91 401.313C539.435 392.312 540.87 383.313 544.122 374.906C547.373 366.5 552.366 358.877 558.773 352.538C565.181 346.199 572.857 341.288 581.298 338.128C589.739 334.967 598.753 333.628 607.748 334.2C618.506 333.76 629.23 335.689 639.16 339.85L634.16 358.275C626.286 354.929 617.803 353.252 609.248 353.35C583.373 353.35 564.748 369.575 564.748 400.15C564.748 428 581.185 446.025 609.035 446.025C617.682 446.16 626.269 444.557 634.285 441.313L637.498 459.413ZM710.148 282.688V517H653.298V496.063H683.448V303.75H653.298V282.813L710.148 282.688Z" fill="#F1592A"/>
</g>
<defs>
<clipPath id="clip0_440_2536">
<rect width="800" height="800" fill="white"/>
</clipPath>
</defs>
</svg>
