<svg width="1041" height="708" viewBox="0 0 1041 708" fill="none" xmlns="http://www.w3.org/2000/svg">
<path d="M57.1012 530.589L3.73644 704.916H45.7289L55.361 672.433H107.416L116.788 704.916H162.452L109.092 530.589H57.1012ZM65.9079 637.367L81.7607 583.148L97.4347 637.367H65.9079ZM262.786 625.384C262.169 624.721 261.526 624.083 260.859 623.471C262.172 622.975 263.453 622.446 264.705 621.868C269.653 619.623 274.141 616.477 277.94 612.591C281.751 608.632 284.722 603.941 286.673 598.801C288.706 593.564 289.739 587.546 289.739 580.926C289.739 571.799 288.092 563.906 284.856 557.456C281.637 550.997 276.785 545.493 270.784 541.49C264.9 537.543 257.744 534.691 249.511 533.018C241.599 531.411 232.686 530.589 223.03 530.589H168.555V704.916H210.332V636.801H211.572C216.142 636.801 219.952 637.806 223.217 639.881C226.457 641.936 228.942 644.968 230.824 649.167L256.073 704.916H304.681L274.004 642.73C270.288 635.178 266.616 629.51 262.786 625.384ZM244.616 591.941C243.402 594.252 241.643 596.232 239.493 597.711C237.13 599.371 234.199 600.644 230.767 601.499C227.145 602.406 223.01 602.862 218.472 602.862H210.332V566.164H219.513C229.076 566.164 236.183 567.665 240.635 570.632C244.514 573.216 246.401 577.569 246.401 583.949C246.401 587.034 245.815 589.65 244.616 591.941ZM427.08 551.292C420.046 544.216 411.175 538.918 400.713 535.553C390.516 532.261 378.513 530.589 365.043 530.589H309.792V704.916H357.887C373.407 704.916 386.983 702.8 398.233 698.629C409.658 694.402 419.201 688.266 426.588 680.396C433.964 672.543 439.461 662.948 442.917 651.885C446.308 641.053 448.024 628.871 448.024 615.675C448.024 601.291 446.304 588.674 442.905 578.172C439.432 567.413 434.11 558.372 427.08 551.292ZM392.923 657.236C385.669 665.3 375.147 669.219 360.753 669.219H351.565V566.286H362.961C371.016 566.286 377.777 567.425 383.051 569.676C388.166 571.852 392.122 574.929 395.147 579.071C398.237 583.319 400.477 588.649 401.803 594.903C403.197 601.519 403.909 609.185 403.909 617.689C403.909 635.829 400.213 649.134 392.923 657.236ZM548.658 641.489C548.658 647.499 548.105 652.621 547.004 656.715C545.979 660.535 544.47 663.656 542.511 665.988C540.657 668.212 538.23 669.886 535.493 670.826C532.399 671.933 528.443 672.49 523.726 672.49C518.737 672.49 514.623 671.851 511.496 670.586C508.624 669.46 506.083 667.626 504.108 665.255C502.132 662.875 500.717 659.889 499.9 656.365C498.989 652.475 498.53 647.897 498.53 642.746V530.589H456.757V644.634C456.757 654.058 457.924 662.708 460.217 670.342C462.604 678.272 466.54 685.128 471.919 690.707C477.298 696.281 484.34 700.594 492.85 703.512C501.12 706.364 511.114 707.809 522.551 707.809C532.777 707.809 542.161 706.364 550.431 703.512C558.888 700.611 566.178 696.212 572.102 690.434C578.03 684.648 582.629 677.365 585.772 668.787C588.862 660.365 590.431 650.501 590.431 639.47V530.589H548.658V641.489ZM611.793 565.659H649.281V669.597H611.793V704.916H729.066V669.597H691.578V565.659H729.066V530.589H611.793V565.659ZM845.317 629.921L798.617 530.589H751.334V704.916H790.241V603.696L837.19 704.916H884.232V530.589H845.317V629.921ZM1019.47 551.215C1007.27 535.692 988.989 527.822 965.135 527.822C954.929 527.822 945.196 529.633 936.202 533.201C927.082 536.819 919.024 542.45 912.246 549.953C905.529 557.391 900.195 566.957 896.401 578.379C892.648 589.654 890.745 603.175 890.745 618.572C890.745 647.014 896.791 669.141 908.713 684.351C920.91 699.919 939.195 707.809 963.049 707.809C973.258 707.809 983 705.998 991.994 702.43C1001.12 698.808 1009.17 693.173 1015.94 685.682C1022.65 678.248 1027.99 668.686 1031.79 657.256C1035.54 645.985 1037.44 632.464 1037.44 617.059C1037.44 588.535 1031.39 566.38 1019.47 551.215ZM991.978 641.794C990.782 648.227 988.916 653.651 986.432 657.919C984.074 661.984 981.154 664.963 977.516 667.017C973.889 669.064 969.372 670.102 964.094 670.102C953.653 670.102 946.375 666.212 941.845 658.216C936.869 649.431 934.344 635.589 934.344 617.059C934.344 608.359 934.97 600.543 936.214 593.841C937.41 587.42 939.288 582.004 941.809 577.736C944.208 573.655 947.135 570.668 950.758 568.605C954.332 566.567 958.816 565.533 964.094 565.533C974.617 565.533 981.915 569.415 986.399 577.398C991.339 586.187 993.844 600.042 993.844 618.572C993.844 627.296 993.218 635.109 991.978 641.794ZM977.093 23.3559H984.505V42.8584H989.762V23.3559H997.235V18.5138H977.093V23.3559ZM1015.53 18.5138L1010.46 35.107L1005.21 18.5138H998.353V42.8584H1003.3V27.3068L1008.2 42.8584H1012.71L1017.37 27.7097V42.8584H1022.28V18.5138H1015.53ZM773.636 489.606C707.411 489.606 650.789 467.26 600.958 421.553C570.175 393.327 544.796 358.744 521.445 322.787C498.099 358.744 472.716 393.327 441.937 421.553C388.393 470.661 327.007 492.805 254.301 489.236C115.65 488.634 3.03711 379.13 3.03711 244.618C3.03711 109.736 116.268 0 255.447 0C331.609 0 395.732 25.2235 451.463 77.1069C478.233 102.029 500.831 130.939 521.445 161.188C542.059 130.939 564.662 102.029 591.427 77.1069C647.158 25.2235 711.281 0 787.444 0C926.627 0 1039.85 109.736 1039.85 244.618C1039.85 379.13 927.245 488.634 788.59 489.236C783.609 489.482 778.623 489.606 773.636 489.606ZM572.151 241.355C599.775 286.207 626.585 327.955 659.242 357.902C696.104 391.711 734.957 405.619 785.183 402.962L787.444 402.901C879.052 402.901 953.584 331.897 953.584 244.618C953.584 157.343 879.052 86.3353 787.444 86.3353C733.363 86.3353 689.749 103.49 650.188 140.318C620.641 167.829 596.245 203.074 572.151 241.355ZM255.447 86.3353C163.839 86.3353 89.307 157.343 89.307 244.618C89.307 331.897 163.839 402.901 255.447 402.901L257.712 402.962C307.942 405.619 346.787 391.711 383.648 357.902C416.306 327.955 443.12 286.207 470.74 241.355C446.645 203.074 422.25 167.829 392.707 140.318C353.142 103.49 309.527 86.3353 255.447 86.3353Z" fill="#00979C"/>
<path d="M798.853 213.242V166.425H750.16V213.242H703.382V261.736H750.16V308.9H798.853V261.736H845.635V213.242H798.853ZM185.4 212.656H339.16V262.672H185.4V212.656Z" fill="#00979C"/>
</svg>
