<svg width="800" height="800" viewBox="0 0 800 800" fill="none" xmlns="http://www.w3.org/2000/svg">
<path d="M400 750C593.3 750 750 593.3 750 400C750 206.7 593.3 50 400 50C206.7 50 50 206.7 50 400C50 593.3 206.7 750 400 750Z" fill="url(#paint0_linear_440_2420)"/>
<path fill-rule="evenodd" clip-rule="evenodd" d="M287.295 393.728C278.555 372.415 271.49 351.613 266.188 331.868C255.933 334.098 246.3 336.648 237.388 339.485C216.087 346.265 199.469 354.498 188.251 363.445C177.024 372.398 172.191 381.208 171.789 389.343C171.447 396.275 174.234 403.94 181.42 412.263C188.656 420.643 199.894 429.103 214.965 437.095C220.26 439.903 222.251 446.423 219.411 451.66C216.571 456.895 209.976 458.863 204.68 456.055C188.175 447.303 174.448 437.325 164.87 426.233C155.242 415.083 149.366 402.243 150.055 388.293C150.867 371.843 160.57 357.878 174.59 346.698C188.62 335.508 207.961 326.248 230.72 319.005C240.2 315.988 250.373 313.29 261.143 310.935C258.973 300.733 257.325 290.895 256.21 281.51C253.428 258.03 253.918 236.789 258.388 219.523C262.853 202.27 271.675 187.744 286.473 180.184C299.53 173.513 314.42 173.735 329.258 178.266C344.035 182.778 359.57 191.769 375.123 203.97C379.83 207.663 380.62 214.43 376.885 219.084C373.15 223.738 366.305 224.518 361.598 220.825C347.3 209.609 334.16 202.281 322.838 198.823C311.575 195.384 302.943 195.987 296.46 199.298C289.143 203.037 283.045 211.042 279.468 224.858C275.893 238.662 275.218 257.03 277.823 279.003C278.87 287.83 280.435 297.14 282.51 306.853C303.153 303.44 325.525 301.198 349.07 300.283C376.375 266.083 405.045 237.974 432.078 218.294C451.333 204.279 470.24 194.184 487.625 189.476C504.998 184.771 522.13 185.157 536.1 194.127C548.533 202.111 555.723 215.162 559.053 230.317C562.368 245.413 562.075 263.423 558.93 283.055C557.988 288.923 552.415 292.928 546.48 291.998C540.545 291.068 536.498 285.558 537.438 279.688C540.333 261.615 540.335 246.485 537.788 234.883C535.25 223.339 530.418 216.132 524.248 212.172C517.34 207.736 507.285 206.459 493.373 210.227C479.475 213.991 463 222.502 444.98 235.62C423.373 251.348 400.24 273.19 377.523 299.83C386.535 299.888 395.68 300.138 404.925 300.583C471.908 303.815 532.535 316.858 576.488 335.693C598.425 345.093 616.763 356.17 629.623 368.658C642.475 381.135 650.758 395.968 649.945 412.418C649.265 426.188 642.323 438.273 631.865 448.365C621.468 458.4 607.135 466.955 590.213 474.055C584.683 476.375 578.295 473.823 575.948 468.353C573.6 462.883 576.183 456.568 581.715 454.248C597.13 447.78 608.845 440.515 616.668 432.968C624.428 425.478 627.873 418.218 628.21 411.37C628.613 403.235 624.67 394.003 614.378 384.01C604.095 374.025 588.368 364.23 567.835 355.433C526.848 337.87 468.923 325.213 403.865 322.073C388.868 321.348 374.2 321.165 359.983 321.475C350.903 333.263 341.975 345.783 333.325 358.948C325.408 371.005 318.085 383.053 311.383 394.975C317.195 408.465 323.713 422.183 330.92 435.978C360.82 493.193 396.515 540.043 429.693 569.618C446.313 584.433 461.855 594.513 475.31 599.618C488.778 604.725 498.91 604.438 506.228 600.7C513.278 597.098 519.185 589.553 522.815 576.645C526.45 563.72 527.44 546.51 525.393 525.82C521.303 484.513 505.345 431.653 478.243 376.763C475.608 371.423 477.848 364.983 483.248 362.375C488.648 359.77 495.163 361.985 497.798 367.323C525.708 423.853 542.643 479.22 547.048 523.725C549.248 545.943 548.385 566.035 543.78 582.408C539.173 598.795 530.46 612.538 516.218 619.815C501.418 627.375 484.333 626.085 467.515 619.705C450.688 613.32 432.88 601.425 415.123 585.595C379.545 553.88 342.373 504.763 311.588 445.855C306.948 436.975 302.575 428.105 298.475 419.285C282.143 451.973 270.755 483.05 264.79 509.96C260 531.573 258.838 549.918 261.013 564.003C263.19 578.1 268.458 586.663 275.368 591.098C281.865 595.27 291.115 596.645 303.785 593.665C316.485 590.678 331.565 583.513 348.2 572.183C353.15 568.813 359.925 570.048 363.333 574.94C366.743 579.835 365.493 586.533 360.545 589.903C342.618 602.11 325.043 610.78 308.82 614.598C292.568 618.42 276.635 617.565 263.515 609.143C249.545 600.173 242.221 584.855 239.501 567.25C236.78 549.633 238.416 528.448 243.535 505.355C250.928 472.008 265.855 433.473 287.295 393.728ZM301.118 369.458C295.765 355.13 291.263 341.188 287.62 327.825C301.57 325.57 316.415 323.858 331.968 322.76C326.235 330.665 320.595 338.83 315.078 347.23C310.213 354.635 305.558 362.053 301.118 369.458Z" fill="white"/>
<path d="M401.002 430.44C418.169 430.44 432.087 416.68 432.087 399.705C432.087 382.73 418.169 368.97 401.002 368.97C383.832 368.97 369.914 382.73 369.914 399.705C369.914 416.68 383.832 430.44 401.002 430.44Z" fill="white"/>
<defs>
<linearGradient id="paint0_linear_440_2420" x1="400" y1="50" x2="400" y2="750" gradientUnits="userSpaceOnUse">
<stop stop-color="#B2E299"/>
<stop offset="1" stop-color="#03A171"/>
</linearGradient>
</defs>
</svg>
