<svg width="963" height="963" viewBox="0 0 963 963" fill="none" xmlns="http://www.w3.org/2000/svg">
<g clip-path="url(#clip0_436_1797)">
<path d="M0 838.829C0 907.413 55.5944 963 124.171 963H838.826C907.413 963 963 907.406 963 838.829V124.174C963 55.5869 907.406 0 838.829 0H124.174C55.5869 0 0 55.5944 0 124.171V838.829Z" fill="#563D7C"/>
<path d="M399.336 425.969V289.596H519.376C530.811 289.596 541.833 290.548 552.449 292.455C563.064 294.358 572.457 297.759 580.624 302.66C588.787 307.562 595.321 314.367 600.223 323.075C605.121 331.787 607.573 342.948 607.573 356.555C607.573 381.055 600.223 398.75 585.522 409.636C570.825 420.526 552.043 425.969 529.175 425.969H399.336ZM271.125 189.967V773.033H553.675C579.808 773.033 605.26 769.768 630.031 763.234C654.802 756.7 676.849 746.63 696.177 733.02C715.501 719.41 730.882 701.85 742.314 680.348C753.75 658.842 759.464 633.391 759.464 603.993C759.464 567.515 750.616 536.35 732.925 510.492C715.23 484.63 688.416 466.528 652.484 456.184C678.617 443.665 698.355 427.602 711.694 408.004C725.029 388.405 731.699 363.909 731.699 334.507C731.699 307.287 727.207 284.424 718.224 265.912C709.241 247.404 696.583 232.568 680.25 221.407C663.92 210.246 644.321 202.215 621.454 197.317C598.59 192.416 573.274 189.967 545.509 189.967H271.125ZM399.336 673.404V513.347H538.974C566.74 513.347 589.062 519.742 605.941 532.539C622.816 545.333 631.257 566.699 631.257 596.642C631.257 611.889 628.669 624.408 623.496 634.207C618.324 644.006 611.384 651.767 602.672 657.481C593.963 663.199 583.889 667.28 572.457 669.733C561.022 672.178 549.048 673.404 536.526 673.404H399.336Z" fill="white"/>
</g>
<defs>
<clipPath id="clip0_436_1797">
<rect width="963" height="963" fill="white"/>
</clipPath>
</defs>
</svg>
