<svg width="800" height="800" viewBox="0 0 800 800" fill="none" xmlns="http://www.w3.org/2000/svg">
<path d="M754.359 234.59C754.354 221.173 751.484 209.318 745.681 199.143C739.981 189.137 731.445 180.751 719.995 174.12C625.481 119.623 530.876 65.2927 436.393 10.7399C410.92 -3.96562 386.223 -3.42951 360.94 11.4872C323.32 33.6733 134.973 141.582 78.8481 174.09C55.7342 187.47 44.487 207.948 44.4814 234.565C44.4453 344.162 44.4814 453.757 44.4453 563.357C44.4453 576.479 47.1981 588.104 52.7453 598.126C58.4481 608.434 67.1036 617.051 78.8175 623.832C134.945 656.34 323.318 764.24 360.929 786.432C386.223 801.357 410.92 801.89 436.401 787.179C530.887 732.623 625.498 678.295 720.026 623.798C731.74 617.021 740.395 608.398 746.098 598.098C751.637 588.076 754.395 576.451 754.395 563.326C754.395 563.326 754.395 344.19 754.359 234.59Z" fill="#A179DC"/>
<path d="M400.507 397.893L52.7461 598.126C58.4489 608.434 67.1044 617.051 78.8183 623.831C134.946 656.34 323.318 764.24 360.929 786.431C386.224 801.356 410.921 801.89 436.402 787.179C530.888 732.623 625.499 678.295 720.027 623.798C731.74 617.02 740.396 608.398 746.099 598.098L400.507 397.893Z" fill="#280068"/>
<path d="M754.359 234.59C754.353 221.173 751.484 209.318 745.681 199.143L400.506 397.893L746.098 598.098C751.636 588.076 754.389 576.451 754.395 563.326C754.395 563.326 754.395 344.19 754.359 234.59Z" fill="#390091"/>
<path d="M605.258 323.039V360.466H642.684V323.039H661.398V360.466H698.825V379.179H661.398V416.606H698.825V435.32H661.398V472.747H642.684V435.32H605.258V472.747H586.544V435.32H549.117V416.606H586.544V379.179H549.117V360.466H586.544V323.039H605.258ZM642.684 379.179H605.258V416.606H642.684V379.179Z" fill="white"/>
<path d="M401.269 135.072C498.891 135.072 584.122 188.09 629.774 266.895L629.329 266.136L514.472 332.27C491.842 293.955 450.357 268.098 402.768 267.565L401.269 267.557C328.698 267.557 269.864 326.389 269.864 398.96C269.864 422.692 276.191 444.938 287.194 464.153C309.844 503.695 352.424 530.365 401.269 530.365C450.416 530.365 493.238 503.356 515.774 463.391L515.226 464.35L629.911 530.789C584.76 608.927 500.696 661.781 404.209 662.834L401.269 662.85C303.34 662.85 217.866 609.506 172.329 530.285C150.099 491.61 137.379 446.772 137.379 398.96C137.379 253.221 255.524 135.072 401.269 135.072Z" fill="white"/>
</svg>
