<svg width="800" height="800" viewBox="0 0 800 800" fill="none" xmlns="http://www.w3.org/2000/svg">
<path d="M604.518 324.879C623.271 324.879 640.601 326.866 661.624 331.127L646.644 362.685C634.995 360.413 645.711 362.381 636.908 361.529V366.076L637.474 384.539L637.757 408.405C638.041 414.368 638.041 420.336 638.327 426.301V438.234C638.327 475.736 635.202 493.349 625.827 507.836C612.19 529.146 588.61 539.656 555.087 539.656C538.041 539.656 523.271 537.1 507.927 531.132V490.792H507.929C523.273 498.746 538.613 502.437 554.805 502.437C583.497 502.437 595.714 490.792 595.714 462.949V462.097C587.191 466.356 578.667 468.062 567.306 468.062C528.953 468.062 504.517 442.778 504.517 402.721C504.517 353.001 540.6 324.879 604.518 324.879ZM207.671 327.72V429.14C207.671 464.085 205.115 480.846 197.445 495.335C190.341 509.259 180.965 518.063 161.648 527.723L121.021 508.404C140.34 499.314 149.715 491.362 155.68 479.141C161.932 466.642 163.922 452.152 163.922 414.084V327.72H207.671ZM729.544 324.027C773.293 324.027 800 351.586 800 396.188C800 441.929 772.161 470.623 727.84 470.623C684.087 470.623 657.098 443.064 657.098 398.746C657.099 352.719 684.942 324.027 729.544 324.027ZM292.054 324.597C314.498 324.597 329.27 330.561 335.806 342.21C339.497 348.744 340.633 357.266 340.633 375.45V464.369C321.028 467.21 296.314 469.2 278.133 469.2C241.485 469.2 225.005 456.411 225.005 428.004C225.005 397.32 246.881 383.117 300.577 378.57V368.911C300.577 360.957 296.6 358.118 285.519 358.118C269.327 358.118 251.144 362.663 234.096 371.471V337.663H234.098C253.418 328.574 271.883 324.597 292.054 324.597ZM138.071 260.156V462.667C115.628 466.928 99.1494 468.632 81.2527 468.632C27.8411 468.632 0 444.486 0 398.176C0 353.573 29.5474 324.597 75.2853 324.597C82.3871 324.597 87.7846 325.164 94.3201 326.868V260.156H138.071ZM430.692 324.597C453.136 324.597 469.33 329.709 478.992 339.653C488.082 349.026 490.921 359.252 490.921 381.132V466.926H447.17V382.836C447.17 366.076 441.489 359.822 425.865 359.822C419.899 359.822 414.502 360.391 405.692 362.947V466.926H361.942V334.538C387.793 327.72 409.1 324.597 430.692 324.597ZM302.565 407.267C273.586 410.107 264.211 414.654 264.211 426.017C264.211 434.54 269.611 438.517 281.542 438.517C288.077 438.517 294.041 437.95 302.565 436.53V407.267ZM728.978 359.254C711.645 359.254 701.699 373.178 701.699 397.322C701.701 421.472 711.645 435.392 728.688 435.392C745.452 435.392 755.397 421.47 755.397 397.322C755.397 373.46 745.736 359.254 728.978 359.254ZM79.5482 359.822C57.3886 359.822 44.6034 373.46 44.6034 397.322C44.6034 420.62 56.8204 433.403 79.2642 433.403C84.0916 433.403 88.0705 433.119 94.3201 432.269V362.093C89.2068 360.391 84.9456 359.822 79.5482 359.822ZM565.034 366.354C554.525 372.322 549.124 383.118 549.124 398.458C549.124 420.336 559.922 432.835 579.239 432.835C585.205 432.835 590.036 431.697 595.716 429.994V414.938C595.716 409.825 595.433 404.14 595.433 398.176L595.151 378.007L594.865 363.517V360.107H590.318C581.798 359.822 571.855 362.093 565.034 366.354ZM207.671 260.389V305.276H163.922V260.389H207.671Z" fill="#092E20"/>
</svg>
