<svg width="800" height="800" viewBox="0 0 800 800" fill="none" xmlns="http://www.w3.org/2000/svg">
<g clip-path="url(#clip0_440_2412)">
<path d="M202.5 623.75L8.75 471.25L105 292.5L381.25 400L202.5 623.75Z" fill="url(#paint0_linear_440_2412)"/>
<path d="M800 213.75L785 676.25L477.5 800L292.5 680L562.5 400L445 140L551.25 12.5L800 213.75Z" fill="url(#paint1_linear_440_2412)"/>
<path d="M800 213.75L556.25 501.25L445 140L551.25 12.5L800 213.75Z" fill="url(#paint2_linear_440_2412)"/>
<path d="M385 663.75L65 780L116.25 600L182.5 377.5L0 316.25L116.25 0L366.25 30L613.75 312.5L385 663.75Z" fill="url(#paint3_linear_440_2412)"/>
<path d="M650 150H150V650H650V150Z" fill="black"/>
<path d="M197.5 556.25H385V587.5H197.5V556.25ZM331.25 252.5V215H228.75V252.5H257.5V383.75H228.75V422.5H331.25V383.75H302.5V252.5H331.25ZM431.25 425C416.979 425.644 402.781 422.632 390 416.25C379.544 410.481 370.225 402.857 362.5 393.75L391.25 361.25C396.441 366.954 402.32 371.992 408.75 376.25C414.8 379.797 421.742 381.533 428.75 381.25C436.457 381.839 443.952 378.56 448.75 372.5C454.54 365.044 457.226 355.64 456.25 346.25V212.5H502.5V347.5C502.974 358.556 501.276 369.598 497.5 380C494.202 390.553 488.163 400.043 480 407.5C465.834 418.017 448.871 424.106 431.25 425Z" fill="white"/>
</g>
<defs>
<linearGradient id="paint0_linear_440_2412" x1="8.75" y1="16855" x2="37183.7" y2="16855" gradientUnits="userSpaceOnUse">
<stop offset="0.26" stop-color="#F97A12"/>
<stop offset="0.46" stop-color="#B07B58"/>
<stop offset="0.72" stop-color="#577BAE"/>
<stop offset="0.91" stop-color="#1E7CE5"/>
<stop offset="1" stop-color="#087CFA"/>
</linearGradient>
<linearGradient id="paint1_linear_440_2412" x1="467.5" y1="27212.5" x2="66121.2" y2="42296.4" gradientUnits="userSpaceOnUse">
<stop stop-color="#F97A12"/>
<stop offset="0.07" stop-color="#CB7A3E"/>
<stop offset="0.15" stop-color="#9E7B6A"/>
<stop offset="0.24" stop-color="#757B91"/>
<stop offset="0.33" stop-color="#537BB1"/>
<stop offset="0.43" stop-color="#387CCC"/>
<stop offset="0.54" stop-color="#237CE0"/>
<stop offset="0.66" stop-color="#147CEF"/>
<stop offset="0.79" stop-color="#0B7CF7"/>
<stop offset="1" stop-color="#087CFA"/>
</linearGradient>
<linearGradient id="paint2_linear_440_2412" x1="28195" y1="47787.5" x2="234.105" y2="3684.48" gradientUnits="userSpaceOnUse">
<stop stop-color="#FE315D"/>
<stop offset="0.08" stop-color="#CB417E"/>
<stop offset="0.16" stop-color="#9E4E9B"/>
<stop offset="0.25" stop-color="#755BB4"/>
<stop offset="0.34" stop-color="#5365CA"/>
<stop offset="0.44" stop-color="#386DDB"/>
<stop offset="0.54" stop-color="#2374E9"/>
<stop offset="0.66" stop-color="#1478F3"/>
<stop offset="0.79" stop-color="#0B7BF8"/>
<stop offset="1" stop-color="#087CFA"/>
</linearGradient>
<linearGradient id="paint3_linear_440_2412" x1="12275" y1="18787.5" x2="79599.5" y2="87744.8" gradientUnits="userSpaceOnUse">
<stop stop-color="#FE315D"/>
<stop offset="0.04" stop-color="#F63462"/>
<stop offset="0.1" stop-color="#DF3A71"/>
<stop offset="0.17" stop-color="#C24383"/>
<stop offset="0.29" stop-color="#AD4A91"/>
<stop offset="0.55" stop-color="#755BB4"/>
<stop offset="0.92" stop-color="#1D76ED"/>
<stop offset="1" stop-color="#087CFA"/>
</linearGradient>
<clipPath id="clip0_440_2412">
<rect width="800" height="800" fill="white"/>
</clipPath>
</defs>
</svg>
