<svg width="854" height="1590" viewBox="0 0 854 1590" fill="none" xmlns="http://www.w3.org/2000/svg">
<g clip-path="url(#clip0_436_1677)">
<path d="M818.023 1253.78H812.041V1250.43H828.15V1253.78H822.204V1270.5H818.023V1253.78ZM850.153 1254.65H850.059L844.127 1270.5H841.414L835.524 1254.65H835.453V1270.5H831.51V1250.43H837.312L842.774 1264.64L848.218 1250.43H854V1270.5H850.15L850.153 1254.65Z" fill="#E76F00"/>
<path d="M282.35 843.414C282.35 843.414 240.717 867.647 311.978 875.847C398.31 885.705 442.432 884.291 537.57 866.268C537.57 866.268 562.582 881.966 597.514 895.563C384.241 987.052 114.835 890.264 282.35 843.414ZM256.289 724.026C256.289 724.026 209.594 758.623 280.908 766.006C373.13 775.529 445.959 776.308 571.982 752.019C571.982 752.019 589.416 769.706 616.824 779.379C358.961 854.85 71.7518 785.331 256.289 724.026Z" fill="#5382A1"/>
<path d="M475.99 521.505C528.54 582.063 462.186 636.561 462.186 636.561C462.186 636.561 595.614 567.614 534.337 481.277C477.103 400.76 433.212 360.758 670.819 222.828C670.822 222.825 297.854 316.06 475.99 521.505Z" fill="#E76F00"/>
<path d="M758.061 931.72C758.061 931.72 788.87 957.131 724.13 976.785C601.026 1014.11 211.758 1025.38 103.621 978.276C64.7482 961.346 137.645 937.857 160.576 932.928C184.49 927.737 198.156 928.704 198.156 928.704C154.926 898.222 -81.266 988.554 78.1824 1014.43C513.021 1085.01 870.855 982.643 758.061 931.72ZM302.37 600.327C302.37 600.327 104.364 647.4 232.251 664.494C286.249 671.73 393.893 670.093 494.158 661.684C576.102 654.766 658.386 640.058 658.386 640.058C658.386 640.058 629.492 652.444 608.587 666.728C407.515 719.662 19.0808 695.035 130.906 640.893C225.477 595.137 302.37 600.327 302.37 600.327ZM657.57 799.053C861.969 692.742 767.466 590.575 701.499 604.342C685.331 607.71 678.122 610.629 678.122 610.629C678.122 610.629 684.127 601.218 695.585 597.144C826.083 551.223 926.445 732.582 653.459 804.414C653.459 804.414 656.627 801.587 657.57 799.053Z" fill="#5382A1"/>
<path d="M534.337 0.103516C534.337 0.103516 647.536 113.442 426.972 287.733C250.102 427.538 386.64 507.253 426.899 598.334C323.66 505.096 247.894 423.024 298.723 346.636C373.326 234.505 580.01 180.14 534.337 0.103516Z" fill="#E76F00"/>
<path d="M322.455 1087.13C518.653 1099.7 819.937 1080.16 827.07 987.239C827.07 987.239 813.357 1022.46 664.923 1050.44C497.467 1081.98 290.927 1078.3 168.428 1058.08C168.434 1058.08 193.508 1078.85 322.455 1087.13Z" fill="#5382A1"/>
<path d="M290.302 1442.19C271.793 1458.26 252.245 1467.28 234.703 1467.28C209.664 1467.28 196.136 1452.25 196.136 1428.14C196.136 1402.07 210.633 1383.01 268.781 1383.01H290.299L290.302 1442.19ZM341.372 1499.86V1321.33C341.372 1275.72 315.385 1245.63 252.727 1245.63C216.148 1245.63 184.106 1254.67 158.062 1266.2L165.58 1297.81C186.085 1290.27 212.627 1283.26 238.679 1283.26C274.774 1283.26 290.302 1297.81 290.302 1327.88V1350.45H272.287C184.59 1350.45 145.03 1384.52 145.03 1435.66C145.03 1479.8 171.1 1504.89 220.186 1504.89C251.737 1504.89 275.291 1491.85 297.308 1472.77L301.305 1499.87L341.372 1499.86ZM511.812 1499.86H448.117L371.459 1250.15H427.087L474.651 1403.57L485.225 1449.71C509.289 1383 526.312 1315.32 534.824 1250.15H588.934C574.434 1332.38 548.347 1422.63 511.812 1499.86ZM756.164 1442.19C737.62 1458.26 718.04 1467.28 700.495 1467.28C675.5 1467.28 661.937 1452.25 661.937 1428.14C661.937 1402.07 676.463 1383.01 734.608 1383.01H756.164V1442.19ZM807.228 1499.86V1321.33C807.228 1275.72 781.179 1245.63 718.589 1245.63C681.987 1245.63 649.933 1254.67 623.901 1266.2L631.409 1297.81C651.92 1290.27 678.513 1283.26 704.544 1283.26C740.613 1283.26 756.164 1297.81 756.164 1327.88V1350.45H738.117C650.396 1350.45 610.852 1384.52 610.852 1435.66C610.852 1479.8 636.901 1504.89 685.977 1504.89C717.55 1504.89 741.094 1491.85 763.147 1472.77L767.158 1499.87L807.228 1499.86ZM89.0327 1542.26C74.4738 1563.54 50.9589 1580.37 25.2152 1589.9L0 1560.2C19.5948 1550.13 36.4 1533.88 44.208 1518.74C50.9618 1505.28 53.7573 1487.93 53.7573 1446.43V1161.35H108.017V1442.52C108.014 1498 103.583 1520.41 89.0327 1542.26Z" fill="#E76F00"/>
</g>
<defs>
<clipPath id="clip0_436_1677">
<rect width="854" height="1590" fill="white"/>
</clipPath>
</defs>
</svg>
