<svg width="800" height="800" viewBox="0 0 800 800" fill="none" xmlns="http://www.w3.org/2000/svg">
<path d="M787.441 180.665C787.729 181.73 787.879 182.828 787.879 183.931V355.349C787.879 359.827 785.483 363.964 781.598 366.192L637.724 449.026V613.211C637.724 617.679 635.349 621.804 631.474 624.054L331.148 796.941C330.461 797.331 329.711 797.581 328.961 797.847C328.68 797.941 328.414 798.112 328.117 798.191C326.018 798.743 323.811 798.743 321.712 798.191C321.368 798.097 321.056 797.909 320.727 797.784C320.04 797.534 319.321 797.316 318.665 796.941L18.4016 624.054C14.5192 621.823 12.1211 617.689 12.1211 613.211V98.9557C12.1211 97.8309 12.2773 96.7372 12.5585 95.6749C12.6523 95.3155 12.871 94.9874 12.996 94.6281C13.2303 93.9719 13.4491 93.3001 13.7928 92.6908C14.0271 92.2846 14.3708 91.9565 14.6521 91.5816C15.0114 91.0816 15.3395 90.566 15.7613 90.1286C16.1206 89.7693 16.5893 89.5037 16.9956 89.1912C17.4486 88.8162 17.8548 88.41 18.3704 88.1132H18.386L168.526 1.66968C172.394 -0.556559 177.155 -0.556559 181.024 1.66968L331.164 88.1132H331.195C331.695 88.4257 332.117 88.8162 332.57 89.1756C332.976 89.488 333.429 89.7693 333.788 90.113C334.226 90.566 334.538 91.0816 334.913 91.5816C335.179 91.9565 335.538 92.2846 335.757 92.6908C336.116 93.3157 336.319 93.9719 336.569 94.6281C336.694 94.9874 336.913 95.3155 337.007 95.6905C337.295 96.7551 337.442 97.8529 337.444 98.9557V420.154L462.555 348.116V183.915C462.555 182.821 462.712 181.712 462.993 180.665C463.102 180.29 463.305 179.962 463.43 179.603C463.68 178.947 463.899 178.275 464.243 177.666C464.477 177.26 464.821 176.931 465.086 176.557C465.461 176.057 465.774 175.541 466.211 175.104C466.571 174.744 467.024 174.479 467.43 174.166C467.899 173.791 468.305 173.385 468.805 173.088H468.82L618.976 86.6446C622.844 84.4152 627.606 84.4152 631.474 86.6446L781.614 173.088C782.145 173.401 782.551 173.791 783.02 174.151C783.41 174.463 783.864 174.744 784.223 175.088C784.66 175.541 784.973 176.057 785.348 176.557C785.629 176.931 785.973 177.26 786.191 177.666C786.551 178.275 786.754 178.947 787.004 179.603C787.144 179.962 787.347 180.29 787.441 180.665ZM762.85 348.116V205.569L710.309 235.816L637.724 277.608V420.154L762.866 348.116H762.85ZM612.711 605.978V463.337L541.312 504.114L337.429 620.476V764.46L612.711 605.978ZM37.1496 120.594V605.978L312.4 764.444V620.492L168.604 539.11L168.557 539.079L168.494 539.047C168.01 538.766 167.604 538.36 167.151 538.016C166.76 537.704 166.307 537.454 165.963 537.11L165.932 537.063C165.526 536.673 165.245 536.188 164.901 535.751C164.589 535.329 164.214 534.97 163.964 534.532L163.948 534.486C163.667 534.017 163.495 533.454 163.292 532.923C163.089 532.454 162.823 532.017 162.698 531.517V531.501C162.542 530.908 162.511 530.283 162.448 529.674C162.386 529.205 162.261 528.736 162.261 528.267V528.236V192.633L89.6906 150.825L37.1496 120.61V120.594ZM174.791 26.9481L49.695 98.9557L174.759 170.963L299.839 98.9401L174.759 26.9481H174.791ZM239.846 476.336L312.416 434.559V120.594L259.875 150.841L187.289 192.633V506.598L239.846 476.336ZM625.225 111.923L500.145 183.931L625.225 255.938L750.289 183.915L625.225 111.923ZM612.711 277.608L540.125 235.816L487.584 205.569V348.116L560.154 389.892L612.711 420.154V277.608ZM324.899 598.838L508.363 494.099L600.071 441.761L475.085 369.801L331.179 452.651L200.022 528.158L324.899 598.838Z" fill="#FF2D20"/>
</svg>
