<svg width="1579" height="1579" viewBox="0 0 1579 1579" fill="none" xmlns="http://www.w3.org/2000/svg">
<g clip-path="url(#clip0_440_2517)">
<path fill-rule="evenodd" clip-rule="evenodd" d="M1470.18 750.836C1468.76 751.12 1467.33 754.25 1467.33 755.955C1467.05 767.341 1466.77 797.509 1466.77 817.999C1466.77 818.569 1467.62 819.707 1468.47 819.707C1472.74 819.991 1482.98 820.275 1491.81 820.275C1504.04 820.275 1511.16 818.569 1515.15 816.864C1525.39 811.738 1530.23 800.639 1530.23 788.399C1530.23 760.797 1510.88 750.265 1482.13 750.265C1480.14 749.982 1474.45 749.982 1470.18 750.836ZM1543.61 878.05C1543.61 849.875 1522.83 834.221 1485.26 834.221C1483.55 834.221 1471.6 833.937 1468.75 834.504C1467.9 834.791 1466.77 835.362 1466.77 836.216C1466.77 856.419 1466.48 888.582 1467.33 901.103C1467.9 906.509 1471.89 914.195 1476.73 916.471C1481.85 919.317 1493.52 919.885 1501.48 919.885C1523.97 919.885 1543.61 907.364 1543.61 878.05ZM1412.12 735.185C1414.97 735.185 1423.5 736.036 1445.42 736.036C1466.19 736.036 1482.7 735.468 1502.91 735.468C1527.66 735.468 1561.82 744.289 1561.82 781.287C1561.82 799.501 1549.01 814.018 1532.22 821.132C1531.37 821.416 1531.37 821.983 1532.22 822.267C1556.12 828.247 1577.19 843.044 1577.19 870.932C1577.19 898.257 1560.11 915.616 1535.35 926.432C1520.27 932.976 1501.48 935.252 1482.42 935.252C1467.9 935.252 1428.91 933.547 1407.28 934.117C1405.01 933.26 1409.28 923.015 1411.27 921.309C1416.39 921.023 1420.37 920.739 1425.78 919.03C1433.47 917.041 1434.32 914.762 1435.46 903.095C1436.03 893.134 1436.03 857.841 1436.03 832.799C1436.03 798.363 1436.31 775.027 1436.03 763.644C1435.74 754.824 1432.61 751.974 1426.35 750.265C1421.51 749.414 1413.54 748.273 1407 747.422C1405.57 745.997 1410.41 736.32 1412.12 735.185ZM1247.91 912.202C1254.74 917.605 1268.12 919.881 1280.07 919.881C1295.44 919.881 1310.8 917.041 1325.61 903.66C1340.69 890.004 1351.22 868.943 1351.22 835.362C1351.22 803.199 1338.98 777.016 1313.94 761.651C1299.71 752.825 1281.49 749.13 1260.43 749.13C1254.17 749.13 1248.19 749.414 1244.5 751.12C1243.64 751.69 1241.65 754.25 1241.65 755.672C1241.08 761.365 1241.08 805.191 1241.08 830.807C1241.08 857.273 1241.08 894.272 1241.65 898.54C1241.65 902.812 1243.64 909.356 1247.91 912.202H1247.91ZM1183.3 735.182C1188.71 735.182 1209.49 736.036 1219.45 736.036C1237.38 736.036 1250.19 735.185 1284.05 735.185C1312.51 735.185 1336.42 742.867 1353.49 757.38C1374.27 775.31 1385.09 800.072 1385.09 830.236C1385.09 873.212 1365.45 897.973 1345.81 912.202C1326.18 926.716 1300.56 935.252 1264.13 935.252C1244.78 935.252 1211.48 934.685 1183.87 934.398H1183.59C1182.17 931.838 1185.87 921.877 1188.14 921.593C1195.54 920.739 1197.54 920.452 1201.24 919.033C1207.21 916.754 1208.35 913.624 1209.21 903.095C1210.06 883.457 1209.77 859.836 1209.77 833.083C1209.77 814.018 1210.06 776.732 1209.49 764.779C1208.64 754.82 1204.37 752.258 1195.83 750.549C1191.56 749.698 1185.87 748.557 1177.9 747.706C1176.76 745.71 1181.88 736.887 1183.3 735.182Z" fill="#8E714E"/>
<path fill-rule="evenodd" clip-rule="evenodd" d="M838.946 923.299C831.831 922.444 826.709 921.31 820.448 918.463C819.594 917.893 818.169 915.049 818.169 913.908C817.602 903.947 817.602 875.488 817.602 856.423C817.602 841.052 815.042 827.677 808.495 818.286C800.809 807.467 789.713 801.21 775.481 801.21C762.96 801.21 746.167 809.746 732.222 821.7C731.938 821.984 729.662 823.979 729.946 820.846C729.946 817.715 730.516 811.455 730.8 807.184C731.087 803.199 728.808 801.21 728.808 801.21C719.701 805.762 694.088 811.739 684.694 812.59C677.866 814.018 676.158 820.562 683.276 822.838H683.559C691.239 825.114 696.364 827.677 700.346 830.24C703.192 832.515 702.908 835.646 702.908 838.209C703.192 859.55 703.192 892.28 702.341 910.21C702.057 917.325 700.065 919.885 694.939 921.023L695.51 920.739C691.525 921.593 688.395 922.444 683.556 923.015C681.848 924.724 681.848 933.831 683.556 935.823C686.687 935.823 703.192 934.969 716.857 934.969C735.639 934.969 745.316 935.823 750.152 935.823C752.144 933.547 752.715 925.007 751.577 923.015C746.167 922.731 742.183 922.164 738.485 921.023C733.363 919.882 731.938 917.325 731.651 911.348C731.087 896.261 731.087 864.388 731.087 842.76C731.087 836.784 732.792 833.937 734.498 832.229C741.045 826.539 751.577 822.554 760.967 822.554C770.074 822.554 776.048 825.401 780.603 829.102C786.864 834.221 788.856 841.622 789.71 847.029C791.132 859.266 790.564 883.457 790.564 904.517C790.564 915.9 789.71 918.747 785.445 920.169C783.45 921.023 778.327 922.164 772.35 922.728C770.358 924.724 770.929 933.547 772.35 935.539C780.603 935.539 790.281 934.685 804.51 934.685C822.154 934.685 833.54 935.539 838.095 935.539C839.513 933.831 840.084 925.578 838.946 923.299ZM917.779 814.588C902.698 814.588 893.304 826.255 893.304 844.466C893.304 862.967 901.557 884.311 924.894 884.311C928.878 884.311 936.28 882.602 939.691 878.618C945.1 873.499 948.801 863.25 948.801 852.435C948.801 828.815 937.131 814.588 917.779 814.588ZM915.787 940.375C910.097 940.375 906.109 942.083 903.549 943.508C891.596 951.187 886.19 958.589 886.19 967.415C886.19 975.665 889.32 982.209 896.151 987.902C904.404 995.017 915.787 998.434 930.3 998.434C959.329 998.434 972.137 982.78 972.137 967.415C972.137 956.597 966.728 949.482 955.632 945.5C947.663 942.083 933.149 940.375 915.787 940.375ZM917.779 1014.37C900.419 1014.37 887.895 1010.67 877.083 1002.42C866.551 994.449 861.999 982.496 861.999 974.243C861.999 971.967 862.569 965.704 867.692 960.014C870.819 956.596 877.653 950.052 893.875 938.953C894.442 938.669 894.726 938.386 894.726 937.812C894.726 937.245 894.156 936.674 893.588 936.393C880.213 931.271 876.228 923.015 875.087 918.463V917.893C874.807 916.184 874.236 914.479 876.799 912.77C878.791 911.348 881.638 909.64 884.765 907.651C889.604 904.801 894.726 901.671 897.856 899.108C898.427 898.541 898.427 897.973 898.427 897.403C898.427 896.832 897.856 896.261 897.286 895.981C877.369 889.434 867.408 874.633 867.408 852.435C867.408 837.922 873.952 824.83 885.619 816.577C893.588 810.317 913.511 802.632 926.602 802.632H927.456C940.832 802.915 948.23 805.762 958.759 809.463C964.452 811.455 969.861 812.306 977.263 812.306C988.359 812.306 993.198 808.892 997.179 804.911C997.466 805.478 998.036 806.903 998.32 810.601C998.604 814.301 997.466 819.708 994.619 823.692C992.343 826.822 987.221 829.102 982.098 829.102H980.674C975.551 828.531 973.272 827.96 973.272 827.96L972.137 828.531C971.853 829.102 972.137 829.669 972.421 830.523L972.708 831.094C973.275 833.653 974.413 841.336 974.413 843.331C974.413 866.668 965.022 876.909 955.061 884.595C945.383 891.709 934.287 896.261 921.763 897.403C921.48 897.403 920.345 897.403 917.779 897.686C916.357 897.686 914.365 897.973 914.078 897.973H913.794C911.518 898.541 905.828 901.387 905.828 906.223C905.828 910.491 908.388 915.617 920.625 916.471C923.185 916.755 925.745 916.755 928.594 917.041C944.816 918.176 965.022 919.601 974.413 922.731C987.505 927.567 995.757 939.237 995.757 953.183C995.757 974.246 980.677 993.882 955.632 1006.12C943.394 1011.53 931.154 1014.37 917.779 1014.37ZM1080 816.01C1074.02 816.01 1068.61 817.429 1064.63 820.275C1053.53 827.106 1047.84 840.768 1047.84 860.688C1047.84 897.973 1066.62 924.156 1093.37 924.156C1101.34 924.156 1107.6 921.877 1113.01 917.325C1121.26 910.491 1125.53 896.832 1125.53 877.764C1125.53 840.768 1107.03 816.007 1080 816.007L1080 816.01ZM1085.12 937.815C1036.74 937.815 1019.38 902.241 1019.38 868.944C1019.38 845.607 1028.77 827.677 1047.55 814.869C1060.93 806.616 1076.87 802.064 1091.1 802.064C1128.09 802.064 1153.99 828.531 1153.99 866.668C1153.99 892.564 1143.75 913.054 1124.11 925.578C1114.72 931.838 1098.5 937.815 1085.12 937.815H1085.12ZM577.973 816.007C571.996 816.007 566.59 817.429 562.602 820.275C551.506 827.106 545.813 840.768 545.813 860.688C545.813 897.973 564.595 924.156 591.348 924.156C599.317 924.156 605.578 921.877 610.987 917.325C619.237 910.491 623.508 896.832 623.508 877.764C623.508 840.768 605.294 816.007 577.973 816.007ZM583.096 937.815C534.714 937.815 517.354 902.241 517.354 868.944C517.354 845.607 526.745 827.677 545.526 814.869C558.905 806.616 574.843 802.064 589.072 802.064C626.071 802.064 651.967 828.531 651.967 866.668C651.967 892.564 641.722 913.054 622.083 925.578C612.976 931.838 596.755 937.815 583.096 937.815ZM257.803 934.969C257.233 934.117 256.662 931.555 256.949 928.424C256.949 926.145 257.519 924.724 257.803 924.156C263.78 923.299 266.91 922.444 270.324 921.593C276.017 920.169 278.293 917.041 278.577 909.927C279.434 892.851 279.434 860.404 279.147 837.922V837.351C279.147 834.791 279.147 831.658 276.017 829.382C271.462 826.539 266.056 823.979 258.941 821.981C256.381 821.133 254.673 819.708 254.957 818.002C254.957 816.294 256.665 814.301 260.366 813.731C269.757 812.877 294.228 806.903 303.906 802.632C304.476 803.199 305.33 804.911 305.33 807.187L305.047 810.314C304.76 813.447 304.476 817.148 304.476 820.846C304.476 821.984 305.617 822.838 306.752 822.838C307.323 822.838 307.893 822.554 308.461 822.267C326.675 808.038 343.18 802.915 351.717 802.915C365.665 802.915 376.481 809.463 384.734 823.122C385.301 823.979 385.872 824.263 386.726 824.263C387.293 824.263 388.145 823.979 388.431 823.408C405.224 810.601 422.016 802.915 433.112 802.915C459.579 802.915 475.233 822.554 475.233 855.852C475.233 865.243 475.233 877.48 474.949 888.582C474.949 898.541 474.666 907.648 474.666 914.195C474.666 915.613 476.655 920.169 479.785 921.023C483.77 923.015 489.179 923.869 496.294 925.007H496.577C497.148 927 496.01 934.398 494.872 935.823C493.163 935.823 490.601 935.823 487.757 935.539C480.553 935.163 473.34 934.973 466.126 934.969C448.483 934.969 439.376 935.252 430.549 935.823C429.985 933.547 429.698 926.716 430.549 925.007C435.675 924.156 438.235 923.299 441.368 922.448C447.061 920.739 448.483 918.176 448.77 910.778C448.77 905.372 449.904 859.266 448.196 848.167C446.49 836.784 437.951 823.408 419.166 823.408C412.052 823.408 400.955 826.255 390.14 834.505C389.572 835.075 388.999 836.497 388.999 837.351V837.638C390.14 843.612 390.14 850.446 390.14 860.975V879.472C390.14 892.28 389.853 904.234 390.14 913.337C390.14 919.601 393.841 921.023 396.971 922.164C398.679 922.444 399.814 922.731 401.239 923.015C403.799 923.586 406.362 924.156 410.346 925.007C410.917 926.148 410.917 929.846 410.062 932.976C409.776 934.685 409.205 935.536 408.921 935.823C399.247 935.539 389.286 935.252 374.772 935.252C370.504 935.252 363.103 935.539 356.842 935.539C351.717 935.539 346.881 935.823 344.037 935.823C343.751 935.252 343.18 933.263 343.18 930.13C343.18 927.57 343.751 925.578 344.321 925.007C345.743 924.724 346.881 924.44 348.306 924.44C351.717 923.869 354.566 923.299 357.41 922.731C362.251 921.31 363.957 918.747 364.241 912.486C365.095 898.257 365.949 857.561 363.957 847.312C360.543 830.807 351.152 822.554 336.065 822.554C327.245 822.554 316.143 826.822 307.039 833.657C305.614 834.791 304.476 837.635 304.476 840.198V856.99C304.476 877.48 304.476 903.096 304.76 914.195C305.047 917.606 306.181 921.593 312.729 923.015C314.154 923.299 316.43 923.869 319.276 924.156L324.396 925.007C324.969 926.716 324.682 933.547 323.544 935.823C320.698 935.823 317.284 935.539 313.296 935.539C307.323 935.252 299.637 934.969 291.101 934.969C281.14 934.969 274.025 935.252 268.332 935.539C264.347 934.969 261.217 934.969 257.803 934.969Z" fill="#442D22"/>
<path fill-rule="evenodd" clip-rule="evenodd" d="M108.103 1003.27L96.4361 999.285C96.4361 999.285 97.8609 939.807 76.5135 935.539C62.2871 919.03 78.7957 235.434 130.021 933.26C130.021 933.26 112.374 942.08 109.244 957.167C105.827 971.967 108.103 1003.27 108.103 1003.27Z" fill="white"/>
<path fill-rule="evenodd" clip-rule="evenodd" d="M108.103 1003.27L96.4361 999.285C96.4361 999.285 97.8609 939.807 76.5135 935.539C62.2871 919.03 78.7957 235.434 130.021 933.26C130.021 933.26 112.374 942.08 109.244 957.167C105.827 971.967 108.103 1003.27 108.103 1003.27Z" fill="#A6A385"/>
<path fill-rule="evenodd" clip-rule="evenodd" d="M114.366 945.783C114.366 945.783 216.538 878.617 192.628 738.879C169.578 637.283 115.22 603.985 109.243 591.178C102.699 582.071 96.4355 566.136 96.4355 566.136L100.707 848.734C100.707 849.02 91.8836 935.252 114.369 945.787" fill="white"/>
<path fill-rule="evenodd" clip-rule="evenodd" d="M114.366 945.783C114.366 945.783 216.538 878.617 192.628 738.879C169.578 637.283 115.22 603.985 109.243 591.178C102.699 582.071 96.4355 566.136 96.4355 566.136L100.707 848.734C100.707 849.02 91.8836 935.252 114.369 945.787" fill="#499D4A"/>
<path fill-rule="evenodd" clip-rule="evenodd" d="M90.4626 949.482C90.4626 949.482 -5.44926 884.024 0.243771 768.766C5.65 653.505 73.3835 596.871 86.4751 586.626C95.0146 577.519 95.2983 574.102 95.8689 564.995C101.846 577.803 100.708 756.529 101.559 777.586C104.119 858.695 97.0069 934.117 90.4626 949.482Z" fill="white"/>
<path fill-rule="evenodd" clip-rule="evenodd" d="M90.4626 949.482C90.4626 949.482 -5.44926 884.024 0.243771 768.766C5.65 653.505 73.3835 596.871 86.4751 586.626C95.0146 577.519 95.2983 574.102 95.8689 564.995C101.846 577.803 100.708 756.529 101.559 777.586C104.119 858.695 97.0069 934.117 90.4626 949.482Z" fill="#58AA50"/>
</g>
<defs>
<clipPath id="clip0_440_2517">
<rect width="1579" height="1579" fill="white"/>
</clipPath>
</defs>
</svg>
