<svg width="921" height="921" viewBox="0 0 921 921" fill="none" xmlns="http://www.w3.org/2000/svg">
<path d="M903.585 551.504C898.23 535.288 884.203 523.991 866.06 521.279C857.507 520.002 847.71 520.547 836.118 522.937C815.913 527.105 800.923 528.692 789.983 529.001C831.275 459.28 864.854 379.772 884.184 304.93C915.44 183.915 898.738 128.785 879.22 103.846C827.565 37.8443 752.201 2.38463 661.277 1.29766C612.777 0.7057 570.196 10.2822 547.986 17.167C527.305 13.5204 505.066 11.4826 481.732 11.1052C438 10.408 399.355 19.9412 366.336 39.5356C348.051 33.3561 318.715 24.6418 284.834 19.079C205.144 5.99618 140.92 16.1914 93.9432 49.3781C37.0576 89.561 10.6856 159.375 15.5636 256.883C17.1105 287.842 34.4299 382.033 61.697 471.365C77.3684 522.708 94.0793 565.347 111.366 598.105C135.879 644.556 162.109 671.912 191.556 681.734C208.063 687.235 238.05 691.084 269.593 664.819C273.591 669.658 278.922 674.47 286.003 678.937C294.992 684.607 305.985 689.24 316.962 691.985C356.528 701.877 393.589 699.402 425.206 685.539C425.399 691.162 425.55 696.535 425.678 701.174C425.888 708.7 426.095 716.078 426.371 722.977C428.244 769.636 431.418 805.915 440.823 831.297C441.339 832.695 442.034 834.822 442.768 837.076C447.459 851.444 455.307 875.493 475.266 894.331C495.939 913.841 520.942 919.826 543.84 919.824C555.325 919.824 566.283 918.318 575.893 916.258C610.154 908.917 649.062 897.73 677.208 857.654C703.817 819.767 716.753 762.704 719.094 672.789C719.398 670.247 719.678 667.82 719.948 665.506C720.13 663.944 720.315 662.348 720.503 660.756L726.773 661.306L728.388 661.416C763.283 663.006 805.949 655.605 832.152 643.434C852.858 633.825 919.207 598.798 903.585 551.504Z" fill="black"/>
<path d="M843.92 560.703C740.169 582.104 733.036 546.976 733.036 546.976C842.581 384.43 888.374 178.101 848.856 127.603C741.045 -10.1454 554.42 55.0007 551.306 56.692L550.303 56.8715C529.806 52.6164 506.866 50.0815 481.084 49.6607C434.138 48.8914 398.527 61.9681 371.506 82.4596C371.506 82.4596 38.5851 -54.6906 54.0687 254.952C57.3627 320.826 148.485 753.385 257.172 622.732C296.897 574.957 335.279 534.562 335.279 534.562C354.343 547.226 377.166 553.686 401.091 551.365L402.95 549.788C402.372 555.719 402.636 561.521 403.694 568.39C375.695 599.673 383.922 605.165 327.951 616.687C271.315 628.359 304.586 649.139 326.309 654.57C352.644 661.156 413.57 670.485 454.737 612.857L453.095 619.432C464.066 628.219 471.769 676.588 470.478 720.434C469.187 764.282 468.325 794.385 476.969 817.898C485.613 841.412 494.228 894.316 567.808 878.55C629.291 865.374 661.152 831.231 665.584 774.277C668.73 733.787 675.848 739.772 676.297 703.572L682.006 686.435C688.59 631.548 683.052 613.84 720.931 622.076L730.136 622.885C758.016 624.153 794.505 618.401 815.921 608.447C862.035 587.046 889.385 551.314 843.916 560.703H843.92Z" fill="#336791"/>
<path d="M390.995 284.412C381.647 283.11 373.178 284.315 368.894 287.557C366.483 289.383 365.739 291.497 365.539 292.953C365 296.808 367.702 301.069 369.36 303.268C374.055 309.491 380.915 313.768 387.705 314.711C388.689 314.847 389.666 314.913 390.64 314.913C401.963 314.913 412.256 306.098 413.163 299.59C414.298 291.441 402.467 286.008 390.995 284.412Z" fill="white"/>
<path d="M700.729 284.67C699.838 278.282 688.467 276.461 677.679 277.96C666.909 279.462 656.462 284.323 657.334 290.725C658.036 295.704 667.022 304.204 677.665 304.202C678.562 304.202 679.47 304.142 680.383 304.014C687.487 303.031 692.699 298.52 695.174 295.919C698.947 291.959 701.127 287.541 700.729 284.67Z" fill="white"/>
<path d="M878.446 558.271C874.49 546.308 861.758 542.457 840.602 546.828C777.789 559.791 755.295 550.811 747.907 545.372C796.732 470.991 836.896 381.086 858.563 297.2C868.829 257.464 874.499 220.563 874.961 190.487C875.472 157.469 869.852 133.211 858.254 118.392C811.498 58.6475 742.878 26.6014 659.812 25.7207C602.708 25.0792 554.461 39.6946 545.107 43.8032C525.409 38.9046 503.936 35.8974 480.561 35.5137C437.69 34.8207 400.637 45.084 369.956 66.0026C356.63 61.0442 322.189 49.2215 280.073 42.4378C207.257 30.7121 149.395 39.5956 108.103 68.8489C58.8322 103.756 36.0863 166.153 40.494 254.302C41.977 283.962 58.8735 375.196 85.5425 462.57C120.645 577.568 158.801 642.671 198.951 656.061C203.649 657.629 209.07 658.726 215.043 658.726C229.689 658.726 247.644 652.124 266.326 629.665C297.358 592.332 326.331 561.049 337.01 549.682C352.793 558.156 370.129 562.885 387.865 563.359C387.896 563.823 387.943 564.288 387.985 564.75C384.427 568.97 381.508 572.668 379.021 575.826C366.734 591.423 364.177 594.669 324.625 602.814C313.376 605.135 283.491 611.293 283.056 632.239C282.579 655.123 318.375 664.734 322.455 665.753C336.668 669.311 350.359 671.067 363.418 671.067C395.177 671.064 423.123 660.628 445.458 640.433C444.769 722.018 448.172 802.411 457.968 826.906C465.989 846.956 485.589 895.963 547.501 895.958C556.583 895.958 566.584 894.902 577.584 892.545C642.196 878.691 670.253 850.134 681.108 787.177C686.917 753.53 696.885 673.181 701.571 630.083C711.465 633.169 724.204 634.582 737.973 634.58C766.692 634.58 799.83 628.479 820.612 618.832C843.956 607.991 886.086 581.384 878.446 558.271ZM724.577 267.037C724.362 279.761 722.611 291.311 720.755 303.369C718.758 316.336 716.692 329.743 716.172 346.019C715.658 361.857 717.636 378.325 719.55 394.248C723.416 426.411 727.382 459.526 712.026 492.201C709.64 487.962 707.336 483.338 705.224 478.217C703.316 473.59 699.172 466.159 693.436 455.873C671.111 415.838 618.833 322.087 645.595 283.83C653.565 272.441 673.794 260.736 724.577 267.037ZM663.024 51.4862C737.449 53.1301 796.321 80.9727 838.006 134.236C869.975 175.092 834.771 360.991 732.858 521.366C731.852 520.087 730.826 518.796 729.766 517.471C729.343 516.941 728.912 516.403 728.477 515.858C754.812 472.365 749.662 429.334 745.079 391.181C743.196 375.524 741.418 360.735 741.869 346.846C742.338 332.119 744.285 319.494 746.166 307.284C748.482 292.235 750.835 276.667 750.186 258.312C750.67 256.388 750.866 254.113 750.613 251.413C748.954 233.811 728.861 181.139 687.902 133.459C665.501 107.384 632.828 78.2006 588.219 58.5175C607.407 54.5409 633.647 50.8324 663.024 51.4862ZM246.557 613.226C225.974 637.973 211.759 633.231 207.085 631.674C176.627 621.513 141.289 557.143 110.132 455.064C83.1726 366.739 67.4166 277.923 66.1709 253.017C62.2334 174.252 81.3266 119.357 122.922 89.8582C190.616 41.852 301.912 70.5856 346.632 85.1597C345.989 85.7929 345.321 86.3869 344.683 87.0304C271.299 161.145 273.04 287.77 273.219 295.508C273.213 298.495 273.463 302.723 273.807 308.54C275.07 329.836 277.419 369.474 271.142 414.364C265.307 456.077 278.165 496.906 306.414 526.38C309.339 529.43 312.392 532.295 315.545 534.991C302.97 548.457 275.643 578.235 246.557 613.226ZM324.977 508.59C302.209 484.835 291.869 451.791 296.605 417.924C303.234 370.503 300.786 329.205 299.472 307.018C299.288 303.913 299.125 301.193 299.028 299.046C309.75 289.541 359.431 262.92 394.859 271.038C411.03 274.742 420.879 285.75 424.975 304.689C446.174 402.729 427.782 443.592 413.004 476.428C409.957 483.194 407.08 489.588 404.621 496.204L402.718 501.317C397.895 514.248 393.409 526.268 390.629 537.685C366.427 537.61 342.881 527.273 324.977 508.59ZM328.692 640.811C321.626 639.045 315.269 635.978 311.54 633.435C314.654 631.969 320.199 629.976 329.812 627.996C376.342 618.415 383.525 611.656 399.217 591.732C402.817 587.165 406.894 581.986 412.542 575.679L412.548 575.671C420.961 566.253 424.808 567.85 431.785 570.743C437.441 573.084 442.948 580.171 445.182 587.972C446.238 591.656 447.426 598.65 443.542 604.089C410.762 649.985 362.997 649.395 328.692 640.811ZM572.195 867.406C515.274 879.602 495.121 850.559 481.84 817.358C473.268 795.922 469.056 699.264 472.045 592.524C472.084 591.103 471.882 589.731 471.49 588.442C471.149 585.953 470.626 583.434 469.9 580.899C465.453 565.368 454.622 552.376 441.628 546.991C436.465 544.852 426.988 540.927 415.6 543.839C418.03 533.834 422.242 522.537 426.806 510.302L428.722 505.154C430.88 499.352 433.584 493.341 436.447 486.98C451.912 452.622 473.092 405.565 450.105 299.254C441.494 259.436 412.742 239.992 369.154 244.507C343.021 247.211 319.116 257.755 307.192 263.801C304.628 265.1 302.283 266.354 300.093 267.577C303.42 227.456 315.995 152.48 363.03 105.043C392.642 75.1769 432.082 60.4275 480.136 61.2216C574.818 62.7726 635.534 111.363 669.799 151.853C699.325 186.745 715.314 221.891 721.695 240.846C673.71 235.968 641.074 245.442 624.528 269.093C588.536 320.542 644.219 420.403 670.981 468.395C675.888 477.192 680.124 484.792 681.457 488.022C690.171 509.143 701.453 523.242 709.691 533.537C712.216 536.69 714.666 539.749 716.529 542.42C701.996 546.611 675.89 556.291 678.268 604.681C676.35 628.963 662.704 742.644 655.774 782.808C646.624 835.87 627.098 855.635 572.195 867.406ZM809.786 595.513C794.925 602.412 770.054 607.587 746.428 608.697C720.332 609.92 707.049 605.774 703.924 603.225C702.456 573.07 713.682 569.918 725.561 566.583C727.427 566.057 729.249 565.548 731.006 564.933C732.099 565.822 733.295 566.705 734.605 567.569C755.579 581.413 792.99 582.906 845.802 572.006C845.996 571.964 846.19 571.927 846.382 571.888C839.26 578.548 827.07 587.487 809.786 595.513Z" fill="white"/>
</svg>
