<svg width="823" height="823" viewBox="0 0 823 823" fill="none" xmlns="http://www.w3.org/2000/svg">
<g clip-path="url(#clip0_440_2538)">
<path d="M699.55 0H123.45C55.2705 0 0 55.2705 0 123.45V699.55C0 767.73 55.2705 823 123.45 823H699.55C767.73 823 823 767.73 823 699.55V123.45C823 55.2705 767.73 0 699.55 0Z" fill="#3178C6"/>
<path d="M374.529 456.508H477.404V390.603H189.676V456.508H292.551V750.666H374.529V456.508ZM509.553 734.592C522.573 741.343 538.486 746.326 556.168 749.701C573.85 753.077 593.139 754.684 612.428 754.684C631.717 754.684 649.398 752.916 667.08 749.219C684.762 745.522 699.229 739.414 712.088 731.537C725.108 723.018 736.199 712.248 742.629 697.782C749.059 683.315 754.042 667.241 754.042 646.344C754.042 631.717 751.791 619.018 747.451 607.766C743.111 596.514 736.842 586.869 728.162 578.832C719.964 570.313 710.48 562.758 699.229 556.328C687.977 549.899 675.117 543.148 660.65 537.039C650.041 532.699 641.361 528.52 631.717 524.341C623.358 520.161 616.125 515.982 610.82 511.803C604.873 507.463 600.372 502.962 597.157 498.301C593.942 493.478 592.335 488.174 592.335 482.226C592.335 476.761 593.766 471.778 596.675 467.277C599.584 462.777 603.587 459.079 608.731 455.865C613.874 452.65 620.304 450.239 628.02 448.47C635.575 446.702 643.933 445.899 653.738 445.899C660.49 445.899 667.562 446.397 674.635 447.41C682.029 448.422 689.584 449.981 697.139 452.071C704.694 454.161 712.088 456.733 719.643 459.947C726.715 463.162 733.306 466.859 738.932 471.039V395.49C726.715 390.828 713.213 387.292 698.746 385.042C684.28 382.791 668.205 381.666 648.916 381.666C629.627 381.666 611.946 383.756 594.264 387.774C576.582 391.793 562.115 398.222 549.256 407.063C536.236 415.743 526.752 426.352 518.715 440.819C511.16 454.321 507.463 469.753 507.463 489.042C507.463 513.153 514.375 534.05 528.36 550.124C542.183 567.805 563.723 580.665 591.049 593.524C602.14 598.025 611.946 602.526 621.59 606.866C631.235 611.206 639.272 615.707 645.701 620.368C652.613 625.03 658.079 630.173 661.776 635.639C665.794 641.104 667.884 647.534 667.884 654.928C667.884 660.071 666.63 664.894 664.187 669.395C661.743 673.895 657.918 677.753 652.774 680.968C647.63 684.183 641.361 686.755 633.485 688.684C625.93 690.452 617.411 691.416 606.159 691.416C588.477 691.416 570.796 688.362 554.721 682.254C537.04 676.146 520.965 666.983 509.553 657.435V734.592Z" fill="white"/>
</g>
<defs>
<clipPath id="clip0_440_2538">
<rect width="823" height="823" fill="white"/>
</clipPath>
</defs>
</svg>
