<svg width="800" height="800" viewBox="0 0 800 800" fill="none" xmlns="http://www.w3.org/2000/svg">
<path d="M400 0C180.85 0 3.375 179.025 3.375 400C3.375 620.975 180.85 800 400 800C619 800 796.625 620.975 796.625 400C796.625 179.025 619.025 0 399.875 0H400ZM400 17.575C501.175 17.575 596.475 57.425 668.1 129.55C739.575 201.425 779.425 298.7 779.175 400C779.175 502.075 739.725 598.175 668.1 670.45C597.4 742.2 500.775 782.55 400 782.425C299.225 782.55 202.6 742.2 131.9 670.45C60.425 598.575 20.45 501.3 20.7 400C20.7 297.925 60.275 201.825 131.775 129.55C202.475 57.675 299.225 17.3 400 17.575ZM380.075 158.325C315.5 175.65 255.725 208.85 176.05 300.25C96.375 391.65 111.475 467.175 111.475 467.175C111.475 467.175 133.475 415.225 186.35 360.525C211.475 334.625 230.1 325.9 243 325.9C254.45 325.25 264.1 334.5 264.1 345.95V531.5C264.1 549.85 252.25 553.9 241.325 553.625C232.075 553.5 223.475 550.25 223.475 550.25C277.775 629.15 407.725 640.225 407.725 640.225L464.75 579.275L466.05 580.45L518.275 624.975C613.85 568.2 659.95 463 659.95 463C617.25 508.05 590.15 518.6 574 518.6C559.675 518.475 554.075 510.125 554.075 510.125C553.3 506.225 552 449.7 551.475 393.2C550.95 334.725 551.475 276.15 554.35 276C570.875 245 623.5 182.5 623.5 182.5C525.2 201.9 471.675 266.35 471.675 266.35C455.8 253.85 423.5 255.925 423.5 255.925C438.6 264.25 453.7 288.475 453.7 308.525V505.925C453.7 505.925 420.75 534.95 395.375 534.95C380.275 534.95 371.025 526.75 365.95 519.975C364 517.375 362.3 514.5 361 511.375V267.625C357.475 270.225 353.175 271.65 348.9 271.8C343.425 271.8 337.825 269.075 334.05 261.125C331.175 255.125 329.35 246.15 329.35 233C329.35 188.075 380.125 158.25 380.125 158.25L380.075 158.325Z" fill="black"/>
</svg>
