<svg width="917" height="917" viewBox="0 0 917 917" fill="none" xmlns="http://www.w3.org/2000/svg">
<g clip-path="url(#clip0_436_1731)">
<mask id="mask0_436_1731" style="mask-type:luminance" maskUnits="userSpaceOnUse" x="0" y="0" width="917" height="917">
<path d="M0.00390625 0H916.996V917H0.00390625V0Z" fill="white"/>
</mask>
<g mask="url(#mask0_436_1731)">
<path d="M65.1779 458.489C65.1779 614.185 155.656 748.723 286.856 812.49L99.2315 298.415C76.7396 348.781 65.1353 403.329 65.1779 458.489ZM724.037 438.641C724.037 390.03 706.576 356.366 691.6 330.163C671.661 297.764 652.981 270.326 652.981 237.927C652.981 201.77 680.396 168.113 719.022 168.113C720.766 168.113 722.42 168.33 724.126 168.427C654.141 104.317 560.909 65.1738 458.508 65.1738C321.096 65.1738 200.202 135.676 129.872 242.462C139.1 242.739 147.805 242.926 155.184 242.926C196.325 242.926 260.009 237.934 260.009 237.934C281.212 236.684 283.712 267.826 262.539 270.334C262.539 270.334 241.224 272.841 217.513 274.083L360.748 700.128L446.833 441.971L385.544 274.076C364.363 272.833 344.298 270.326 344.298 270.326C323.102 269.084 325.587 236.677 346.782 237.927C346.782 237.927 411.739 242.919 450.388 242.919C491.522 242.919 555.213 237.927 555.213 237.927C576.431 236.677 578.923 267.819 557.735 270.326C557.735 270.326 536.382 272.833 512.717 274.076L654.859 696.894L694.084 565.792C711.096 511.388 724.037 472.313 724.037 438.641Z" fill="#00749A"/>
<path d="M465.408 492.894L347.396 835.81C383.475 846.443 420.894 851.842 458.508 851.841C504.312 851.841 548.237 843.916 589.124 829.546C588.027 827.829 587.09 826.015 586.325 824.127L465.408 492.894ZM803.639 269.779C805.33 282.308 806.288 295.765 806.288 310.224C806.288 350.138 798.834 395.007 776.381 451.109L656.236 798.478C773.17 730.289 851.823 603.602 851.823 458.489C851.928 392.529 835.353 327.614 803.639 269.779Z" fill="#00749A"/>
<path d="M458.508 0C205.695 0 0.00390625 205.676 0.00390625 458.489C0.00390625 711.331 205.688 917.008 458.508 917.008C711.313 917.008 917.034 711.339 917.034 458.489C917.026 205.676 711.313 0 458.508 0ZM458.508 895.984C217.288 895.984 21.0273 699.723 21.0273 458.489C21.0273 217.277 217.281 21.0309 458.508 21.0309C699.719 21.0309 895.966 217.277 895.966 458.489C895.966 699.723 699.712 895.984 458.508 895.984Z" fill="#00749A"/>
</g>
</g>
<defs>
<clipPath id="clip0_436_1731">
<rect width="917" height="917" fill="white"/>
</clipPath>
</defs>
</svg>
